SplineFontDB: 3.2
FontName: Spectral-Share-Regular
FullName: Spectral Share Regular
FamilyName: Spectral Share
Weight: Regular
Copyright: Copyright 2017 The Spectral Project Authors (https://github.com/productiontype/Spectral)\n"Fair and Share" tax glyphs by Vector Hasting and shared under CC 4.0 SA-BY.
Version: 2.005; ttfautohint (v1.8.4.7-5d5b)
ItalicAngle: 0
UnderlinePosition: -148.48
UnderlineWidth: 51.2
Ascent: 819
Descent: 205
InvalidEm: 0
sfntRevision: 0x00020148
LayerCount: 2
Layer: 0 1 "Back" 1
Layer: 1 1 "Fore" 0
XUID: [1021 508 542950195 13110]
StyleMap: 0x0020
FSType: 0
OS2Version: 4
OS2_WeightWidthSlopeOnly: 0
OS2_UseTypoMetrics: 1
CreationTime: 1492190904
ModificationTime: 1758669607
PfmFamily: 81
TTFWeight: 400
TTFWidth: 5
LineGap: 0
VLineGap: 0
Panose: 0 0 0 0 0 0 0 0 0 0
OS2TypoAscent: 1084
OS2TypoAOffset: 0
OS2TypoDescent: -474
OS2TypoDOffset: 0
OS2TypoLinegap: 0
OS2WinAscent: 1084
OS2WinAOffset: 0
OS2WinDescent: 474
OS2WinDOffset: 0
HheadAscent: 1084
HheadAOffset: 0
HheadDescent: -474
HheadDOffset: 0
OS2SubXSize: 666
OS2SubYSize: 614
OS2SubXOff: 0
OS2SubYOff: 77
OS2SupXSize: 666
OS2SupYSize: 614
OS2SupXOff: 0
OS2SupYOff: 358
OS2StrikeYSize: 51
OS2StrikeYPos: 266
OS2CapHeight: 676
OS2XHeight: 467
OS2Vendor: 'PROD'
OS2CodePages: 20000197.00000000
OS2UnicodeRanges: a000027f.4000e43b.00000000.00000000
Lookup: 1 0 0 "'aalt' Access All Alternates lookup 0" { "'aalt' Access All Alternates lookup 0 subtable"  } ['aalt' ('DFLT' <'dflt' > 'cyrl' <'BGR ' 'SRB ' 'dflt' > 'latn' <'AZE ' 'CAT ' 'CRT ' 'MOL ' 'NLD ' 'ROM ' 'TRK ' 'dflt' > ) ]
Lookup: 3 0 0 "'aalt' Access All Alternates lookup 1" { "'aalt' Access All Alternates lookup 1 subtable"  } ['aalt' ('DFLT' <'dflt' > 'cyrl' <'BGR ' 'SRB ' 'dflt' > 'latn' <'AZE ' 'CAT ' 'CRT ' 'MOL ' 'NLD ' 'ROM ' 'TRK ' 'dflt' > ) ]

StartChar: .notdef
Encoding: 65536 -1 0
Width: 512
GlyphClass: 1
Flags: W
LayerCount: 2
Fore
SplineSet
56 0 m 1,0,-1
 56 768 l 1,1,-1
 456 768 l 1,2,-1
 456 0 l 1,3,-1
 56 0 l 1,0,-1
256 416 m 1,4,-1
 410 735 l 1,5,-1
 102 735 l 1,6,-1
 256 416 l 1,4,-1
87 63 m 1,7,-1
 241 384 l 1,8,-1
 87 705 l 1,9,-1
 87 63 l 1,7,-1
425 63 m 1,10,-1
 425 705 l 1,11,-1
 271 384 l 1,12,-1
 425 63 l 1,10,-1
102 33 m 1,13,-1
 410 33 l 1,14,-1
 256 352 l 1,15,-1
 102 33 l 1,13,-1
EndSplineSet
Validated: 1
EndChar

StartChar: A
Encoding: 65 65 9
Width: 792
GlyphClass: 2
Flags: W
AnchorPoint: "Anchor-3" 395 727 basechar 0
AnchorPoint: "Anchor-2" 651 0 basechar 0
AnchorPoint: "Anchor-0" 362 0 basechar 0
LayerCount: 2
Fore
SplineSet
19 0 m 1,0,-1
 19 16 l 1,1,-1
 82 51 l 1,2,-1
 349 681 l 1,3,-1
 439 681 l 1,4,-1
 703 52 l 1,5,-1
 773 16 l 1,6,-1
 773 0 l 1,7,-1
 450 0 l 1,8,-1
 450 16 l 1,9,-1
 539 53 l 1,10,-1
 469 223 l 1,11,-1
 226 223 l 1,12,-1
 157 53 l 1,13,-1
 242 16 l 1,14,-1
 242 0 l 1,15,-1
 19 0 l 1,0,-1
250 280 m 1,16,-1
 445 280 l 1,17,-1
 347 517 l 1,18,-1
 250 280 l 1,16,-1
EndSplineSet
Validated: 1
Substitution2: "'c2sc' Capitals to Small Capitals lookup 59 subtable" a.sc
Substitution2: "Single Substitution lookup 21 subtable" ordfeminine
AlternateSubs2: "'aalt' Access All Alternates lookup 1 subtable" ordfeminine a.sc
Position2: "'cpsp' Capital Spacing lookup 0 subtable" dx=5 dy=0 dh=10 dv=0
EndChar

StartChar: B
Encoding: 66 66 10
Width: 722
GlyphClass: 1
Flags: W
LayerCount: 2
Fore
SplineSet
45 0 m 1,0,-1
 45 16 l 1,1,-1
 132 58 l 1,2,-1
 132 617 l 1,3,-1
 45 659 l 1,4,-1
 45 676 l 1,5,-1
 373 676 l 2,6,7
 446 676 446 676 503.5 659 c 128,-1,8
 561 642 561 642 595 608.5 c 128,-1,9
 629 575 629 575 629 524 c 0,10,11
 629 472 629 472 589.5 428 c 128,-1,12
 550 384 550 384 476 367 c 1,13,14
 576 354 576 354 632.5 309 c 128,-1,15
 689 264 689 264 689 197 c 0,16,17
 689 141 689 141 651 96 c 128,-1,18
 613 51 613 51 547 25.5 c 128,-1,19
 481 0 481 0 397 0 c 2,20,-1
 45 0 l 1,0,-1
322 620 m 2,21,-1
 287 620 l 1,22,-1
 287 374 l 1,23,-1
 328 374 l 2,24,25
 396 374 396 374 434 406 c 128,-1,26
 472 438 472 438 472 494 c 0,27,28
 472 495 472 495 472 496 c 0,29,30
 472 620 472 620 322 620 c 2,21,-1
357 324 m 2,31,-1
 287 324 l 1,32,-1
 287 56 l 1,33,-1
 365 56 l 2,34,35
 440 56 440 56 482.5 94.5 c 128,-1,36
 525 133 525 133 525 191 c 0,37,38
 525 259 525 259 481.5 291.5 c 128,-1,39
 438 324 438 324 357 324 c 2,31,-1
EndSplineSet
Validated: 1
Substitution2: "'c2sc' Capitals to Small Capitals lookup 59 subtable" b.sc
Substitution2: "'aalt' Access All Alternates lookup 0 subtable" b.sc
Position2: "'cpsp' Capital Spacing lookup 0 subtable" dx=5 dy=0 dh=10 dv=0
EndChar

StartChar: C
Encoding: 67 67 11
Width: 728
GlyphClass: 2
Flags: W
AnchorPoint: "Anchor-3" 400 727 basechar 0
AnchorPoint: "Anchor-0" 408 0 basechar 0
LayerCount: 2
Fore
SplineSet
409 -10 m 0,0,1
 301 -10 301 -10 220 34 c 128,-1,2
 139 78 139 78 94.5 153 c 128,-1,3
 50 228 50 228 50 324 c 0,4,5
 50 401 50 401 81 466 c 128,-1,6
 112 531 112 531 164.5 581 c 128,-1,7
 217 631 217 631 284.5 658.5 c 128,-1,8
 352 686 352 686 425 686 c 0,9,10
 478 686 478 686 514.5 679.5 c 128,-1,11
 551 673 551 673 579 662 c 128,-1,12
 607 651 607 651 637 637 c 1,13,-1
 648 445 l 1,14,-1
 630 445 l 1,15,-1
 532 604 l 1,16,17
 506 620 506 620 484 627.5 c 128,-1,18
 462 635 462 635 430 635 c 0,19,20
 368 635 368 635 318 597.5 c 128,-1,21
 268 560 268 560 239.5 492.5 c 128,-1,22
 211 425 211 425 211 334 c 0,23,24
 211 244 211 244 238.5 179.5 c 128,-1,25
 266 115 266 115 313.5 79.5 c 128,-1,26
 361 44 361 44 421 44 c 0,27,28
 460 44 460 44 489.5 53.5 c 128,-1,29
 519 63 519 63 547 79 c 1,30,-1
 639 216 l 1,31,-1
 656 216 l 1,32,-1
 642 43 l 1,33,34
 600 18 600 18 541.5 4 c 128,-1,35
 483 -10 483 -10 409 -10 c 0,0,1
EndSplineSet
Validated: 1
Substitution2: "'c2sc' Capitals to Small Capitals lookup 59 subtable" c.sc
Substitution2: "'aalt' Access All Alternates lookup 0 subtable" c.sc
Position2: "'cpsp' Capital Spacing lookup 0 subtable" dx=5 dy=0 dh=10 dv=0
EndChar

StartChar: D
Encoding: 68 68 12
Width: 821
GlyphClass: 2
Flags: W
AnchorPoint: "Anchor-3" 400 727 basechar 0
AnchorPoint: "Anchor-0" 413 0 basechar 0
LayerCount: 2
Fore
SplineSet
45 0 m 1,0,-1
 45 16 l 1,1,-1
 132 58 l 1,2,-1
 132 617 l 1,3,-1
 45 659 l 1,4,-1
 45 676 l 1,5,-1
 394 676 l 2,6,7
 515 676 515 676 600 636 c 128,-1,8
 685 596 685 596 730 526.5 c 128,-1,9
 775 457 775 457 775 369 c 0,10,11
 775 289 775 289 746 222 c 128,-1,12
 717 155 717 155 664.5 105 c 128,-1,13
 612 55 612 55 541.5 27.5 c 128,-1,14
 471 0 471 0 387 0 c 2,15,-1
 45 0 l 1,0,-1
352 620 m 2,16,-1
 287 620 l 1,17,-1
 287 56 l 1,18,-1
 368 56 l 2,19,20
 486 56 486 56 550 132.5 c 128,-1,21
 614 209 614 209 614 337 c 0,22,23
 614 466 614 466 547.5 543 c 128,-1,24
 481 620 481 620 352 620 c 2,16,-1
EndSplineSet
Validated: 1
Substitution2: "'c2sc' Capitals to Small Capitals lookup 59 subtable" d.sc
Substitution2: "'aalt' Access All Alternates lookup 0 subtable" d.sc
Position2: "'cpsp' Capital Spacing lookup 0 subtable" dx=5 dy=0 dh=10 dv=0
EndChar

StartChar: E
Encoding: 69 69 13
Width: 697
GlyphClass: 2
Flags: W
AnchorPoint: "Anchor-3" 362 727 basechar 0
AnchorPoint: "Anchor-2" 557 0 basechar 0
AnchorPoint: "Anchor-0" 369 0 basechar 0
LayerCount: 2
Fore
SplineSet
45 0 m 1,0,-1
 45 16 l 1,1,-1
 132 58 l 1,2,-1
 132 617 l 1,3,-1
 45 659 l 1,4,-1
 45 676 l 1,5,-1
 603 676 l 1,6,-1
 603 499 l 1,7,-1
 587 499 l 1,8,-1
 511 620 l 1,9,-1
 287 620 l 1,10,-1
 287 377 l 1,11,-1
 444 377 l 1,12,-1
 502 465 l 1,13,-1
 518 465 l 1,14,-1
 518 234 l 1,15,-1
 502 234 l 1,16,-1
 444 321 l 1,17,-1
 287 321 l 1,18,-1
 287 56 l 1,19,-1
 536 56 l 1,20,-1
 615 209 l 1,21,-1
 632 209 l 1,22,-1
 632 0 l 1,23,-1
 45 0 l 1,0,-1
EndSplineSet
Validated: 1
Substitution2: "'c2sc' Capitals to Small Capitals lookup 59 subtable" e.sc
Substitution2: "'aalt' Access All Alternates lookup 0 subtable" e.sc
Position2: "'cpsp' Capital Spacing lookup 0 subtable" dx=5 dy=0 dh=10 dv=0
EndChar

StartChar: F
Encoding: 70 70 14
Width: 646
GlyphClass: 1
Flags: W
LayerCount: 2
Fore
SplineSet
45 0 m 1,0,-1
 45 16 l 1,1,-1
 132 58 l 1,2,-1
 132 617 l 1,3,-1
 45 659 l 1,4,-1
 45 676 l 1,5,-1
 593 676 l 1,6,-1
 593 499 l 1,7,-1
 577 499 l 1,8,-1
 507 620 l 1,9,-1
 287 620 l 1,10,-1
 287 374 l 1,11,-1
 434 374 l 1,12,-1
 492 462 l 1,13,-1
 508 462 l 1,14,-1
 508 238 l 1,15,-1
 492 238 l 1,16,-1
 434 324 l 1,17,-1
 287 324 l 1,18,-1
 287 58 l 1,19,-1
 391 16 l 1,20,-1
 391 0 l 1,21,-1
 45 0 l 1,0,-1
EndSplineSet
Validated: 1
Substitution2: "'c2sc' Capitals to Small Capitals lookup 59 subtable" f.sc
Substitution2: "'aalt' Access All Alternates lookup 0 subtable" f.sc
Position2: "'cpsp' Capital Spacing lookup 0 subtable" dx=5 dy=0 dh=10 dv=0
EndChar

StartChar: G
Encoding: 71 71 15
Width: 774
GlyphClass: 2
Flags: W
AnchorPoint: "Anchor-3" 414 727 basechar 0
AnchorPoint: "Anchor-0" 419 0 basechar 0
LayerCount: 2
Fore
SplineSet
404 -10 m 0,0,1
 330 -10 330 -10 266.5 15 c 128,-1,2
 203 40 203 40 154 85.5 c 128,-1,3
 105 131 105 131 78 192 c 128,-1,4
 51 253 51 253 51 324 c 0,5,6
 51 403 51 403 82.5 469 c 128,-1,7
 114 535 114 535 167.5 584 c 128,-1,8
 221 633 221 633 290.5 659.5 c 128,-1,9
 360 686 360 686 437 686 c 0,10,11
 491 686 491 686 529.5 680 c 128,-1,12
 568 674 568 674 598.5 662.5 c 128,-1,13
 629 651 629 651 658 637 c 1,14,-1
 670 457 l 1,15,-1
 652 457 l 1,16,-1
 554 605 l 1,17,18
 525 622 525 622 499.5 629 c 128,-1,19
 474 636 474 636 441 636 c 0,20,21
 378 636 378 636 325 599 c 128,-1,22
 272 562 272 562 241.5 496 c 128,-1,23
 211 430 211 430 211 342 c 0,24,25
 211 250 211 250 240.5 184 c 128,-1,26
 270 118 270 118 321 82 c 128,-1,27
 372 46 372 46 434 46 c 0,28,29
 472 46 472 46 513 54 c 1,30,-1
 513 243 l 1,31,-1
 422 291 l 1,32,-1
 422 307 l 1,33,-1
 744 307 l 1,34,-1
 744 291 l 1,35,-1
 667 242 l 1,36,-1
 667 76 l 1,37,38
 636 50 636 50 591.5 30.5 c 128,-1,39
 547 11 547 11 497.5 0.5 c 128,-1,40
 448 -10 448 -10 404 -10 c 0,0,1
EndSplineSet
Validated: 1
Substitution2: "'c2sc' Capitals to Small Capitals lookup 59 subtable" g.sc
Substitution2: "'aalt' Access All Alternates lookup 0 subtable" g.sc
Position2: "'cpsp' Capital Spacing lookup 0 subtable" dx=5 dy=0 dh=10 dv=0
EndChar

StartChar: H
Encoding: 72 72 16
Width: 856
GlyphClass: 2
Flags: W
AnchorPoint: "Anchor-3" 428 727 basechar 0
AnchorPoint: "Anchor-0" 428 0 basechar 0
LayerCount: 2
Fore
SplineSet
45 0 m 1,0,-1
 45 16 l 1,1,-1
 132 58 l 1,2,-1
 132 617 l 1,3,-1
 45 659 l 1,4,-1
 45 676 l 1,5,-1
 367 676 l 1,6,-1
 367 659 l 1,7,-1
 287 617 l 1,8,-1
 287 376 l 1,9,-1
 570 376 l 1,10,-1
 570 617 l 1,11,-1
 488 659 l 1,12,-1
 488 676 l 1,13,-1
 811 676 l 1,14,-1
 811 659 l 1,15,-1
 725 617 l 1,16,-1
 725 58 l 1,17,-1
 811 16 l 1,18,-1
 811 0 l 1,19,-1
 488 0 l 1,20,-1
 488 16 l 1,21,-1
 570 58 l 1,22,-1
 570 319 l 1,23,-1
 287 319 l 1,24,-1
 287 58 l 1,25,-1
 367 16 l 1,26,-1
 367 0 l 1,27,-1
 45 0 l 1,0,-1
EndSplineSet
Validated: 1
Substitution2: "'c2sc' Capitals to Small Capitals lookup 59 subtable" h.sc
Substitution2: "'aalt' Access All Alternates lookup 0 subtable" h.sc
Position2: "'cpsp' Capital Spacing lookup 0 subtable" dx=5 dy=0 dh=10 dv=0
EndChar

StartChar: I
Encoding: 73 73 17
Width: 422
GlyphClass: 2
Flags: W
AnchorPoint: "Anchor-3" 212 727 basechar 0
AnchorPoint: "Anchor-2" 236 0 basechar 0
AnchorPoint: "Anchor-0" 212 0 basechar 0
LayerCount: 2
Fore
SplineSet
47 0 m 1,0,-1
 47 16 l 1,1,-1
 134 58 l 1,2,-1
 134 617 l 1,3,-1
 47 659 l 1,4,-1
 47 676 l 1,5,-1
 376 676 l 1,6,-1
 376 659 l 1,7,-1
 289 617 l 1,8,-1
 289 58 l 1,9,-1
 376 16 l 1,10,-1
 376 0 l 1,11,-1
 47 0 l 1,0,-1
EndSplineSet
Validated: 1
Substitution2: "'c2sc' Capitals to Small Capitals lookup 59 subtable" i.sc
Substitution2: "'aalt' Access All Alternates lookup 0 subtable" i.sc
Position2: "'cpsp' Capital Spacing lookup 0 subtable" dx=5 dy=0 dh=10 dv=0
EndChar

StartChar: J
Encoding: 74 74 18
Width: 442
GlyphClass: 2
Flags: W
AnchorPoint: "Anchor-3" 230 727 basechar 0
LayerCount: 2
Fore
SplineSet
62 -177 m 0,0,1
 38 -177 38 -177 24.5 -167 c 128,-1,2
 11 -157 11 -157 11 -140 c 0,3,4
 11 -134 11 -134 15 -121 c 2,5,-1
 28 -69 l 1,6,-1
 121 -87 l 1,7,8
 139 -62 139 -62 146.5 -31 c 128,-1,9
 154 0 154 0 154 51 c 2,10,-1
 154 617 l 1,11,-1
 67 659 l 1,12,-1
 67 676 l 1,13,-1
 395 676 l 1,14,-1
 395 659 l 1,15,-1
 308 617 l 1,16,-1
 308 251 l 2,17,18
 308 154 308 154 282.5 75 c 128,-1,19
 257 -4 257 -4 207 -69 c 0,20,21
 156 -134 156 -134 123 -155.5 c 128,-1,22
 90 -177 90 -177 62 -177 c 0,0,1
EndSplineSet
Validated: 1
Substitution2: "'c2sc' Capitals to Small Capitals lookup 59 subtable" j.sc
Substitution2: "Single Substitution lookup 13 subtable" Jacute
AlternateSubs2: "'aalt' Access All Alternates lookup 1 subtable" Jacute j.sc
Position2: "'cpsp' Capital Spacing lookup 0 subtable" dx=5 dy=0 dh=10 dv=0
EndChar

StartChar: K
Encoding: 75 75 19
Width: 792
GlyphClass: 2
Flags: W
AnchorPoint: "Anchor-3" 436 727 basechar 0
AnchorPoint: "Anchor-0" 436 0 basechar 0
LayerCount: 2
Fore
SplineSet
45 0 m 1,0,-1
 45 16 l 1,1,-1
 132 58 l 1,2,-1
 132 617 l 1,3,-1
 45 659 l 1,4,-1
 45 676 l 1,5,-1
 374 676 l 1,6,-1
 374 659 l 1,7,-1
 287 617 l 1,8,-1
 287 58 l 1,9,-1
 374 16 l 1,10,-1
 374 0 l 1,11,-1
 45 0 l 1,0,-1
288 341 m 1,12,-1
 568 623 l 1,13,-1
 492 659 l 1,14,-1
 492 676 l 1,15,-1
 733 676 l 1,16,-1
 733 659 l 1,17,-1
 666 631 l 1,18,-1
 428 402 l 1,19,-1
 712 47 l 1,20,-1
 784 16 l 1,21,-1
 784 0 l 1,22,-1
 557 0 l 1,23,-1
 288 341 l 1,12,-1
EndSplineSet
Validated: 1
Substitution2: "'c2sc' Capitals to Small Capitals lookup 59 subtable" k.sc
Substitution2: "'aalt' Access All Alternates lookup 0 subtable" k.sc
Position2: "'cpsp' Capital Spacing lookup 0 subtable" dx=5 dy=0 dh=10 dv=0
EndChar

StartChar: L
Encoding: 76 76 20
Width: 664
GlyphClass: 2
Flags: W
AnchorPoint: "Anchor-3" 210 727 basechar 0
AnchorPoint: "Anchor-2" 514 676 basechar 0
AnchorPoint: "Anchor-1" 532 360 basechar 0
AnchorPoint: "Anchor-0" 368 0 basechar 0
LayerCount: 2
Fore
SplineSet
45 0 m 1,0,-1
 45 16 l 1,1,-1
 132 58 l 1,2,-1
 132 617 l 1,3,-1
 45 659 l 1,4,-1
 45 676 l 1,5,-1
 384 676 l 1,6,-1
 384 659 l 1,7,-1
 287 617 l 1,8,-1
 287 56 l 1,9,-1
 512 56 l 1,10,-1
 595 250 l 1,11,-1
 611 250 l 1,12,-1
 611 0 l 1,13,-1
 45 0 l 1,0,-1
EndSplineSet
Validated: 1
Substitution2: "'c2sc' Capitals to Small Capitals lookup 59 subtable" l.sc
Substitution2: "'aalt' Access All Alternates lookup 0 subtable" l.sc
Position2: "'cpsp' Capital Spacing lookup 0 subtable" dx=5 dy=0 dh=10 dv=0
EndChar

StartChar: M
Encoding: 77 77 21
Width: 1018
GlyphClass: 2
Flags: W
AnchorPoint: "Anchor-0" 476 0 basechar 0
LayerCount: 2
Fore
SplineSet
43 0 m 1,0,-1
 43 16 l 1,1,-1
 130 58 l 1,2,-1
 151 617 l 1,3,-1
 61 659 l 1,4,-1
 61 676 l 1,5,-1
 315 676 l 1,6,-1
 521 199 l 1,7,-1
 725 676 l 1,8,-1
 971 676 l 1,9,-1
 971 659 l 1,10,-1
 881 628 l 1,11,-1
 899 58 l 1,12,-1
 977 16 l 1,13,-1
 977 0 l 1,14,-1
 667 0 l 1,15,-1
 667 16 l 1,16,-1
 749 57 l 1,17,-1
 738 543 l 1,18,-1
 505 -5 l 1,19,-1
 447 -5 l 1,20,-1
 212 542 l 1,21,-1
 199 57 l 1,22,-1
 288 16 l 1,23,-1
 288 0 l 1,24,-1
 43 0 l 1,0,-1
EndSplineSet
Validated: 1
Substitution2: "'c2sc' Capitals to Small Capitals lookup 59 subtable" m.sc
Substitution2: "'aalt' Access All Alternates lookup 0 subtable" m.sc
Position2: "'cpsp' Capital Spacing lookup 0 subtable" dx=5 dy=0 dh=10 dv=0
EndChar

StartChar: N
Encoding: 78 78 22
Width: 835
GlyphClass: 2
Flags: W
AnchorPoint: "Anchor-3" 423 727 basechar 0
AnchorPoint: "Anchor-0" 426 0 basechar 0
LayerCount: 2
Fore
SplineSet
43 0 m 1,0,-1
 43 16 l 1,1,-1
 130 58 l 1,2,-1
 130 616 l 1,3,-1
 43 659 l 1,4,-1
 43 676 l 1,5,-1
 238 676 l 1,6,-1
 635 226 l 1,7,-1
 635 618 l 1,8,-1
 518 659 l 1,9,-1
 518 676 l 1,10,-1
 793 676 l 1,11,-1
 793 659 l 1,12,-1
 707 617 l 1,13,-1
 707 -5 l 1,14,-1
 643 -5 l 1,15,-1
 202 488 l 1,16,-1
 202 58 l 1,17,-1
 318 16 l 1,18,-1
 318 0 l 1,19,-1
 43 0 l 1,0,-1
EndSplineSet
Validated: 1
Substitution2: "'c2sc' Capitals to Small Capitals lookup 59 subtable" n.sc
Substitution2: "'aalt' Access All Alternates lookup 0 subtable" n.sc
Position2: "'cpsp' Capital Spacing lookup 0 subtable" dx=5 dy=0 dh=10 dv=0
EndChar

StartChar: O
Encoding: 79 79 23
Width: 807
GlyphClass: 2
Flags: W
AnchorPoint: "Anchor-3" 399 727 basechar 0
AnchorPoint: "Anchor-2" 436 0 basechar 0
AnchorPoint: "Anchor-0" 410 0 basechar 0
LayerCount: 2
Fore
SplineSet
403 -10 m 256,0,1
 327 -10 327 -10 263 16 c 128,-1,2
 199 42 199 42 151 88.5 c 128,-1,3
 103 135 103 135 76.5 199 c 128,-1,4
 50 263 50 263 50 338 c 0,5,6
 50 414 50 414 76.5 477.5 c 128,-1,7
 103 541 103 541 151 587.5 c 128,-1,8
 199 634 199 634 263.5 660 c 128,-1,9
 328 686 328 686 403 686 c 256,10,11
 479 686 479 686 544 660 c 128,-1,12
 609 634 609 634 657 587.5 c 128,-1,13
 705 541 705 541 731.5 477.5 c 128,-1,14
 758 414 758 414 758 338 c 0,15,16
 758 263 758 263 731.5 199 c 128,-1,17
 705 135 705 135 657 88.5 c 128,-1,18
 609 42 609 42 544 16 c 128,-1,19
 479 -10 479 -10 403 -10 c 256,0,1
420 43 m 0,20,21
 472 43 472 43 511 75.5 c 128,-1,22
 550 108 550 108 572.5 167.5 c 128,-1,23
 595 227 595 227 595 307 c 0,24,25
 595 406 595 406 567.5 479.5 c 128,-1,26
 540 553 540 553 493.5 593.5 c 128,-1,27
 447 634 447 634 390 634 c 0,28,29
 339 634 339 634 299 601.5 c 128,-1,30
 259 569 259 569 236 510 c 128,-1,31
 213 451 213 451 213 371 c 0,32,33
 213 272 213 272 240.5 198 c 128,-1,34
 268 124 268 124 315.5 83.5 c 128,-1,35
 363 43 363 43 420 43 c 0,20,21
EndSplineSet
Validated: 1
Substitution2: "'c2sc' Capitals to Small Capitals lookup 59 subtable" o.sc
Substitution2: "Single Substitution lookup 21 subtable" ordmasculine
AlternateSubs2: "'aalt' Access All Alternates lookup 1 subtable" ordmasculine o.sc
Position2: "'cpsp' Capital Spacing lookup 0 subtable" dx=5 dy=0 dh=10 dv=0
EndChar

StartChar: P
Encoding: 80 80 24
Width: 700
GlyphClass: 1
Flags: W
LayerCount: 2
Fore
SplineSet
45 0 m 1,0,-1
 45 16 l 1,1,-1
 132 58 l 1,2,-1
 132 617 l 1,3,-1
 45 659 l 1,4,-1
 45 676 l 1,5,-1
 399 676 l 2,6,7
 520 676 520 676 593.5 632.5 c 128,-1,8
 667 589 667 589 667 494 c 0,9,10
 667 437 667 437 628.5 393 c 128,-1,11
 590 349 590 349 524 325 c 128,-1,12
 458 301 458 301 375 301 c 2,13,-1
 287 301 l 1,14,-1
 287 58 l 1,15,-1
 391 16 l 1,16,-1
 391 0 l 1,17,-1
 45 0 l 1,0,-1
330 620 m 2,18,-1
 287 620 l 1,19,-1
 287 351 l 1,20,-1
 337 351 l 2,21,22
 417 351 417 351 463.5 389 c 128,-1,23
 510 427 510 427 510 484 c 0,24,25
 510 556 510 556 463 588 c 128,-1,26
 416 620 416 620 330 620 c 2,18,-1
EndSplineSet
Validated: 1
Substitution2: "'c2sc' Capitals to Small Capitals lookup 59 subtable" p.sc
Substitution2: "'aalt' Access All Alternates lookup 0 subtable" p.sc
Position2: "'cpsp' Capital Spacing lookup 0 subtable" dx=5 dy=0 dh=10 dv=0
EndChar

StartChar: Q
Encoding: 81 81 25
Width: 807
GlyphClass: 1
Flags: W
LayerCount: 2
Fore
SplineSet
702 -159 m 0,0,1
 654 -159 654 -159 603 -146 c 128,-1,2
 552 -133 552 -133 490 -100 c 128,-1,3
 428 -67 428 -67 351 -7 c 1,4,5
 263 5 263 5 195 52 c 128,-1,6
 127 99 127 99 88.5 173 c 128,-1,7
 50 247 50 247 50 338 c 0,8,9
 50 414 50 414 76.5 477.5 c 128,-1,10
 103 541 103 541 151 587.5 c 128,-1,11
 199 634 199 634 263.5 660 c 128,-1,12
 328 686 328 686 403 686 c 256,13,14
 479 686 479 686 544 660 c 128,-1,15
 609 634 609 634 657 587.5 c 128,-1,16
 705 541 705 541 731.5 477.5 c 128,-1,17
 758 414 758 414 758 338 c 0,18,19
 758 258 758 258 728 191.5 c 128,-1,20
 698 125 698 125 645 78 c 128,-1,21
 592 31 592 31 521 8 c 1,22,23
 607 -65 607 -65 663 -91 c 128,-1,24
 719 -117 719 -117 764 -117 c 0,25,26
 788 -117 788 -117 804 -114 c 128,-1,27
 820 -111 820 -111 831 -108 c 1,28,-1
 831 -131 l 1,29,30
 808 -142 808 -142 776.5 -150.5 c 128,-1,31
 745 -159 745 -159 702 -159 c 0,0,1
420 43 m 0,32,33
 472 43 472 43 511 75.5 c 128,-1,34
 550 108 550 108 572.5 167.5 c 128,-1,35
 595 227 595 227 595 307 c 0,36,37
 595 406 595 406 567.5 479.5 c 128,-1,38
 540 553 540 553 493.5 593.5 c 128,-1,39
 447 634 447 634 390 634 c 0,40,41
 339 634 339 634 299 601.5 c 128,-1,42
 259 569 259 569 236 510 c 128,-1,43
 213 451 213 451 213 371 c 0,44,45
 213 272 213 272 240.5 198 c 128,-1,46
 268 124 268 124 315.5 83.5 c 128,-1,47
 363 43 363 43 420 43 c 0,32,33
EndSplineSet
Validated: 1
Substitution2: "'c2sc' Capitals to Small Capitals lookup 59 subtable" q.sc
Substitution2: "'aalt' Access All Alternates lookup 0 subtable" q.sc
Position2: "'cpsp' Capital Spacing lookup 0 subtable" dx=5 dy=0 dh=10 dv=0
EndChar

StartChar: R
Encoding: 82 82 26
Width: 744
GlyphClass: 2
Flags: W
AnchorPoint: "Anchor-3" 349 727 basechar 0
AnchorPoint: "Anchor-0" 414 0 basechar 0
LayerCount: 2
Fore
SplineSet
45 0 m 1,0,-1
 45 16 l 1,1,-1
 132 58 l 1,2,-1
 132 617 l 1,3,-1
 45 659 l 1,4,-1
 45 676 l 1,5,-1
 395 676 l 2,6,7
 503 676 503 676 565 631.5 c 128,-1,8
 627 587 627 587 627 509 c 0,9,10
 627 452 627 452 589 411.5 c 128,-1,11
 551 371 551 371 489 348 c 1,12,-1
 679 57 l 1,13,-1
 753 16 l 1,14,-1
 753 0 l 1,15,-1
 530 0 l 1,16,-1
 342 313 l 1,17,-1
 287 313 l 1,18,-1
 287 59 l 1,19,-1
 364 16 l 1,20,-1
 364 0 l 1,21,-1
 45 0 l 1,0,-1
328 620 m 2,22,-1
 287 620 l 1,23,-1
 287 364 l 1,24,-1
 334 364 l 2,25,26
 396 364 396 364 434 399.5 c 128,-1,27
 472 435 472 435 472 493 c 0,28,29
 472 553 472 553 435.5 586.5 c 128,-1,30
 399 620 399 620 328 620 c 2,22,-1
EndSplineSet
Validated: 1
Substitution2: "'c2sc' Capitals to Small Capitals lookup 59 subtable" r.sc
Substitution2: "'aalt' Access All Alternates lookup 0 subtable" r.sc
Position2: "'cpsp' Capital Spacing lookup 0 subtable" dx=5 dy=0 dh=10 dv=0
EndChar

StartChar: S
Encoding: 83 83 27
Width: 585
GlyphClass: 2
Flags: W
AnchorPoint: "Anchor-3" 307 727 basechar 0
AnchorPoint: "Anchor-0" 294 0 basechar 0
LayerCount: 2
Fore
SplineSet
278 -10 m 0,0,1
 210 -10 210 -10 159 3.5 c 128,-1,2
 108 17 108 17 58 42 c 1,3,-1
 48 215 l 1,4,-1
 67 215 l 1,5,-1
 139 90 l 1,6,7
 166 67 166 67 198.5 54.5 c 128,-1,8
 231 42 231 42 265 42 c 0,9,10
 320 42 320 42 355 68 c 128,-1,11
 390 94 390 94 390 145 c 0,12,13
 390 180 390 180 374 202.5 c 128,-1,14
 358 225 358 225 321.5 245 c 128,-1,15
 285 265 285 265 220 294 c 0,16,17
 147 326 147 326 108.5 369.5 c 128,-1,18
 70 413 70 413 70 479 c 0,19,20
 70 520 70 520 91 557.5 c 128,-1,21
 112 595 112 595 147 624 c 128,-1,22
 182 653 182 653 225.5 669.5 c 128,-1,23
 269 686 269 686 315 686 c 0,24,25
 367 686 367 686 415.5 674 c 128,-1,26
 464 662 464 662 505 639 c 1,27,-1
 515 475 l 1,28,-1
 498 475 l 1,29,-1
 426 591 l 1,30,31
 399 611 399 611 374 622 c 128,-1,32
 349 633 349 633 317 633 c 0,33,34
 275 633 275 633 247.5 606.5 c 128,-1,35
 220 580 220 580 220 536 c 0,36,37
 220 494 220 494 250.5 466.5 c 128,-1,38
 281 439 281 439 355 406 c 0,39,40
 448 363 448 363 492.5 317.5 c 128,-1,41
 537 272 537 272 537 199 c 0,42,43
 537 132 537 132 499 85.5 c 128,-1,44
 461 39 461 39 402.5 14.5 c 128,-1,45
 344 -10 344 -10 278 -10 c 0,0,1
EndSplineSet
Validated: 1
Substitution2: "'c2sc' Capitals to Small Capitals lookup 59 subtable" s.sc
Substitution2: "'aalt' Access All Alternates lookup 0 subtable" s.sc
Position2: "'cpsp' Capital Spacing lookup 0 subtable" dx=5 dy=0 dh=10 dv=0
EndChar

StartChar: T
Encoding: 84 84 28
Width: 717
GlyphClass: 2
Flags: W
AnchorPoint: "Anchor-3" 358 727 basechar 0
AnchorPoint: "Anchor-0" 358 0 basechar 0
LayerCount: 2
Fore
SplineSet
173 0 m 1,0,-1
 173 16 l 1,1,-1
 282 58 l 1,2,-1
 282 620 l 1,3,-1
 135 620 l 1,4,-1
 53 451 l 1,5,-1
 37 451 l 1,6,-1
 37 676 l 1,7,-1
 681 676 l 1,8,-1
 681 451 l 1,9,-1
 665 451 l 1,10,-1
 583 620 l 1,11,-1
 436 620 l 1,12,-1
 436 58 l 1,13,-1
 545 16 l 1,14,-1
 545 0 l 1,15,-1
 173 0 l 1,0,-1
EndSplineSet
Validated: 1
Substitution2: "'c2sc' Capitals to Small Capitals lookup 59 subtable" t.sc
Substitution2: "'aalt' Access All Alternates lookup 0 subtable" t.sc
Position2: "'cpsp' Capital Spacing lookup 0 subtable" dx=5 dy=0 dh=10 dv=0
EndChar

StartChar: U
Encoding: 85 85 29
Width: 858
GlyphClass: 2
Flags: W
AnchorPoint: "Anchor-3" 467 727 basechar 0
AnchorPoint: "Anchor-2" 471 0 basechar 0
AnchorPoint: "Anchor-0" 453 0 basechar 0
LayerCount: 2
Fore
SplineSet
433 -10 m 0,0,1
 344 -10 344 -10 276.5 19 c 128,-1,2
 209 48 209 48 171 114 c 128,-1,3
 133 180 133 180 133 291 c 2,4,-1
 133 617 l 1,5,-1
 45 659 l 1,6,-1
 45 676 l 1,7,-1
 376 676 l 1,8,-1
 376 659 l 1,9,-1
 288 617 l 1,10,-1
 288 290 l 2,11,12
 288 205 288 205 314 156.5 c 128,-1,13
 340 108 340 108 384.5 87.5 c 128,-1,14
 429 67 429 67 483 67 c 0,15,16
 528 67 528 67 567 85 c 128,-1,17
 606 103 606 103 629.5 144 c 128,-1,18
 653 185 653 185 653 254 c 2,19,-1
 653 620 l 1,20,-1
 557 659 l 1,21,-1
 557 676 l 1,22,-1
 813 676 l 1,23,-1
 813 659 l 1,24,-1
 725 618 l 1,25,-1
 725 291 l 2,26,27
 725 180 725 180 688 114 c 128,-1,28
 651 48 651 48 585.5 19 c 128,-1,29
 520 -10 520 -10 433 -10 c 0,0,1
EndSplineSet
Validated: 1
Substitution2: "'c2sc' Capitals to Small Capitals lookup 59 subtable" u.sc
Substitution2: "'aalt' Access All Alternates lookup 0 subtable" u.sc
Position2: "'cpsp' Capital Spacing lookup 0 subtable" dx=5 dy=0 dh=10 dv=0
EndChar

StartChar: V
Encoding: 86 86 30
Width: 782
GlyphClass: 1
Flags: W
LayerCount: 2
Fore
SplineSet
365 -5 m 1,0,-1
 92 620 l 1,1,-1
 19 659 l 1,2,-1
 19 676 l 1,3,-1
 339 676 l 1,4,-1
 339 659 l 1,5,-1
 256 621 l 1,6,-1
 438 201 l 1,7,-1
 444 201 l 1,8,-1
 626 621 l 1,9,-1
 543 659 l 1,10,-1
 543 676 l 1,11,-1
 762 676 l 1,12,-1
 762 659 l 1,13,-1
 702 627 l 1,14,-1
 424 -5 l 1,15,-1
 365 -5 l 1,0,-1
EndSplineSet
Validated: 1
Substitution2: "'c2sc' Capitals to Small Capitals lookup 59 subtable" v.sc
Substitution2: "'aalt' Access All Alternates lookup 0 subtable" v.sc
Position2: "'cpsp' Capital Spacing lookup 0 subtable" dx=5 dy=0 dh=10 dv=0
EndChar

StartChar: W
Encoding: 87 87 31
Width: 1067
GlyphClass: 2
Flags: W
AnchorPoint: "Anchor-3" 581 727 basechar 0
LayerCount: 2
Fore
SplineSet
288 -5 m 1,0,-1
 91 617 l 1,1,-1
 12 659 l 1,2,-1
 12 676 l 1,3,-1
 335 676 l 1,4,-1
 335 659 l 1,5,-1
 248 621 l 1,6,-1
 367 226 l 1,7,-1
 372 226 l 1,8,-1
 550 681 l 1,9,-1
 610 681 l 1,10,-1
 786 226 l 1,11,-1
 793 226 l 1,12,-1
 911 621 l 1,13,-1
 824 659 l 1,14,-1
 824 676 l 1,15,-1
 1055 676 l 1,16,-1
 1055 659 l 1,17,-1
 985 624 l 1,18,-1
 785 -5 l 1,19,-1
 726 -5 l 1,20,-1
 543 450 l 1,21,-1
 537 450 l 1,22,-1
 347 -5 l 1,23,-1
 288 -5 l 1,0,-1
EndSplineSet
Validated: 1
Substitution2: "'c2sc' Capitals to Small Capitals lookup 59 subtable" w.sc
Substitution2: "'aalt' Access All Alternates lookup 0 subtable" w.sc
Position2: "'cpsp' Capital Spacing lookup 0 subtable" dx=5 dy=0 dh=10 dv=0
EndChar

StartChar: X
Encoding: 88 88 32
Width: 798
GlyphClass: 1
Flags: W
LayerCount: 2
Fore
SplineSet
27 0 m 1,0,-1
 27 16 l 1,1,-1
 108 57 l 1,2,-1
 321 318 l 1,3,-1
 106 621 l 1,4,-1
 39 659 l 1,5,-1
 39 676 l 1,6,-1
 377 676 l 1,7,-1
 377 659 l 1,8,-1
 296 620 l 1,9,-1
 296 614 l 1,10,-1
 435 422 l 1,11,-1
 589 614 l 1,12,-1
 589 618 l 1,13,-1
 509 659 l 1,14,-1
 509 676 l 1,15,-1
 750 676 l 1,16,-1
 750 659 l 1,17,-1
 681 624 l 1,18,-1
 472 371 l 1,19,-1
 698 58 l 1,20,-1
 772 16 l 1,21,-1
 772 0 l 1,22,-1
 429 0 l 1,23,-1
 429 16 l 1,24,-1
 503 55 l 1,25,-1
 503 59 l 1,26,-1
 357 266 l 1,27,-1
 193 60 l 1,28,-1
 190 56 l 1,29,-1
 272 16 l 1,30,-1
 272 0 l 1,31,-1
 27 0 l 1,0,-1
EndSplineSet
Validated: 1
Substitution2: "'c2sc' Capitals to Small Capitals lookup 59 subtable" x.sc
Substitution2: "'aalt' Access All Alternates lookup 0 subtable" x.sc
Position2: "'cpsp' Capital Spacing lookup 0 subtable" dx=5 dy=0 dh=10 dv=0
EndChar

StartChar: Y
Encoding: 89 89 33
Width: 772
GlyphClass: 2
Flags: W
AnchorPoint: "Anchor-3" 425 727 basechar 0
AnchorPoint: "Anchor-0" 390 0 basechar 0
LayerCount: 2
Fore
SplineSet
221 0 m 1,0,-1
 221 16 l 1,1,-1
 313 58 l 1,2,-1
 313 315 l 1,3,-1
 89 621 l 1,4,-1
 20 659 l 1,5,-1
 20 676 l 1,6,-1
 337 676 l 1,7,-1
 337 659 l 1,8,-1
 260 622 l 1,9,-1
 260 617 l 1,10,-1
 438 376 l 1,11,-1
 598 615 l 1,12,-1
 598 620 l 1,13,-1
 519 659 l 1,14,-1
 519 676 l 1,15,-1
 753 676 l 1,16,-1
 753 659 l 1,17,-1
 684 626 l 1,18,-1
 468 316 l 1,19,-1
 468 58 l 1,20,-1
 559 16 l 1,21,-1
 559 0 l 1,22,-1
 221 0 l 1,0,-1
EndSplineSet
Validated: 1
Substitution2: "'c2sc' Capitals to Small Capitals lookup 59 subtable" y.sc
Substitution2: "'aalt' Access All Alternates lookup 0 subtable" y.sc
Position2: "'cpsp' Capital Spacing lookup 0 subtable" dx=5 dy=0 dh=10 dv=0
EndChar

StartChar: Z
Encoding: 90 90 34
Width: 717
GlyphClass: 2
Flags: W
AnchorPoint: "Anchor-3" 364 727 basechar 0
AnchorPoint: "Anchor-0" 364 0 basechar 0
LayerCount: 2
Fore
SplineSet
86 0 m 1,0,-1
 86 33 l 1,1,-1
 435 620 l 1,2,-1
 190 620 l 1,3,-1
 115 467 l 1,4,-1
 98 467 l 1,5,-1
 98 676 l 1,6,-1
 621 676 l 1,7,-1
 621 643 l 1,8,-1
 270 56 l 1,9,-1
 535 56 l 1,10,-1
 615 219 l 1,11,-1
 632 219 l 1,12,-1
 632 0 l 1,13,-1
 86 0 l 1,0,-1
EndSplineSet
Validated: 1
Substitution2: "'c2sc' Capitals to Small Capitals lookup 59 subtable" z.sc
Substitution2: "'aalt' Access All Alternates lookup 0 subtable" z.sc
Position2: "'cpsp' Capital Spacing lookup 0 subtable" dx=5 dy=0 dh=10 dv=0
EndChar

StartChar: Aogonek
Encoding: 260 260 45
Width: 792
GlyphClass: 1
Flags: W
LayerCount: 2
Fore
SplineSet
614 -130 m 0,0,1
 614 -192 614 -192 673 -193 c 0,2,3
 685 -193 685 -193 698.5 -188.5 c 128,-1,4
 712 -184 712 -184 722 -176 c 1,5,-1
 725 -176 l 1,6,-1
 725 -196 l 1,7,8
 698 -246 698 -246 634 -246 c 0,9,10
 587 -246 587 -246 558.5 -221 c 128,-1,11
 530 -196 530 -196 530 -154 c 0,12,13
 530 -117 530 -117 554.5 -80 c 128,-1,14
 579 -43 579 -43 618 0 c 1,15,-1
 450 0 l 1,16,-1
 450 16 l 1,17,-1
 539 53 l 1,18,-1
 469 223 l 1,19,-1
 226 223 l 1,20,-1
 157 53 l 1,21,-1
 242 16 l 1,22,-1
 242 0 l 1,23,-1
 19 0 l 1,24,-1
 19 16 l 1,25,-1
 82 52 l 1,26,-1
 349 681 l 1,27,-1
 439 681 l 1,28,-1
 702 55 l 1,29,-1
 773 16 l 1,30,-1
 773 0 l 1,31,-1
 654 0 l 1,32,33
 635 -35 635 -35 624.5 -67 c 128,-1,34
 614 -99 614 -99 614 -130 c 0,0,1
250 280 m 1,35,-1
 445 280 l 1,36,-1
 347 517 l 1,37,-1
 250 280 l 1,35,-1
EndSplineSet
Validated: 1
Substitution2: "'c2sc' Capitals to Small Capitals lookup 59 subtable" aogonek.sc
Substitution2: "'aalt' Access All Alternates lookup 0 subtable" aogonek.sc
Position2: "'cpsp' Capital Spacing lookup 0 subtable" dx=5 dy=0 dh=10 dv=0
EndChar

StartChar: AE
Encoding: 198 198 59
Width: 1053
GlyphClass: 2
Flags: W
AnchorPoint: "Anchor-3" 575 727 basechar 0
LayerCount: 2
Fore
SplineSet
475 676 m 1,0,-1
 959 676 l 1,1,-1
 959 499 l 1,2,-1
 943 499 l 1,3,-1
 867 620 l 1,4,-1
 643 620 l 1,5,-1
 643 377 l 1,6,-1
 801 377 l 1,7,-1
 858 465 l 1,8,-1
 874 465 l 1,9,-1
 874 234 l 1,10,-1
 858 234 l 1,11,-1
 801 321 l 1,12,-1
 643 321 l 1,13,-1
 643 56 l 1,14,-1
 891 56 l 1,15,-1
 972 209 l 1,16,-1
 988 209 l 1,17,-1
 988 0 l 1,18,-1
 400 0 l 1,19,-1
 400 16 l 1,20,-1
 488 58 l 1,21,-1
 488 236 l 1,22,-1
 272 236 l 1,23,-1
 158 52 l 1,24,-1
 239 16 l 1,25,-1
 239 0 l 1,26,-1
 17 0 l 1,27,-1
 17 16 l 1,28,-1
 83 52 l 1,29,-1
 475 676 l 1,0,-1
307 292 m 1,30,-1
 488 292 l 1,31,-1
 488 584 l 1,32,-1
 307 292 l 1,30,-1
EndSplineSet
Validated: 1
Substitution2: "'c2sc' Capitals to Small Capitals lookup 59 subtable" ae.sc
Substitution2: "'aalt' Access All Alternates lookup 0 subtable" ae.sc
Position2: "'cpsp' Capital Spacing lookup 0 subtable" dx=5 dy=0 dh=10 dv=0
EndChar

StartChar: Ccedilla
Encoding: 199 199 65
Width: 728
GlyphClass: 1
Flags: W
LayerCount: 2
Fore
SplineSet
384 -214 m 0,0,1
 440 -214 440 -214 440 -174 c 0,2,3
 440 -152 440 -152 420 -137 c 128,-1,4
 400 -122 400 -122 340 -105 c 1,5,-1
 384 -9 l 1,6,7
 283 -4 283 -4 208 40.5 c 128,-1,8
 133 85 133 85 91.5 158.5 c 128,-1,9
 50 232 50 232 50 324 c 0,10,11
 50 401 50 401 81 466 c 128,-1,12
 112 531 112 531 164.5 581 c 128,-1,13
 217 631 217 631 284.5 658.5 c 128,-1,14
 352 686 352 686 425 686 c 0,15,16
 478 686 478 686 514.5 680 c 128,-1,17
 551 674 551 674 579 662.5 c 128,-1,18
 607 651 607 651 637 637 c 1,19,-1
 648 445 l 1,20,-1
 630 445 l 1,21,-1
 532 604 l 1,22,23
 506 620 506 620 484 627.5 c 128,-1,24
 462 635 462 635 430 635 c 0,25,26
 368 635 368 635 318 597.5 c 128,-1,27
 268 560 268 560 239.5 492.5 c 128,-1,28
 211 425 211 425 211 334 c 0,29,30
 211 244 211 244 238.5 179.5 c 128,-1,31
 266 115 266 115 313.5 79.5 c 128,-1,32
 361 44 361 44 421 44 c 0,33,34
 460 44 460 44 489.5 53.5 c 128,-1,35
 519 63 519 63 547 79 c 1,36,-1
 639 216 l 1,37,-1
 656 216 l 1,38,-1
 642 43 l 1,39,40
 602 19 602 19 547 5 c 128,-1,41
 492 -9 492 -9 422 -10 c 1,42,-1
 407 -44 l 1,43,44
 466 -61 466 -61 489.5 -86.5 c 128,-1,45
 513 -112 513 -112 513 -152 c 0,46,47
 513 -193 513 -193 484 -219.5 c 128,-1,48
 455 -246 455 -246 406 -246 c 0,49,50
 353 -246 353 -246 323 -221 c 1,51,-1
 323 -202 l 1,52,-1
 326 -202 l 1,53,54
 338 -208 338 -208 353.5 -211 c 128,-1,55
 369 -214 369 -214 384 -214 c 0,0,1
EndSplineSet
Validated: 1
Substitution2: "'c2sc' Capitals to Small Capitals lookup 59 subtable" ccedilla.sc
Substitution2: "'aalt' Access All Alternates lookup 0 subtable" ccedilla.sc
Position2: "'cpsp' Capital Spacing lookup 0 subtable" dx=5 dy=0 dh=10 dv=0
EndChar

StartChar: Ccedillaacute
Encoding: 7688 7688 66
Width: 728
GlyphClass: 1
Flags: W
LayerCount: 2
Fore
SplineSet
389 727 m 1,0,-1
 465 883 l 1,1,-1
 596 883 l 1,2,-1
 596 857 l 1,3,-1
 413 727 l 1,4,-1
 389 727 l 1,0,-1
406 -246 m 0,5,6
 353 -246 353 -246 323 -221 c 1,7,-1
 323 -202 l 1,8,-1
 326 -202 l 1,9,10
 338 -208 338 -208 353.5 -211 c 128,-1,11
 369 -214 369 -214 384 -214 c 0,12,13
 440 -214 440 -214 440 -174 c 0,14,15
 440 -152 440 -152 420 -137 c 128,-1,16
 400 -122 400 -122 340 -105 c 1,17,-1
 384 -9 l 1,18,19
 283 -4 283 -4 208 40.5 c 128,-1,20
 133 85 133 85 91.5 158.5 c 128,-1,21
 50 232 50 232 50 324 c 0,22,23
 50 401 50 401 81 466 c 128,-1,24
 112 531 112 531 164.5 581 c 128,-1,25
 217 631 217 631 284.5 658.5 c 128,-1,26
 352 686 352 686 425 686 c 0,27,28
 478 686 478 686 514.5 680 c 128,-1,29
 551 674 551 674 579 662.5 c 128,-1,30
 607 651 607 651 637 637 c 1,31,-1
 648 445 l 1,32,-1
 630 445 l 1,33,-1
 532 604 l 1,34,35
 506 620 506 620 484 627.5 c 128,-1,36
 462 635 462 635 430 635 c 0,37,38
 368 635 368 635 318 597.5 c 128,-1,39
 268 560 268 560 239.5 492.5 c 128,-1,40
 211 425 211 425 211 334 c 0,41,42
 211 244 211 244 238.5 179.5 c 128,-1,43
 266 115 266 115 313.5 79.5 c 128,-1,44
 361 44 361 44 421 44 c 0,45,46
 460 44 460 44 489.5 53.5 c 128,-1,47
 519 63 519 63 547 79 c 1,48,-1
 639 216 l 1,49,-1
 656 216 l 1,50,-1
 642 43 l 1,51,52
 602 19 602 19 547 5 c 128,-1,53
 492 -9 492 -9 422 -10 c 1,54,-1
 407 -44 l 1,55,56
 466 -61 466 -61 489.5 -86.5 c 128,-1,57
 513 -112 513 -112 513 -152 c 0,58,59
 513 -193 513 -193 484 -219.5 c 128,-1,60
 455 -246 455 -246 406 -246 c 0,5,6
EndSplineSet
Validated: 1
Substitution2: "'c2sc' Capitals to Small Capitals lookup 59 subtable" ccedillaacute.sc
Substitution2: "'aalt' Access All Alternates lookup 0 subtable" ccedillaacute.sc
Position2: "'cpsp' Capital Spacing lookup 0 subtable" dx=5 dy=0 dh=10 dv=0
EndChar

StartChar: Dcroat
Encoding: 272 272 68
Width: 821
GlyphClass: 1
Flags: W
LayerCount: 2
Fore
SplineSet
45 0 m 1,0,-1
 45 16 l 1,1,-1
 132 58 l 1,2,-1
 132 324 l 1,3,-1
 45 324 l 1,4,-1
 45 378 l 1,5,-1
 132 378 l 1,6,-1
 132 617 l 1,7,-1
 45 659 l 1,8,-1
 45 676 l 1,9,-1
 394 676 l 2,10,11
 515 676 515 676 600 636 c 128,-1,12
 685 596 685 596 730 526.5 c 128,-1,13
 775 457 775 457 775 369 c 0,14,15
 775 289 775 289 746 222 c 128,-1,16
 717 155 717 155 664.5 105 c 128,-1,17
 612 55 612 55 541.5 27.5 c 128,-1,18
 471 0 471 0 387 0 c 2,19,-1
 45 0 l 1,0,-1
441 324 m 1,20,-1
 287 324 l 1,21,-1
 287 56 l 1,22,-1
 368 56 l 2,23,24
 486 56 486 56 550 132.5 c 128,-1,25
 614 209 614 209 614 337 c 0,26,27
 614 466 614 466 547.5 543 c 128,-1,28
 481 620 481 620 352 620 c 2,29,-1
 287 620 l 1,30,-1
 287 378 l 1,31,-1
 441 378 l 1,32,-1
 441 324 l 1,20,-1
EndSplineSet
Validated: 1
Substitution2: "'c2sc' Capitals to Small Capitals lookup 59 subtable" dcroat.sc
Substitution2: "'aalt' Access All Alternates lookup 0 subtable" dcroat.sc
Position2: "'cpsp' Capital Spacing lookup 0 subtable" dx=5 dy=0 dh=10 dv=0
EndChar

StartChar: Eogonek
Encoding: 280 280 80
Width: 697
GlyphClass: 1
Flags: W
LayerCount: 2
Fore
SplineSet
45 0 m 1,0,-1
 45 16 l 1,1,-1
 132 58 l 1,2,-1
 132 617 l 1,3,-1
 45 659 l 1,4,-1
 45 676 l 1,5,-1
 603 676 l 1,6,-1
 603 499 l 1,7,-1
 587 499 l 1,8,-1
 511 620 l 1,9,-1
 287 620 l 1,10,-1
 287 377 l 1,11,-1
 444 377 l 1,12,-1
 502 465 l 1,13,-1
 518 465 l 1,14,-1
 518 234 l 1,15,-1
 502 234 l 1,16,-1
 444 321 l 1,17,-1
 287 321 l 1,18,-1
 287 56 l 1,19,-1
 536 56 l 1,20,-1
 615 209 l 1,21,-1
 632 209 l 1,22,-1
 632 0 l 1,23,-1
 560 0 l 1,24,25
 541 -35 541 -35 530.5 -67 c 128,-1,26
 520 -99 520 -99 520 -130 c 0,27,28
 520 -192 520 -192 579 -193 c 0,29,30
 591 -193 591 -193 604 -188.5 c 128,-1,31
 617 -184 617 -184 628 -176 c 1,32,-1
 631 -176 l 1,33,-1
 631 -196 l 1,34,35
 604 -246 604 -246 540 -246 c 0,36,37
 493 -246 493 -246 464.5 -221 c 128,-1,38
 436 -196 436 -196 436 -154 c 0,39,40
 436 -117 436 -117 460 -80 c 128,-1,41
 484 -43 484 -43 524 0 c 1,42,-1
 45 0 l 1,0,-1
EndSplineSet
Validated: 1
Substitution2: "'c2sc' Capitals to Small Capitals lookup 59 subtable" eogonek.sc
Substitution2: "'aalt' Access All Alternates lookup 0 subtable" eogonek.sc
Position2: "'cpsp' Capital Spacing lookup 0 subtable" dx=5 dy=0 dh=10 dv=0
EndChar

StartChar: Ecedillabreve
Encoding: 7708 7708 92
Width: 697
GlyphClass: 1
Flags: W
LayerCount: 2
Fore
SplineSet
362 727 m 0,0,1
 288 727 288 727 252.5 767 c 128,-1,2
 217 807 217 807 199 883 c 1,3,-1
 221 883 l 1,4,5
 245 835 245 835 279 821 c 128,-1,6
 313 807 313 807 362 807 c 256,7,8
 411 807 411 807 445 820.5 c 128,-1,9
 479 834 479 834 504 883 c 1,10,-1
 525 883 l 1,11,12
 507 807 507 807 468.5 767 c 128,-1,13
 430 727 430 727 362 727 c 0,0,1
45 0 m 1,14,-1
 45 16 l 1,15,-1
 132 58 l 1,16,-1
 132 617 l 1,17,-1
 45 659 l 1,18,-1
 45 676 l 1,19,-1
 603 676 l 1,20,-1
 603 499 l 1,21,-1
 587 499 l 1,22,-1
 511 620 l 1,23,-1
 287 620 l 1,24,-1
 287 377 l 1,25,-1
 444 377 l 1,26,-1
 502 465 l 1,27,-1
 518 465 l 1,28,-1
 518 234 l 1,29,-1
 502 234 l 1,30,-1
 444 321 l 1,31,-1
 287 321 l 1,32,-1
 287 56 l 1,33,-1
 536 56 l 1,34,-1
 615 209 l 1,35,-1
 632 209 l 1,36,-1
 632 0 l 1,37,-1
 388 0 l 1,38,-1
 369 -44 l 1,39,40
 427 -61 427 -61 450.5 -86.5 c 128,-1,41
 474 -112 474 -112 474 -152 c 0,42,43
 474 -193 474 -193 445 -219.5 c 128,-1,44
 416 -246 416 -246 367 -246 c 0,45,46
 314 -246 314 -246 284 -221 c 1,47,-1
 284 -202 l 1,48,-1
 287 -202 l 1,49,50
 299 -208 299 -208 314.5 -211 c 128,-1,51
 330 -214 330 -214 345 -214 c 0,52,53
 401 -214 401 -214 401 -174 c 0,54,55
 401 -152 401 -152 381 -137 c 128,-1,56
 361 -122 361 -122 301 -105 c 1,57,-1
 349 0 l 1,58,-1
 45 0 l 1,14,-1
EndSplineSet
Validated: 1
Substitution2: "'c2sc' Capitals to Small Capitals lookup 59 subtable" ecedillabreve.sc
Substitution2: "'aalt' Access All Alternates lookup 0 subtable" ecedillabreve.sc
Position2: "'cpsp' Capital Spacing lookup 0 subtable" dx=5 dy=0 dh=10 dv=0
EndChar

StartChar: Hbar
Encoding: 294 294 100
Width: 856
GlyphClass: 1
Flags: W
LayerCount: 2
Fore
SplineSet
45 0 m 1,0,-1
 45 16 l 1,1,-1
 132 58 l 1,2,-1
 132 480 l 1,3,-1
 45 480 l 1,4,-1
 45 535 l 1,5,-1
 132 535 l 1,6,-1
 132 617 l 1,7,-1
 45 659 l 1,8,-1
 45 676 l 1,9,-1
 367 676 l 1,10,-1
 367 659 l 1,11,-1
 287 617 l 1,12,-1
 287 535 l 1,13,-1
 570 535 l 1,14,-1
 570 617 l 1,15,-1
 488 659 l 1,16,-1
 488 676 l 1,17,-1
 811 676 l 1,18,-1
 811 659 l 1,19,-1
 725 617 l 1,20,-1
 725 535 l 1,21,-1
 811 535 l 1,22,-1
 811 480 l 1,23,-1
 725 480 l 1,24,-1
 725 58 l 1,25,-1
 811 16 l 1,26,-1
 811 0 l 1,27,-1
 488 0 l 1,28,-1
 488 16 l 1,29,-1
 570 58 l 1,30,-1
 570 319 l 1,31,-1
 287 319 l 1,32,-1
 287 58 l 1,33,-1
 367 16 l 1,34,-1
 367 0 l 1,35,-1
 45 0 l 1,0,-1
287 376 m 1,36,-1
 570 376 l 1,37,-1
 570 480 l 1,38,-1
 287 480 l 1,39,-1
 287 376 l 1,36,-1
EndSplineSet
Validated: 1
Substitution2: "'c2sc' Capitals to Small Capitals lookup 59 subtable" hbar.sc
Substitution2: "'aalt' Access All Alternates lookup 0 subtable" hbar.sc
Position2: "'cpsp' Capital Spacing lookup 0 subtable" dx=5 dy=0 dh=10 dv=0
EndChar

StartChar: Iogonek
Encoding: 302 302 111
Width: 422
GlyphClass: 1
Flags: W
LayerCount: 2
Fore
SplineSet
47 0 m 1,0,-1
 47 16 l 1,1,-1
 134 58 l 1,2,-1
 134 617 l 1,3,-1
 47 659 l 1,4,-1
 47 676 l 1,5,-1
 376 676 l 1,6,-1
 376 659 l 1,7,-1
 289 617 l 1,8,-1
 289 58 l 1,9,-1
 376 16 l 1,10,-1
 376 0 l 1,11,-1
 239 0 l 1,12,13
 219 -35 219 -35 208.5 -67 c 128,-1,14
 198 -99 198 -99 198 -130 c 0,15,16
 198 -192 198 -192 257 -193 c 0,17,18
 269 -193 269 -193 282 -188.5 c 128,-1,19
 295 -184 295 -184 306 -176 c 1,20,-1
 309 -176 l 1,21,-1
 309 -196 l 1,22,23
 282 -246 282 -246 217 -246 c 0,24,25
 171 -246 171 -246 143 -221 c 128,-1,26
 115 -196 115 -196 115 -154 c 0,27,28
 115 -117 115 -117 138.5 -80 c 128,-1,29
 162 -43 162 -43 203 0 c 1,30,-1
 47 0 l 1,0,-1
EndSplineSet
Validated: 1
Substitution2: "'c2sc' Capitals to Small Capitals lookup 59 subtable" iogonek.sc
Substitution2: "'aalt' Access All Alternates lookup 0 subtable" iogonek.sc
Position2: "'cpsp' Capital Spacing lookup 0 subtable" dx=5 dy=0 dh=10 dv=0
EndChar

StartChar: Lslash
Encoding: 321 321 124
Width: 664
GlyphClass: 1
Flags: W
LayerCount: 2
Fore
SplineSet
45 0 m 1,0,-1
 45 16 l 1,1,-1
 132 58 l 1,2,-1
 132 224 l 1,3,-1
 45 162 l 1,4,-1
 45 228 l 1,5,-1
 132 291 l 1,6,-1
 132 617 l 1,7,-1
 45 659 l 1,8,-1
 45 676 l 1,9,-1
 384 676 l 1,10,-1
 384 659 l 1,11,-1
 287 617 l 1,12,-1
 287 378 l 1,13,-1
 432 477 l 1,14,-1
 432 411 l 1,15,-1
 287 311 l 1,16,-1
 287 56 l 1,17,-1
 512 56 l 1,18,-1
 595 250 l 1,19,-1
 611 250 l 1,20,-1
 611 0 l 1,21,-1
 45 0 l 1,0,-1
EndSplineSet
Validated: 1
Substitution2: "'c2sc' Capitals to Small Capitals lookup 59 subtable" lslash.sc
Substitution2: "'aalt' Access All Alternates lookup 0 subtable" lslash.sc
Position2: "'cpsp' Capital Spacing lookup 0 subtable" dx=5 dy=0 dh=10 dv=0
EndChar

StartChar: Oogonek
Encoding: 490 490 145
Width: 807
GlyphClass: 1
Flags: W
LayerCount: 2
Fore
SplineSet
419 -246 m 0,0,1
 373 -246 373 -246 344.5 -221 c 128,-1,2
 316 -196 316 -196 316 -154 c 0,3,4
 316 -119 316 -119 337 -84 c 128,-1,5
 358 -49 358 -49 394 -10 c 1,6,7
 320 -8 320 -8 257.5 18.5 c 128,-1,8
 195 45 195 45 148 91.5 c 128,-1,9
 101 138 101 138 75.5 201 c 128,-1,10
 50 264 50 264 50 338 c 0,11,12
 50 414 50 414 76.5 477.5 c 128,-1,13
 103 541 103 541 151 587.5 c 128,-1,14
 199 634 199 634 263.5 660 c 128,-1,15
 328 686 328 686 403 686 c 256,16,17
 479 686 479 686 544 660 c 128,-1,18
 609 634 609 634 657 587.5 c 128,-1,19
 705 541 705 541 731.5 477.5 c 128,-1,20
 758 414 758 414 758 338 c 0,21,22
 758 243 758 243 716.5 167 c 128,-1,23
 675 91 675 91 601.5 44.5 c 128,-1,24
 528 -2 528 -2 435 -9 c 1,25,26
 399 -75 399 -75 399 -130 c 0,27,28
 399 -192 399 -192 459 -193 c 0,29,30
 470 -193 470 -193 483.5 -188.5 c 128,-1,31
 497 -184 497 -184 507 -176 c 1,32,-1
 511 -176 l 1,33,-1
 511 -196 l 1,34,35
 484 -246 484 -246 419 -246 c 0,0,1
420 43 m 0,36,37
 472 43 472 43 511 75.5 c 128,-1,38
 550 108 550 108 572.5 167.5 c 128,-1,39
 595 227 595 227 595 307 c 0,40,41
 595 406 595 406 567.5 479.5 c 128,-1,42
 540 553 540 553 493.5 593.5 c 128,-1,43
 447 634 447 634 390 634 c 0,44,45
 339 634 339 634 299 601.5 c 128,-1,46
 259 569 259 569 236 510 c 128,-1,47
 213 451 213 451 213 371 c 0,48,49
 213 272 213 272 240.5 198 c 128,-1,50
 268 124 268 124 315.5 83.5 c 128,-1,51
 363 43 363 43 420 43 c 0,36,37
EndSplineSet
Validated: 1
Substitution2: "'c2sc' Capitals to Small Capitals lookup 59 subtable" oogonek.sc
Substitution2: "'aalt' Access All Alternates lookup 0 subtable" oogonek.sc
Position2: "'cpsp' Capital Spacing lookup 0 subtable" dx=5 dy=0 dh=10 dv=0
EndChar

StartChar: Oslash
Encoding: 216 216 161
Width: 807
GlyphClass: 2
Flags: W
AnchorPoint: "Anchor-3" 399 727 basechar 0
LayerCount: 2
Fore
SplineSet
50 -10 m 1,0,-1
 144 94 l 1,1,2
 100 140 100 140 75 202.5 c 128,-1,3
 50 265 50 265 50 338 c 0,4,5
 50 414 50 414 76.5 477.5 c 128,-1,6
 103 541 103 541 151 587.5 c 128,-1,7
 199 634 199 634 263.5 660 c 128,-1,8
 328 686 328 686 403 686 c 0,9,10
 465 686 465 686 520 668.5 c 128,-1,11
 575 651 575 651 620 618 c 1,12,-1
 680 686 l 1,13,-1
 758 686 l 1,14,-1
 663 582 l 1,15,16
 708 536 708 536 733 473.5 c 128,-1,17
 758 411 758 411 758 338 c 0,18,19
 758 263 758 263 731.5 199 c 128,-1,20
 705 135 705 135 657 88.5 c 128,-1,21
 609 42 609 42 544 16 c 128,-1,22
 479 -10 479 -10 403 -10 c 0,23,24
 341 -10 341 -10 286.5 7.5 c 128,-1,25
 232 25 232 25 188 57 c 1,26,-1
 127 -10 l 1,27,-1
 50 -10 l 1,0,-1
213 371 m 0,28,29
 213 322 213 322 220 279.5 c 128,-1,30
 227 237 227 237 241 200 c 1,31,-1
 542 534 l 1,32,33
 514 582 514 582 474.5 608 c 128,-1,34
 435 634 435 634 390 634 c 0,35,36
 339 634 339 634 299 601.5 c 128,-1,37
 259 569 259 569 236 510 c 128,-1,38
 213 451 213 451 213 371 c 0,28,29
420 43 m 0,39,40
 472 43 472 43 511 75.5 c 128,-1,41
 550 108 550 108 572.5 167.5 c 128,-1,42
 595 227 595 227 595 307 c 0,43,44
 595 355 595 355 588 397.5 c 128,-1,45
 581 440 581 440 568 476 c 1,46,-1
 266 143 l 1,47,48
 295 95 295 95 334.5 69 c 128,-1,49
 374 43 374 43 420 43 c 0,39,40
EndSplineSet
Validated: 1
Substitution2: "'c2sc' Capitals to Small Capitals lookup 59 subtable" oslash.sc
Substitution2: "'aalt' Access All Alternates lookup 0 subtable" oslash.sc
Position2: "'cpsp' Capital Spacing lookup 0 subtable" dx=5 dy=0 dh=10 dv=0
EndChar

StartChar: Ohorn
Encoding: 416 416 163
Width: 807
GlyphClass: 2
Flags: W
AnchorPoint: "Anchor-3" 399 727 basechar 0
AnchorPoint: "Anchor-0" 410 0 basechar 0
LayerCount: 2
Fore
SplineSet
403 -10 m 256,0,1
 327 -10 327 -10 263 16 c 128,-1,2
 199 42 199 42 151 88.5 c 128,-1,3
 103 135 103 135 76.5 199 c 128,-1,4
 50 263 50 263 50 338 c 0,5,6
 50 414 50 414 76.5 477.5 c 128,-1,7
 103 541 103 541 151 587.5 c 128,-1,8
 199 634 199 634 263.5 660 c 128,-1,9
 328 686 328 686 403 686 c 0,10,11
 460 686 460 686 513 671 c 1,12,-1
 578 671 l 2,13,14
 620 671 620 671 642 681 c 1,15,-1
 642 769 l 1,16,-1
 696 769 l 2,17,18
 720 769 720 769 731.5 757 c 128,-1,19
 743 745 743 745 743 718 c 0,20,21
 743 679 743 679 715 656.5 c 128,-1,22
 687 634 687 634 623 634 c 2,23,-1
 598 634 l 1,24,25
 672 588 672 588 715 511 c 128,-1,26
 758 434 758 434 758 338 c 0,27,28
 758 263 758 263 731.5 199 c 128,-1,29
 705 135 705 135 657 88.5 c 128,-1,30
 609 42 609 42 544 16 c 128,-1,31
 479 -10 479 -10 403 -10 c 256,0,1
420 43 m 0,32,33
 472 43 472 43 511 75.5 c 128,-1,34
 550 108 550 108 572.5 167.5 c 128,-1,35
 595 227 595 227 595 307 c 0,36,37
 595 406 595 406 567.5 479.5 c 128,-1,38
 540 553 540 553 493.5 593.5 c 128,-1,39
 447 634 447 634 390 634 c 0,40,41
 339 634 339 634 299 601.5 c 128,-1,42
 259 569 259 569 236 510 c 128,-1,43
 213 451 213 451 213 371 c 0,44,45
 213 272 213 272 240.5 198 c 128,-1,46
 268 124 268 124 315.5 83.5 c 128,-1,47
 363 43 363 43 420 43 c 0,32,33
EndSplineSet
Validated: 1
Substitution2: "'c2sc' Capitals to Small Capitals lookup 59 subtable" ohorn.sc
Substitution2: "'aalt' Access All Alternates lookup 0 subtable" ohorn.sc
Position2: "'cpsp' Capital Spacing lookup 0 subtable" dx=5 dy=0 dh=10 dv=0
EndChar

StartChar: OE
Encoding: 338 338 169
Width: 1065
GlyphClass: 1
Flags: W
LayerCount: 2
Fore
SplineSet
431 0 m 2,0,1
 310 0 310 0 225 40 c 128,-1,2
 140 80 140 80 95 153 c 128,-1,3
 50 226 50 226 50 327 c 0,4,5
 50 432 50 432 100.5 511 c 128,-1,6
 151 590 151 590 238.5 633 c 128,-1,7
 326 676 326 676 438 676 c 2,8,-1
 984 676 l 1,9,-1
 984 499 l 1,10,-1
 968 499 l 1,11,-1
 892 620 l 1,12,-1
 668 620 l 1,13,-1
 668 377 l 1,14,-1
 825 377 l 1,15,-1
 883 465 l 1,16,-1
 899 465 l 1,17,-1
 899 234 l 1,18,-1
 883 234 l 1,19,-1
 825 321 l 1,20,-1
 668 321 l 1,21,-1
 668 56 l 1,22,-1
 916 56 l 1,23,-1
 996 209 l 1,24,-1
 1013 209 l 1,25,-1
 1013 0 l 1,26,-1
 431 0 l 2,0,1
465 56 m 2,27,-1
 513 56 l 1,28,-1
 513 620 l 1,29,-1
 454 620 l 2,30,31
 337 620 337 620 273.5 545.5 c 128,-1,32
 210 471 210 471 210 345 c 0,33,34
 210 213 210 213 274.5 134.5 c 128,-1,35
 339 56 339 56 465 56 c 2,27,-1
EndSplineSet
Validated: 1
Substitution2: "'c2sc' Capitals to Small Capitals lookup 59 subtable" oe.sc
Substitution2: "'aalt' Access All Alternates lookup 0 subtable" oe.sc
Position2: "'cpsp' Capital Spacing lookup 0 subtable" dx=5 dy=0 dh=10 dv=0
EndChar

StartChar: Scedilla
Encoding: 350 350 181
Width: 585
GlyphClass: 1
Flags: W
LayerCount: 2
Fore
SplineSet
292 -246 m 0,0,1
 240 -246 240 -246 209 -221 c 1,2,-1
 209 -202 l 1,3,-1
 213 -202 l 1,4,5
 225 -208 225 -208 240 -211 c 128,-1,6
 255 -214 255 -214 271 -214 c 0,7,8
 327 -214 327 -214 328 -174 c 0,9,10
 328 -152 328 -152 308 -137 c 128,-1,11
 288 -122 288 -122 226 -105 c 1,12,-1
 270 -10 l 1,13,14
 205 -9 205 -9 155 4 c 128,-1,15
 105 17 105 17 58 42 c 1,16,-1
 48 215 l 1,17,-1
 67 215 l 1,18,-1
 139 90 l 1,19,20
 166 67 166 67 198.5 54.5 c 128,-1,21
 231 42 231 42 265 42 c 0,22,23
 320 42 320 42 355 68 c 128,-1,24
 390 94 390 94 390 145 c 0,25,26
 390 180 390 180 374 202.5 c 128,-1,27
 358 225 358 225 321.5 245 c 128,-1,28
 285 265 285 265 220 294 c 0,29,30
 147 327 147 327 108.5 370 c 128,-1,31
 70 413 70 413 70 479 c 0,32,33
 70 520 70 520 91 557.5 c 128,-1,34
 112 595 112 595 147 624 c 128,-1,35
 182 653 182 653 225.5 669.5 c 128,-1,36
 269 686 269 686 315 686 c 0,37,38
 367 686 367 686 415.5 674 c 128,-1,39
 464 662 464 662 505 639 c 1,40,-1
 515 475 l 1,41,-1
 498 475 l 1,42,-1
 428 589 l 1,43,44
 400 612 400 612 374.5 622.5 c 128,-1,45
 349 633 349 633 317 633 c 0,46,47
 275 633 275 633 247.5 606.5 c 128,-1,48
 220 580 220 580 220 536 c 0,49,50
 220 494 220 494 250.5 466.5 c 128,-1,51
 281 439 281 439 355 406 c 0,52,53
 448 363 448 363 492.5 317.5 c 128,-1,54
 537 272 537 272 537 199 c 0,55,56
 537 139 537 139 504.5 94 c 128,-1,57
 472 49 472 49 420.5 23 c 128,-1,58
 369 -3 369 -3 310 -8 c 1,59,-1
 294 -44 l 1,60,61
 353 -61 353 -61 376 -86.5 c 128,-1,62
 399 -112 399 -112 399 -152 c 0,63,64
 399 -193 399 -193 370.5 -219.5 c 128,-1,65
 342 -246 342 -246 292 -246 c 0,0,1
EndSplineSet
Validated: 1
Substitution2: "'c2sc' Capitals to Small Capitals lookup 59 subtable" scedilla.sc
Substitution2: "'locl' Localized Forms in Latin lookup 14 subtable" Scommaaccent
Substitution2: "'locl' Localized Forms in Latin lookup 11 subtable" Scommaaccent
AlternateSubs2: "'aalt' Access All Alternates lookup 1 subtable" Scommaaccent scedilla.sc
Position2: "'cpsp' Capital Spacing lookup 0 subtable" dx=5 dy=0 dh=10 dv=0
EndChar

StartChar: Tbar
Encoding: 358 358 190
Width: 717
GlyphClass: 1
Flags: W
LayerCount: 2
Fore
SplineSet
173 0 m 1,0,-1
 173 16 l 1,1,-1
 282 58 l 1,2,-1
 282 324 l 1,3,-1
 154 324 l 1,4,-1
 154 378 l 1,5,-1
 282 378 l 1,6,-1
 282 620 l 1,7,-1
 135 620 l 1,8,-1
 53 451 l 1,9,-1
 37 451 l 1,10,-1
 37 676 l 1,11,-1
 681 676 l 1,12,-1
 681 451 l 1,13,-1
 665 451 l 1,14,-1
 583 620 l 1,15,-1
 436 620 l 1,16,-1
 436 378 l 1,17,-1
 564 378 l 1,18,-1
 564 324 l 1,19,-1
 436 324 l 1,20,-1
 436 58 l 1,21,-1
 545 16 l 1,22,-1
 545 0 l 1,23,-1
 173 0 l 1,0,-1
EndSplineSet
Validated: 1
Substitution2: "'c2sc' Capitals to Small Capitals lookup 59 subtable" tbar.sc
Substitution2: "'aalt' Access All Alternates lookup 0 subtable" tbar.sc
Position2: "'cpsp' Capital Spacing lookup 0 subtable" dx=5 dy=0 dh=10 dv=0
EndChar

StartChar: Tcedilla
Encoding: 354 354 191
Width: 717
GlyphClass: 1
Flags: W
LayerCount: 2
Fore
SplineSet
173 0 m 1,0,-1
 173 16 l 1,1,-1
 282 58 l 1,2,-1
 282 620 l 1,3,-1
 135 620 l 1,4,-1
 53 451 l 1,5,-1
 37 451 l 1,6,-1
 37 676 l 1,7,-1
 681 676 l 1,8,-1
 681 451 l 1,9,-1
 665 451 l 1,10,-1
 583 620 l 1,11,-1
 436 620 l 1,12,-1
 436 58 l 1,13,-1
 545 16 l 1,14,-1
 545 0 l 1,15,-1
 379 0 l 1,16,-1
 358 -44 l 1,17,18
 417 -61 417 -61 440.5 -86.5 c 128,-1,19
 464 -112 464 -112 464 -152 c 0,20,21
 464 -193 464 -193 435.5 -219.5 c 128,-1,22
 407 -246 407 -246 357 -246 c 0,23,24
 304 -246 304 -246 273 -221 c 1,25,-1
 273 -202 l 1,26,-1
 278 -202 l 1,27,28
 290 -208 290 -208 305.5 -211 c 128,-1,29
 321 -214 321 -214 336 -214 c 0,30,31
 392 -214 392 -214 392 -174 c 0,32,33
 392 -152 392 -152 372 -137 c 128,-1,34
 352 -122 352 -122 292 -105 c 1,35,-1
 340 0 l 1,36,-1
 173 0 l 1,0,-1
EndSplineSet
Validated: 1
Substitution2: "'c2sc' Capitals to Small Capitals lookup 59 subtable" tcedilla.sc
Substitution2: "'aalt' Access All Alternates lookup 0 subtable" tcedilla.sc
Position2: "'cpsp' Capital Spacing lookup 0 subtable" dx=5 dy=0 dh=10 dv=0
EndChar

StartChar: Uogonek
Encoding: 370 370 203
Width: 858
GlyphClass: 1
Flags: W
LayerCount: 2
Fore
SplineSet
454 -246 m 0,0,1
 408 -246 408 -246 379.5 -221 c 128,-1,2
 351 -196 351 -196 351 -154 c 0,3,4
 351 -119 351 -119 372 -84 c 128,-1,5
 393 -49 393 -49 429 -10 c 1,6,7
 341 -9 341 -9 274.5 20 c 128,-1,8
 208 49 208 49 170.5 115 c 128,-1,9
 133 181 133 181 133 291 c 2,10,-1
 133 617 l 1,11,-1
 45 659 l 1,12,-1
 45 676 l 1,13,-1
 376 676 l 1,14,-1
 376 659 l 1,15,-1
 288 617 l 1,16,-1
 288 290 l 2,17,18
 288 205 288 205 314 156.5 c 128,-1,19
 340 108 340 108 384.5 87.5 c 128,-1,20
 429 67 429 67 483 67 c 0,21,22
 528 67 528 67 567 85 c 128,-1,23
 606 103 606 103 629.5 144 c 128,-1,24
 653 185 653 185 653 254 c 2,25,-1
 653 620 l 1,26,-1
 557 659 l 1,27,-1
 557 676 l 1,28,-1
 813 676 l 1,29,-1
 813 659 l 1,30,-1
 725 618 l 1,31,-1
 725 291 l 2,32,33
 725 188 725 188 693.5 123.5 c 128,-1,34
 662 59 662 59 604.5 28 c 128,-1,35
 547 -3 547 -3 470 -9 c 1,36,37
 434 -75 434 -75 434 -130 c 0,38,39
 434 -192 434 -192 494 -193 c 0,40,41
 505 -193 505 -193 518 -188.5 c 128,-1,42
 531 -184 531 -184 542 -176 c 1,43,-1
 546 -176 l 1,44,-1
 546 -196 l 1,45,46
 519 -246 519 -246 454 -246 c 0,0,1
EndSplineSet
Validated: 1
Substitution2: "'c2sc' Capitals to Small Capitals lookup 59 subtable" uogonek.sc
Substitution2: "'aalt' Access All Alternates lookup 0 subtable" uogonek.sc
Position2: "'cpsp' Capital Spacing lookup 0 subtable" dx=5 dy=0 dh=10 dv=0
EndChar

StartChar: Uhorn
Encoding: 431 431 210
Width: 858
GlyphClass: 2
Flags: W
AnchorPoint: "Anchor-3" 467 727 basechar 0
AnchorPoint: "Anchor-0" 453 0 basechar 0
LayerCount: 2
Fore
SplineSet
837 635 m 2,0,-1
 725 618 l 1,1,-1
 725 291 l 2,2,3
 725 180 725 180 688 114 c 128,-1,4
 651 48 651 48 585.5 19 c 128,-1,5
 520 -10 520 -10 433 -10 c 0,6,7
 344 -10 344 -10 276.5 19 c 128,-1,8
 209 48 209 48 171 114 c 128,-1,9
 133 180 133 180 133 291 c 2,10,-1
 133 617 l 1,11,-1
 45 659 l 1,12,-1
 45 676 l 1,13,-1
 376 676 l 1,14,-1
 376 659 l 1,15,-1
 288 617 l 1,16,-1
 288 290 l 2,17,18
 288 205 288 205 314 156.5 c 128,-1,19
 340 108 340 108 384.5 87.5 c 128,-1,20
 429 67 429 67 483 67 c 0,21,22
 528 67 528 67 567 85 c 128,-1,23
 606 103 606 103 629.5 144 c 128,-1,24
 653 185 653 185 653 254 c 2,25,-1
 653 620 l 1,26,-1
 557 659 l 1,27,-1
 557 676 l 1,28,-1
 788 676 l 2,29,30
 831 676 831 676 853 685 c 1,31,-1
 853 769 l 1,32,-1
 908 769 l 2,33,34
 932 769 932 769 943.5 757 c 128,-1,35
 955 745 955 745 955 718 c 0,36,37
 955 699 955 699 946 682.5 c 128,-1,38
 937 666 937 666 911.5 654 c 128,-1,39
 886 642 886 642 837 635 c 2,0,-1
EndSplineSet
Validated: 1
Substitution2: "'c2sc' Capitals to Small Capitals lookup 59 subtable" uhorn.sc
Substitution2: "'aalt' Access All Alternates lookup 0 subtable" uhorn.sc
Position2: "'cpsp' Capital Spacing lookup 0 subtable" dx=5 dy=0 dh=10 dv=0
EndChar

StartChar: Schwa
Encoding: 399 399 233
Width: 701
GlyphClass: 1
Flags: W
LayerCount: 2
Fore
SplineSet
312 -9 m 0,0,1
 190 -9 190 -9 120.5 72 c 128,-1,2
 51 153 51 153 51 299 c 1,3,-1
 57 306 l 1,4,-1
 496 306 l 1,5,6
 496 310 496 310 496 315 c 0,7,8
 496 431 496 431 443.5 496 c 128,-1,9
 391 561 391 561 273 561 c 0,10,11
 219 561 219 561 162.5 543 c 128,-1,12
 106 525 106 525 54 490 c 1,13,-1
 50 490 l 1,14,-1
 50 528 l 1,15,16
 86 596 86 596 162.5 641 c 128,-1,17
 239 686 239 686 338 686 c 0,18,19
 435 686 435 686 505 646.5 c 128,-1,20
 575 607 575 607 613.5 535.5 c 128,-1,21
 652 464 652 464 652 369 c 0,22,23
 652 286 652 286 626.5 216.5 c 128,-1,24
 601 147 601 147 555 96.5 c 128,-1,25
 509 46 509 46 447 18.5 c 128,-1,26
 385 -9 385 -9 312 -9 c 0,0,1
341 52 m 0,27,28
 410 52 410 52 447 104 c 128,-1,29
 484 156 484 156 493 253 c 1,30,-1
 197 253 l 1,31,32
 205 151 205 151 242.5 101.5 c 128,-1,33
 280 52 280 52 341 52 c 0,27,28
EndSplineSet
Validated: 1
Substitution2: "'c2sc' Capitals to Small Capitals lookup 59 subtable" schwa.sc
Substitution2: "'aalt' Access All Alternates lookup 0 subtable" schwa.sc
Position2: "'cpsp' Capital Spacing lookup 0 subtable" dx=5 dy=0 dh=10 dv=0
EndChar

StartChar: Eng
Encoding: 330 330 234
Width: 835
GlyphClass: 1
Flags: W
LayerCount: 2
Fore
SplineSet
707 -6 m 2,0,1
 707 -121 707 -121 656.5 -184 c 128,-1,2
 606 -247 606 -247 528 -247 c 0,3,4
 486 -247 486 -247 474.5 -236 c 128,-1,5
 463 -225 463 -225 463 -201 c 2,6,-1
 463 -138 l 1,7,-1
 611 -138 l 1,8,9
 624 -118 624 -118 629.5 -89.5 c 128,-1,10
 635 -61 635 -61 635 -23 c 2,11,-1
 635 5 l 1,12,-1
 202 486 l 1,13,-1
 202 58 l 1,14,-1
 318 16 l 1,15,-1
 318 0 l 1,16,-1
 43 0 l 1,17,-1
 43 16 l 1,18,-1
 130 58 l 1,19,-1
 130 616 l 1,20,-1
 43 659 l 1,21,-1
 43 676 l 1,22,-1
 238 676 l 1,23,-1
 635 226 l 1,24,-1
 635 618 l 1,25,-1
 518 659 l 1,26,-1
 518 676 l 1,27,-1
 793 676 l 1,28,-1
 793 659 l 1,29,-1
 707 617 l 1,30,-1
 707 -6 l 2,0,1
EndSplineSet
Validated: 1
Substitution2: "'c2sc' Capitals to Small Capitals lookup 59 subtable" eng.sc
Substitution2: "'aalt' Access All Alternates lookup 0 subtable" eng.sc
Position2: "'cpsp' Capital Spacing lookup 0 subtable" dx=5 dy=0 dh=10 dv=0
EndChar

StartChar: Thorn
Encoding: 222 222 236
Width: 700
GlyphClass: 1
Flags: W
LayerCount: 2
Fore
SplineSet
45 0 m 1,0,-1
 45 16 l 1,1,-1
 132 58 l 1,2,-1
 132 617 l 1,3,-1
 45 659 l 1,4,-1
 45 676 l 1,5,-1
 374 676 l 1,6,-1
 374 659 l 1,7,-1
 287 617 l 1,8,-1
 287 545 l 1,9,-1
 399 545 l 2,10,11
 520 545 520 545 593.5 501.5 c 128,-1,12
 667 458 667 458 667 362 c 0,13,14
 667 304 667 304 628.5 261 c 128,-1,15
 590 218 590 218 524 194 c 128,-1,16
 458 170 458 170 375 170 c 2,17,-1
 287 170 l 1,18,-1
 287 58 l 1,19,-1
 374 16 l 1,20,-1
 374 0 l 1,21,-1
 45 0 l 1,0,-1
330 488 m 2,22,-1
 287 488 l 1,23,-1
 287 219 l 1,24,-1
 337 219 l 2,25,26
 417 219 417 219 463.5 257 c 128,-1,27
 510 295 510 295 510 353 c 0,28,29
 510 424 510 424 463 456 c 128,-1,30
 416 488 416 488 330 488 c 2,22,-1
EndSplineSet
Validated: 1
Substitution2: "'c2sc' Capitals to Small Capitals lookup 59 subtable" thorn.sc
Substitution2: "'aalt' Access All Alternates lookup 0 subtable" thorn.sc
Position2: "'cpsp' Capital Spacing lookup 0 subtable" dx=5 dy=0 dh=10 dv=0
EndChar

StartChar: uni0402
Encoding: 1026 1026 240
Width: 839
GlyphClass: 1
Flags: W
LayerCount: 2
Fore
SplineSet
153 0 m 1,0,-1
 153 16 l 1,1,-1
 261 58 l 1,2,-1
 261 620 l 1,3,-1
 129 620 l 1,4,-1
 47 470 l 1,5,-1
 31 470 l 1,6,-1
 31 676 l 1,7,-1
 671 676 l 1,8,-1
 671 486 l 1,9,-1
 654 486 l 1,10,-1
 572 620 l 1,11,-1
 416 620 l 1,12,-1
 416 341 l 1,13,14
 446 369 446 369 494 390.5 c 128,-1,15
 542 412 542 412 606 412 c 0,16,17
 696 412 696 412 741 360.5 c 128,-1,18
 786 309 786 309 786 210 c 0,19,20
 786 139 786 139 768.5 80.5 c 128,-1,21
 751 22 751 22 725 -22 c 128,-1,22
 699 -66 699 -66 676 -93 c 0,23,24
 641 -133 641 -133 612 -155 c 128,-1,25
 583 -177 583 -177 548 -177 c 0,26,27
 529 -177 529 -177 516.5 -168 c 128,-1,28
 504 -159 504 -159 504 -143 c 0,29,30
 504 -139 504 -139 509 -117 c 2,31,-1
 518 -69 l 1,32,-1
 603 -85 l 1,33,34
 618 -65 618 -65 625.5 -32.5 c 128,-1,35
 633 0 633 0 633 51 c 2,36,-1
 633 182 l 2,37,38
 633 250 633 250 607.5 283.5 c 128,-1,39
 582 317 582 317 517 317 c 0,40,41
 486 317 486 317 460 309 c 128,-1,42
 434 301 434 301 416 287 c 1,43,-1
 416 58 l 1,44,-1
 510 16 l 1,45,-1
 510 0 l 1,46,-1
 153 0 l 1,0,-1
EndSplineSet
Validated: 1
Substitution2: "'c2sc' Capitals to Small Capitals lookup 59 subtable" uni0452.sc
Substitution2: "'aalt' Access All Alternates lookup 0 subtable" uni0452.sc
EndChar

StartChar: uni0404
Encoding: 1028 1028 241
Width: 728
GlyphClass: 1
Flags: W
LayerCount: 2
Fore
SplineSet
409 -10 m 0,0,1
 301 -10 301 -10 220 34 c 128,-1,2
 139 78 139 78 94.5 153 c 128,-1,3
 50 228 50 228 50 324 c 0,4,5
 50 401 50 401 81 466 c 128,-1,6
 112 531 112 531 164.5 581 c 128,-1,7
 217 631 217 631 284.5 658.5 c 128,-1,8
 352 686 352 686 425 686 c 0,9,10
 478 686 478 686 514.5 680 c 128,-1,11
 551 674 551 674 579 662.5 c 128,-1,12
 607 651 607 651 637 637 c 1,13,-1
 648 445 l 1,14,-1
 630 445 l 1,15,-1
 532 604 l 1,16,17
 506 620 506 620 484 627.5 c 128,-1,18
 462 635 462 635 430 635 c 0,19,20
 373 635 373 635 326.5 603 c 128,-1,21
 280 571 280 571 250 513.5 c 128,-1,22
 220 456 220 456 213 377 c 1,23,-1
 408 377 l 1,24,-1
 465 465 l 1,25,-1
 481 465 l 1,26,-1
 481 234 l 1,27,-1
 465 234 l 1,28,-1
 408 321 l 1,29,-1
 211 321 l 1,30,31
 214 235 214 235 241.5 173 c 128,-1,32
 269 111 269 111 316.5 77.5 c 128,-1,33
 364 44 364 44 421 44 c 0,34,35
 460 44 460 44 489.5 53.5 c 128,-1,36
 519 63 519 63 547 79 c 1,37,-1
 639 216 l 1,38,-1
 656 216 l 1,39,-1
 642 43 l 1,40,41
 600 18 600 18 541.5 4 c 128,-1,42
 483 -10 483 -10 409 -10 c 0,0,1
EndSplineSet
Validated: 1
Substitution2: "'c2sc' Capitals to Small Capitals lookup 59 subtable" uni0454.sc
Substitution2: "'aalt' Access All Alternates lookup 0 subtable" uni0454.sc
EndChar

StartChar: uni0409
Encoding: 1033 1033 246
Width: 1013
GlyphClass: 1
Flags: W
LayerCount: 2
Fore
SplineSet
691 0 m 2,0,-1
 351 0 l 1,1,-1
 351 16 l 1,2,-1
 439 58 l 1,3,-1
 439 620 l 1,4,-1
 251 620 l 1,5,-1
 251 549 l 2,6,7
 251 430 251 430 245 345 c 128,-1,8
 239 260 239 260 227 199 c 128,-1,9
 215 138 215 138 196 93 c 0,10,11
 170 32 170 32 144 11 c 128,-1,12
 118 -10 118 -10 78 -10 c 0,13,14
 45 -10 45 -10 30 2 c 128,-1,15
 15 14 15 14 15 44 c 2,16,-1
 15 106 l 1,17,-1
 102 106 l 1,18,19
 141 157 141 157 162 261 c 128,-1,20
 183 365 183 365 183 547 c 2,21,-1
 183 617 l 1,22,-1
 96 659 l 1,23,-1
 96 676 l 1,24,-1
 701 676 l 1,25,-1
 701 659 l 1,26,-1
 594 617 l 1,27,-1
 594 402 l 1,28,-1
 692 402 l 2,29,30
 779 402 779 402 845.5 379 c 128,-1,31
 912 356 912 356 950 312.5 c 128,-1,32
 988 269 988 269 988 208 c 0,33,34
 988 146 988 146 950 98.5 c 128,-1,35
 912 51 912 51 845 25.5 c 128,-1,36
 778 0 778 0 691 0 c 2,0,-1
658 346 m 2,37,-1
 594 346 l 1,38,-1
 594 56 l 1,39,-1
 666 56 l 2,40,41
 746 56 746 56 788 97.5 c 128,-1,42
 830 139 830 139 830 203 c 0,43,44
 830 346 830 346 658 346 c 2,37,-1
EndSplineSet
Validated: 1
Substitution2: "'c2sc' Capitals to Small Capitals lookup 59 subtable" uni0459.sc
Substitution2: "'aalt' Access All Alternates lookup 0 subtable" uni0459.sc
EndChar

StartChar: uni040A
Encoding: 1034 1034 247
Width: 1128
GlyphClass: 1
Flags: W
LayerCount: 2
Fore
SplineSet
45 0 m 1,0,-1
 45 16 l 1,1,-1
 132 58 l 1,2,-1
 132 617 l 1,3,-1
 45 659 l 1,4,-1
 45 676 l 1,5,-1
 367 676 l 1,6,-1
 367 659 l 1,7,-1
 287 617 l 1,8,-1
 287 386 l 1,9,-1
 554 386 l 1,10,-1
 554 617 l 1,11,-1
 467 659 l 1,12,-1
 467 676 l 1,13,-1
 816 676 l 1,14,-1
 816 659 l 1,15,-1
 709 617 l 1,16,-1
 709 386 l 1,17,-1
 807 386 l 2,18,19
 894 386 894 386 960.5 364 c 128,-1,20
 1027 342 1027 342 1065 300 c 128,-1,21
 1103 258 1103 258 1103 198 c 0,22,23
 1103 137 1103 137 1065 92 c 128,-1,24
 1027 47 1027 47 960.5 23.5 c 128,-1,25
 894 0 894 0 806 0 c 2,26,-1
 467 0 l 1,27,-1
 467 16 l 1,28,-1
 554 58 l 1,29,-1
 554 330 l 1,30,-1
 287 330 l 1,31,-1
 287 58 l 1,32,-1
 367 16 l 1,33,-1
 367 0 l 1,34,-1
 45 0 l 1,0,-1
773 330 m 2,35,-1
 709 330 l 1,36,-1
 709 56 l 1,37,-1
 780 56 l 2,38,39
 860 56 860 56 902.5 93 c 128,-1,40
 945 130 945 130 945 193 c 0,41,42
 945 266 945 266 902 298 c 128,-1,43
 859 330 859 330 773 330 c 2,35,-1
EndSplineSet
Validated: 1
Substitution2: "'c2sc' Capitals to Small Capitals lookup 59 subtable" uni045A.sc
Substitution2: "'aalt' Access All Alternates lookup 0 subtable" uni045A.sc
EndChar

StartChar: uni040B
Encoding: 1035 1035 248
Width: 888
GlyphClass: 1
Flags: W
LayerCount: 2
Fore
SplineSet
153 0 m 1,0,-1
 153 16 l 1,1,-1
 261 58 l 1,2,-1
 261 620 l 1,3,-1
 129 620 l 1,4,-1
 47 470 l 1,5,-1
 31 470 l 1,6,-1
 31 676 l 1,7,-1
 671 676 l 1,8,-1
 671 480 l 1,9,-1
 654 480 l 1,10,-1
 572 620 l 1,11,-1
 416 620 l 1,12,-1
 416 341 l 1,13,14
 446 369 446 369 494 390.5 c 128,-1,15
 542 412 542 412 604 412 c 0,16,17
 697 412 697 412 741.5 360 c 128,-1,18
 786 308 786 308 786 217 c 2,19,-1
 786 58 l 1,20,-1
 872 16 l 1,21,-1
 872 0 l 1,22,-1
 633 0 l 1,23,-1
 633 182 l 2,24,25
 633 248 633 248 607.5 282.5 c 128,-1,26
 582 317 582 317 517 317 c 0,27,28
 486 317 486 317 460 309 c 128,-1,29
 434 301 434 301 416 287 c 1,30,-1
 416 58 l 1,31,-1
 510 16 l 1,32,-1
 510 0 l 1,33,-1
 153 0 l 1,0,-1
EndSplineSet
Validated: 1
Substitution2: "'c2sc' Capitals to Small Capitals lookup 59 subtable" uni045B.sc
Substitution2: "'aalt' Access All Alternates lookup 0 subtable" uni045B.sc
EndChar

StartChar: uni040F
Encoding: 1039 1039 249
Width: 831
GlyphClass: 1
Flags: W
LayerCount: 2
Fore
SplineSet
352 0 m 1,0,-1
 45 0 l 1,1,-1
 45 16 l 1,2,-1
 131 58 l 1,3,-1
 131 617 l 1,4,-1
 45 659 l 1,5,-1
 45 676 l 1,6,-1
 364 676 l 1,7,-1
 364 659 l 1,8,-1
 286 617 l 1,9,-1
 286 56 l 1,10,-1
 545 56 l 1,11,-1
 545 617 l 1,12,-1
 468 659 l 1,13,-1
 468 676 l 1,14,-1
 786 676 l 1,15,-1
 786 659 l 1,16,-1
 698 617 l 1,17,-1
 698 58 l 1,18,-1
 786 16 l 1,19,-1
 786 0 l 1,20,-1
 479 0 l 1,21,-1
 424 -176 l 1,22,-1
 408 -176 l 1,23,-1
 352 0 l 1,0,-1
EndSplineSet
Validated: 1
Substitution2: "'c2sc' Capitals to Small Capitals lookup 59 subtable" uni045F.sc
Substitution2: "'aalt' Access All Alternates lookup 0 subtable" uni045F.sc
EndChar

StartChar: uni0411
Encoding: 1041 1041 251
Width: 714
GlyphClass: 1
Flags: W
LayerCount: 2
Fore
SplineSet
385 0 m 2,0,-1
 45 0 l 1,1,-1
 45 16 l 1,2,-1
 132 58 l 1,3,-1
 132 617 l 1,4,-1
 45 659 l 1,5,-1
 45 676 l 1,6,-1
 611 676 l 1,7,-1
 611 486 l 1,8,-1
 595 486 l 1,9,-1
 516 620 l 1,10,-1
 287 620 l 1,11,-1
 287 390 l 1,12,-1
 385 390 l 2,13,14
 472 390 472 390 539 369 c 128,-1,15
 606 348 606 348 643.5 307 c 128,-1,16
 681 266 681 266 681 205 c 0,17,18
 681 143 681 143 643 96.5 c 128,-1,19
 605 50 605 50 538.5 25 c 128,-1,20
 472 0 472 0 385 0 c 2,0,-1
351 340 m 2,21,-1
 287 340 l 1,22,-1
 287 56 l 1,23,-1
 358 56 l 2,24,25
 438 56 438 56 480.5 96 c 128,-1,26
 523 136 523 136 523 200 c 0,27,28
 523 274 523 274 480 307 c 128,-1,29
 437 340 437 340 351 340 c 2,21,-1
EndSplineSet
Validated: 1
Substitution2: "'c2sc' Capitals to Small Capitals lookup 59 subtable" uni0431.sc
Substitution2: "'aalt' Access All Alternates lookup 0 subtable" uni0431.sc
EndChar

StartChar: uni0413
Encoding: 1043 1043 253
Width: 631
GlyphClass: 2
Flags: W
AnchorPoint: "Anchor-3" 360 727 basechar 0
LayerCount: 2
Fore
SplineSet
45 0 m 1,0,-1
 45 16 l 1,1,-1
 132 58 l 1,2,-1
 132 617 l 1,3,-1
 45 659 l 1,4,-1
 45 676 l 1,5,-1
 593 676 l 1,6,-1
 593 499 l 1,7,-1
 577 499 l 1,8,-1
 501 620 l 1,9,-1
 287 620 l 1,10,-1
 287 58 l 1,11,-1
 391 16 l 1,12,-1
 391 0 l 1,13,-1
 45 0 l 1,0,-1
EndSplineSet
Validated: 1
Substitution2: "'c2sc' Capitals to Small Capitals lookup 59 subtable" uni0433.sc
Substitution2: "'aalt' Access All Alternates lookup 0 subtable" uni0433.sc
EndChar

StartChar: uni0492
Encoding: 1170 1170 255
Width: 631
GlyphClass: 1
Flags: W
LayerCount: 2
Fore
SplineSet
45 0 m 1,0,-1
 45 16 l 1,1,-1
 132 58 l 1,2,-1
 132 324 l 1,3,-1
 45 324 l 1,4,-1
 45 378 l 1,5,-1
 132 378 l 1,6,-1
 132 617 l 1,7,-1
 45 659 l 1,8,-1
 45 676 l 1,9,-1
 593 676 l 1,10,-1
 593 499 l 1,11,-1
 577 499 l 1,12,-1
 501 620 l 1,13,-1
 287 620 l 1,14,-1
 287 378 l 1,15,-1
 459 378 l 1,16,-1
 459 324 l 1,17,-1
 287 324 l 1,18,-1
 287 58 l 1,19,-1
 391 16 l 1,20,-1
 391 0 l 1,21,-1
 45 0 l 1,0,-1
EndSplineSet
Validated: 1
Substitution2: "'c2sc' Capitals to Small Capitals lookup 59 subtable" uni0493.sc
Substitution2: "'aalt' Access All Alternates lookup 0 subtable" uni0493.sc
EndChar

StartChar: uni0414
Encoding: 1044 1044 256
Width: 753
GlyphClass: 1
Flags: W
LayerCount: 2
Fore
SplineSet
92 659 m 1,0,-1
 92 676 l 1,1,-1
 697 676 l 1,2,-1
 697 659 l 1,3,-1
 611 617 l 1,4,-1
 611 56 l 1,5,-1
 713 56 l 1,6,-1
 713 -176 l 1,7,-1
 696 -176 l 1,8,-1
 598 0 l 1,9,-1
 131 0 l 1,10,-1
 33 -176 l 1,11,-1
 16 -176 l 1,12,-1
 16 56 l 1,13,-1
 100 56 l 1,14,15
 133 138 133 138 150 221 c 128,-1,16
 167 304 167 304 172.5 395 c 128,-1,17
 178 486 178 486 178 591 c 2,18,-1
 178 617 l 1,19,-1
 92 659 l 1,0,-1
457 56 m 1,20,-1
 457 620 l 1,21,-1
 246 620 l 1,22,-1
 246 592 l 2,23,24
 246 484 246 484 240 393 c 128,-1,25
 234 302 234 302 219 220 c 128,-1,26
 204 138 204 138 175 56 c 1,27,-1
 457 56 l 1,20,-1
EndSplineSet
Validated: 1
Substitution2: "'c2sc' Capitals to Small Capitals lookup 59 subtable" uni0434.sc
Substitution2: "'ss06' Style Set 6 lookup 19 subtable" uni0414.bgr
Substitution2: "'locl' Localized Forms in Cyrillic lookup 17 subtable" uni0414.bgr
AlternateSubs2: "'aalt' Access All Alternates lookup 1 subtable" uni0414.bgr uni0434.sc
EndChar

StartChar: uni0416
Encoding: 1046 1046 259
Width: 1121
GlyphClass: 1
Flags: W
LayerCount: 2
Fore
SplineSet
400 0 m 1,0,-1
 400 16 l 1,1,-1
 481 58 l 1,2,-1
 481 617 l 1,3,-1
 400 659 l 1,4,-1
 400 676 l 1,5,-1
 718 676 l 1,6,-1
 718 659 l 1,7,-1
 636 617 l 1,8,-1
 636 58 l 1,9,-1
 718 16 l 1,10,-1
 718 0 l 1,11,-1
 400 0 l 1,0,-1
638 341 m 1,12,-1
 902 622 l 1,13,-1
 824 659 l 1,14,-1
 824 676 l 1,15,-1
 1070 676 l 1,16,-1
 1070 659 l 1,17,-1
 988 626 l 1,18,-1
 774 404 l 1,19,-1
 1042 46 l 1,20,-1
 1113 16 l 1,21,-1
 1113 0 l 1,22,-1
 889 0 l 1,23,-1
 638 341 l 1,12,-1
480 341 m 1,24,-1
 229 0 l 1,25,-1
 8 0 l 1,26,-1
 8 16 l 1,27,-1
 88 50 l 1,28,-1
 345 395 l 1,29,-1
 120 628 l 1,30,-1
 42 659 l 1,31,-1
 42 676 l 1,32,-1
 293 676 l 1,33,-1
 293 659 l 1,34,-1
 216 622 l 1,35,-1
 480 341 l 1,24,-1
EndSplineSet
Validated: 1
Substitution2: "'c2sc' Capitals to Small Capitals lookup 59 subtable" uni0436.sc
Substitution2: "'ss06' Style Set 6 lookup 19 subtable" uni0416.bgr
Substitution2: "'locl' Localized Forms in Cyrillic lookup 17 subtable" uni0416.bgr
AlternateSubs2: "'aalt' Access All Alternates lookup 1 subtable" uni0416.bgr uni0436.sc
EndChar

StartChar: uni0417
Encoding: 1047 1047 260
Width: 663
GlyphClass: 1
Flags: W
LayerCount: 2
Fore
SplineSet
324 686 m 0,0,1
 394 686 394 686 451 668.5 c 128,-1,2
 508 651 508 651 541.5 616.5 c 128,-1,3
 575 582 575 582 575 530 c 0,4,5
 575 476 575 476 534.5 429.5 c 128,-1,6
 494 383 494 383 419 365 c 1,7,8
 512 351 512 351 565 306.5 c 128,-1,9
 618 262 618 262 618 198 c 0,10,11
 618 138 618 138 579.5 90.5 c 128,-1,12
 541 43 541 43 472.5 16.5 c 128,-1,13
 404 -10 404 -10 316 -10 c 0,14,15
 243 -10 243 -10 184.5 4 c 128,-1,16
 126 18 126 18 85 43 c 1,17,-1
 71 216 l 1,18,-1
 88 216 l 1,19,-1
 193 71 l 1,20,21
 216 59 216 59 241.5 52.5 c 128,-1,22
 267 46 267 46 302 46 c 0,23,24
 375 46 375 46 415 84.5 c 128,-1,25
 455 123 455 123 455 189 c 0,26,27
 455 320 455 320 283 321 c 2,28,-1
 207 321 l 1,29,-1
 207 377 l 1,30,-1
 272 377 l 2,31,32
 342 377 342 377 380.5 411 c 128,-1,33
 419 445 419 445 419 505 c 0,34,35
 419 566 419 566 389 600.5 c 128,-1,36
 359 635 359 635 299 635 c 0,37,38
 247 635 247 635 210 609 c 1,39,-1
 111 447 l 1,40,-1
 92 447 l 1,41,-1
 103 638 l 1,42,43
 133 653 133 653 163.5 664 c 128,-1,44
 194 675 194 675 232.5 680.5 c 128,-1,45
 271 686 271 686 324 686 c 0,0,1
EndSplineSet
Validated: 1
Substitution2: "'c2sc' Capitals to Small Capitals lookup 59 subtable" uni0437.sc
Substitution2: "'aalt' Access All Alternates lookup 0 subtable" uni0437.sc
EndChar

StartChar: uni0418
Encoding: 1048 1048 261
Width: 866
GlyphClass: 2
Flags: W
AnchorPoint: "Anchor-3" 433 727 basechar 0
LayerCount: 2
Fore
SplineSet
45 0 m 1,0,-1
 45 16 l 1,1,-1
 132 58 l 1,2,-1
 132 617 l 1,3,-1
 45 659 l 1,4,-1
 45 676 l 1,5,-1
 367 676 l 1,6,-1
 367 659 l 1,7,-1
 287 617 l 1,8,-1
 287 186 l 1,9,-1
 581 571 l 1,10,-1
 581 617 l 1,11,-1
 499 659 l 1,12,-1
 499 676 l 1,13,-1
 821 676 l 1,14,-1
 821 659 l 1,15,-1
 735 617 l 1,16,-1
 735 58 l 1,17,-1
 821 16 l 1,18,-1
 821 0 l 1,19,-1
 499 0 l 1,20,-1
 499 16 l 1,21,-1
 581 58 l 1,22,-1
 581 487 l 1,23,-1
 287 102 l 1,24,-1
 287 58 l 1,25,-1
 367 16 l 1,26,-1
 367 0 l 1,27,-1
 45 0 l 1,0,-1
EndSplineSet
Validated: 1
Substitution2: "'c2sc' Capitals to Small Capitals lookup 59 subtable" uni0438.sc
Substitution2: "'aalt' Access All Alternates lookup 0 subtable" uni0438.sc
EndChar

StartChar: uni041B
Encoding: 1051 1051 266
Width: 742
GlyphClass: 1
Flags: W
LayerCount: 2
Fore
SplineSet
372 0 m 1,0,-1
 372 16 l 1,1,-1
 458 58 l 1,2,-1
 458 620 l 1,3,-1
 251 620 l 1,4,-1
 251 549 l 2,5,6
 251 430 251 430 245 345 c 128,-1,7
 239 260 239 260 227 199 c 128,-1,8
 215 138 215 138 196 93 c 0,9,10
 170 32 170 32 144 11 c 128,-1,11
 118 -10 118 -10 78 -10 c 0,12,13
 45 -10 45 -10 30 2 c 128,-1,14
 15 14 15 14 15 44 c 2,15,-1
 15 106 l 1,16,-1
 102 106 l 1,17,18
 141 157 141 157 162 261 c 128,-1,19
 183 365 183 365 183 547 c 2,20,-1
 183 617 l 1,21,-1
 96 659 l 1,22,-1
 96 676 l 1,23,-1
 698 676 l 1,24,-1
 698 659 l 1,25,-1
 611 617 l 1,26,-1
 611 58 l 1,27,-1
 698 16 l 1,28,-1
 698 0 l 1,29,-1
 372 0 l 1,0,-1
EndSplineSet
Validated: 1
Substitution2: "'c2sc' Capitals to Small Capitals lookup 59 subtable" uni043B.sc
Substitution2: "'ss06' Style Set 6 lookup 19 subtable" uni041B.bgr
Substitution2: "'locl' Localized Forms in Cyrillic lookup 17 subtable" uni041B.bgr
AlternateSubs2: "'aalt' Access All Alternates lookup 1 subtable" uni041B.bgr uni043B.sc
EndChar

StartChar: uni041F
Encoding: 1055 1055 270
Width: 831
GlyphClass: 1
Flags: W
LayerCount: 2
Fore
SplineSet
45 0 m 1,0,-1
 45 16 l 1,1,-1
 132 58 l 1,2,-1
 132 617 l 1,3,-1
 45 659 l 1,4,-1
 45 676 l 1,5,-1
 786 676 l 1,6,-1
 786 659 l 1,7,-1
 700 617 l 1,8,-1
 700 58 l 1,9,-1
 786 16 l 1,10,-1
 786 0 l 1,11,-1
 469 0 l 1,12,-1
 469 16 l 1,13,-1
 546 58 l 1,14,-1
 546 620 l 1,15,-1
 287 620 l 1,16,-1
 287 58 l 1,17,-1
 364 16 l 1,18,-1
 364 0 l 1,19,-1
 45 0 l 1,0,-1
EndSplineSet
Validated: 1
Substitution2: "'c2sc' Capitals to Small Capitals lookup 59 subtable" uni043F.sc
Substitution2: "'aalt' Access All Alternates lookup 0 subtable" uni043F.sc
EndChar

StartChar: uni0423
Encoding: 1059 1059 274
Width: 754
GlyphClass: 2
Flags: W
AnchorPoint: "Anchor-3" 428 727 basechar 0
LayerCount: 2
Fore
SplineSet
466 222 m 2,0,1
 425 148 425 148 393.5 102.5 c 128,-1,2
 362 57 362 57 337.5 32.5 c 128,-1,3
 313 8 313 8 290.5 -1 c 128,-1,4
 268 -10 268 -10 245 -10 c 0,5,6
 208 -10 208 -10 194.5 3.5 c 128,-1,7
 181 17 181 17 181 48 c 2,8,-1
 181 105 l 1,9,-1
 293 105 l 1,10,11
 324 124 324 124 351 160 c 1,12,-1
 97 616 l 1,13,-1
 19 659 l 1,14,-1
 19 676 l 1,15,-1
 339 676 l 1,16,-1
 339 659 l 1,17,-1
 257 621 l 1,18,-1
 434 301 l 1,19,-1
 441 301 l 1,20,-1
 616 622 l 1,21,-1
 535 659 l 1,22,-1
 535 676 l 1,23,-1
 754 676 l 1,24,-1
 754 659 l 1,25,-1
 690 625 l 1,26,-1
 466 222 l 2,0,1
EndSplineSet
Validated: 1
Substitution2: "'c2sc' Capitals to Small Capitals lookup 59 subtable" uni0443.sc
Substitution2: "'aalt' Access All Alternates lookup 0 subtable" uni0443.sc
EndChar

StartChar: uni0424
Encoding: 1060 1060 277
Width: 915
GlyphClass: 1
Flags: W
LayerCount: 2
Fore
SplineSet
295 -20 m 1,0,-1
 295 -4 l 1,1,-1
 383 38 l 1,2,-1
 383 82 l 1,3,4
 269 84 269 84 189.5 116 c 128,-1,5
 110 148 110 148 67.5 203 c 128,-1,6
 25 258 25 258 25 328 c 0,7,8
 25 401 25 401 67.5 460 c 128,-1,9
 110 519 110 519 189.5 555.5 c 128,-1,10
 269 592 269 592 383 594 c 1,11,-1
 383 638 l 1,12,-1
 295 680 l 1,13,-1
 295 696 l 1,14,-1
 625 696 l 1,15,-1
 625 680 l 1,16,-1
 537 638 l 1,17,-1
 537 594 l 1,18,19
 651 591 651 591 730 558.5 c 128,-1,20
 809 526 809 526 850 471.5 c 128,-1,21
 891 417 891 417 891 348 c 0,22,23
 891 275 891 275 850 216 c 128,-1,24
 809 157 809 157 729.5 121 c 128,-1,25
 650 85 650 85 537 82 c 1,26,-1
 537 38 l 1,27,-1
 625 -4 l 1,28,-1
 625 -20 l 1,29,-1
 295 -20 l 1,0,-1
383 542 m 1,30,31
 292 542 292 542 239.5 491.5 c 128,-1,32
 187 441 187 441 187 360 c 0,33,34
 187 265 187 265 241 205 c 128,-1,35
 295 145 295 145 383 136 c 1,36,-1
 383 542 l 1,30,31
730 317 m 0,37,38
 730 412 730 412 678.5 471.5 c 128,-1,39
 627 531 627 531 537 541 c 1,40,-1
 537 135 l 1,41,42
 633 135 633 135 681.5 185.5 c 128,-1,43
 730 236 730 236 730 317 c 0,37,38
EndSplineSet
Validated: 1
Substitution2: "'c2sc' Capitals to Small Capitals lookup 59 subtable" uni0444.sc
Substitution2: "'aalt' Access All Alternates lookup 0 subtable" uni0444.sc
EndChar

StartChar: uni0426
Encoding: 1062 1062 279
Width: 840
GlyphClass: 1
Flags: W
LayerCount: 2
Fore
SplineSet
685 0 m 1,0,-1
 45 0 l 1,1,-1
 45 16 l 1,2,-1
 131 58 l 1,3,-1
 131 617 l 1,4,-1
 45 659 l 1,5,-1
 45 676 l 1,6,-1
 362 676 l 1,7,-1
 362 659 l 1,8,-1
 286 617 l 1,9,-1
 286 56 l 1,10,-1
 545 56 l 1,11,-1
 545 617 l 1,12,-1
 468 659 l 1,13,-1
 468 676 l 1,14,-1
 786 676 l 1,15,-1
 786 659 l 1,16,-1
 698 617 l 1,17,-1
 698 56 l 1,18,-1
 800 56 l 1,19,-1
 800 -176 l 1,20,-1
 783 -176 l 1,21,-1
 685 0 l 1,0,-1
EndSplineSet
Validated: 1
Substitution2: "'c2sc' Capitals to Small Capitals lookup 59 subtable" uni0446.sc
Substitution2: "'aalt' Access All Alternates lookup 0 subtable" uni0446.sc
EndChar

StartChar: uni0427
Encoding: 1063 1063 280
Width: 798
GlyphClass: 1
Flags: W
LayerCount: 2
Fore
SplineSet
415 0 m 1,0,-1
 415 16 l 1,1,-1
 513 58 l 1,2,-1
 513 310 l 1,3,4
 478 295 478 295 431.5 284.5 c 128,-1,5
 385 274 385 274 331 274 c 0,6,7
 259 274 259 274 208 293.5 c 128,-1,8
 157 313 157 313 129 362.5 c 128,-1,9
 101 412 101 412 101 500 c 2,10,-1
 101 616 l 1,11,-1
 13 659 l 1,12,-1
 13 676 l 1,13,-1
 336 676 l 1,14,-1
 336 659 l 1,15,-1
 256 616 l 1,16,-1
 256 494 l 2,17,18
 256 408 256 408 288.5 375.5 c 128,-1,19
 321 343 321 343 395 343 c 0,20,21
 424 343 424 343 454.5 347.5 c 128,-1,22
 485 352 485 352 513 365 c 1,23,-1
 513 616 l 1,24,-1
 432 659 l 1,25,-1
 432 676 l 1,26,-1
 754 676 l 1,27,-1
 754 659 l 1,28,-1
 668 616 l 1,29,-1
 668 58 l 1,30,-1
 754 16 l 1,31,-1
 754 0 l 1,32,-1
 415 0 l 1,0,-1
EndSplineSet
Validated: 1
Substitution2: "'c2sc' Capitals to Small Capitals lookup 59 subtable" uni0447.sc
Substitution2: "'aalt' Access All Alternates lookup 0 subtable" uni0447.sc
EndChar

StartChar: uni0428
Encoding: 1064 1064 281
Width: 1126
GlyphClass: 1
Flags: W
LayerCount: 2
Fore
SplineSet
356 676 m 1,0,-1
 356 659 l 1,1,-1
 286 617 l 1,2,-1
 286 56 l 1,3,-1
 485 56 l 1,4,-1
 485 617 l 1,5,-1
 415 659 l 1,6,-1
 415 676 l 1,7,-1
 711 676 l 1,8,-1
 711 659 l 1,9,-1
 640 617 l 1,10,-1
 640 56 l 1,11,-1
 840 56 l 1,12,-1
 840 617 l 1,13,-1
 773 659 l 1,14,-1
 773 676 l 1,15,-1
 1081 676 l 1,16,-1
 1081 659 l 1,17,-1
 994 617 l 1,18,-1
 994 58 l 1,19,-1
 1081 16 l 1,20,-1
 1081 0 l 1,21,-1
 45 0 l 1,22,-1
 45 16 l 1,23,-1
 131 58 l 1,24,-1
 131 617 l 1,25,-1
 45 659 l 1,26,-1
 45 676 l 1,27,-1
 356 676 l 1,0,-1
EndSplineSet
Validated: 1
Substitution2: "'c2sc' Capitals to Small Capitals lookup 59 subtable" uni0448.sc
Substitution2: "'aalt' Access All Alternates lookup 0 subtable" uni0448.sc
EndChar

StartChar: uni0429
Encoding: 1065 1065 282
Width: 1136
GlyphClass: 1
Flags: W
LayerCount: 2
Fore
SplineSet
356 676 m 1,0,-1
 356 659 l 1,1,-1
 286 617 l 1,2,-1
 286 56 l 1,3,-1
 485 56 l 1,4,-1
 485 617 l 1,5,-1
 415 659 l 1,6,-1
 415 676 l 1,7,-1
 711 676 l 1,8,-1
 711 659 l 1,9,-1
 640 617 l 1,10,-1
 640 56 l 1,11,-1
 840 56 l 1,12,-1
 840 617 l 1,13,-1
 773 659 l 1,14,-1
 773 676 l 1,15,-1
 1081 676 l 1,16,-1
 1081 659 l 1,17,-1
 994 617 l 1,18,-1
 994 56 l 1,19,-1
 1096 56 l 1,20,-1
 1096 -176 l 1,21,-1
 1079 -176 l 1,22,-1
 981 0 l 1,23,-1
 45 0 l 1,24,-1
 45 16 l 1,25,-1
 131 58 l 1,26,-1
 131 617 l 1,27,-1
 45 659 l 1,28,-1
 45 676 l 1,29,-1
 356 676 l 1,0,-1
EndSplineSet
Validated: 1
Substitution2: "'c2sc' Capitals to Small Capitals lookup 59 subtable" uni0449.sc
Substitution2: "'aalt' Access All Alternates lookup 0 subtable" uni0449.sc
EndChar

StartChar: uni042A
Encoding: 1066 1066 283
Width: 800
GlyphClass: 1
Flags: W
LayerCount: 2
Fore
SplineSet
479 0 m 2,0,-1
 139 0 l 1,1,-1
 139 16 l 1,2,-1
 226 58 l 1,3,-1
 226 620 l 1,4,-1
 127 620 l 1,5,-1
 45 451 l 1,6,-1
 29 451 l 1,7,-1
 29 676 l 1,8,-1
 489 676 l 1,9,-1
 489 659 l 1,10,-1
 381 617 l 1,11,-1
 381 402 l 1,12,-1
 479 402 l 2,13,14
 566 402 566 402 633 379 c 128,-1,15
 700 356 700 356 737.5 312.5 c 128,-1,16
 775 269 775 269 775 208 c 0,17,18
 775 146 775 146 737.5 98.5 c 128,-1,19
 700 51 700 51 633 25.5 c 128,-1,20
 566 0 566 0 479 0 c 2,0,-1
445 346 m 2,21,-1
 381 346 l 1,22,-1
 381 56 l 1,23,-1
 453 56 l 2,24,25
 533 56 533 56 575 97.5 c 128,-1,26
 617 139 617 139 617 203 c 0,27,28
 617 346 617 346 445 346 c 2,21,-1
EndSplineSet
Validated: 1
Substitution2: "'c2sc' Capitals to Small Capitals lookup 59 subtable" uni044A.sc
Substitution2: "'aalt' Access All Alternates lookup 0 subtable" uni044A.sc
EndChar

StartChar: uni042C
Encoding: 1068 1068 285
Width: 706
GlyphClass: 1
Flags: W
LayerCount: 2
Fore
SplineSet
385 0 m 2,0,-1
 45 0 l 1,1,-1
 45 16 l 1,2,-1
 132 58 l 1,3,-1
 132 617 l 1,4,-1
 45 659 l 1,5,-1
 45 676 l 1,6,-1
 394 676 l 1,7,-1
 394 659 l 1,8,-1
 287 617 l 1,9,-1
 287 402 l 1,10,-1
 385 402 l 2,11,12
 472 402 472 402 539 379 c 128,-1,13
 606 356 606 356 643.5 312.5 c 128,-1,14
 681 269 681 269 681 208 c 0,15,16
 681 146 681 146 643 98.5 c 128,-1,17
 605 51 605 51 538.5 25.5 c 128,-1,18
 472 0 472 0 385 0 c 2,0,-1
351 346 m 2,19,-1
 287 346 l 1,20,-1
 287 56 l 1,21,-1
 358 56 l 2,22,23
 438 56 438 56 480.5 97.5 c 128,-1,24
 523 139 523 139 523 203 c 0,25,26
 523 346 523 346 351 346 c 2,19,-1
EndSplineSet
Validated: 1
Substitution2: "'c2sc' Capitals to Small Capitals lookup 59 subtable" uni044C.sc
Substitution2: "'aalt' Access All Alternates lookup 0 subtable" uni044C.sc
EndChar

StartChar: uni042D
Encoding: 1069 1069 286
Width: 732
GlyphClass: 1
Flags: W
LayerCount: 2
Fore
SplineSet
315 44 m 0,0,1
 411 44 411 44 464.5 115 c 128,-1,2
 518 186 518 186 518 307 c 0,3,4
 518 314 518 314 518 322 c 1,5,-1
 321 322 l 1,6,-1
 263 234 l 1,7,-1
 247 234 l 1,8,-1
 247 465 l 1,9,-1
 263 465 l 1,10,-1
 321 378 l 1,11,-1
 514 378 l 1,12,13
 501 496 501 496 443.5 565 c 128,-1,14
 386 634 386 634 304 634 c 0,15,16
 274 634 274 634 250.5 629 c 128,-1,17
 227 624 227 624 205 608 c 1,18,-1
 105 447 l 1,19,-1
 87 447 l 1,20,-1
 98 638 l 1,21,22
 142 660 142 660 194.5 673 c 128,-1,23
 247 686 247 686 328 686 c 0,24,25
 404 686 404 686 469 660 c 128,-1,26
 534 634 534 634 581.5 587.5 c 128,-1,27
 629 541 629 541 655.5 477.5 c 128,-1,28
 682 414 682 414 682 338 c 0,29,30
 682 238 682 238 636.5 159 c 128,-1,31
 591 80 591 80 511 35 c 128,-1,32
 431 -10 431 -10 328 -10 c 0,33,34
 253 -10 253 -10 190 4 c 128,-1,35
 127 18 127 18 85 43 c 1,36,-1
 71 216 l 1,37,-1
 88 216 l 1,38,-1
 180 80 l 1,39,40
 209 64 209 64 241.5 54 c 128,-1,41
 274 44 274 44 315 44 c 0,0,1
EndSplineSet
Validated: 1
Substitution2: "'c2sc' Capitals to Small Capitals lookup 59 subtable" uni044D.sc
Substitution2: "'aalt' Access All Alternates lookup 0 subtable" uni044D.sc
EndChar

StartChar: uni042E
Encoding: 1070 1070 287
Width: 1117
GlyphClass: 1
Flags: W
LayerCount: 2
Fore
SplineSet
45 0 m 1,0,-1
 45 16 l 1,1,-1
 132 58 l 1,2,-1
 132 617 l 1,3,-1
 45 659 l 1,4,-1
 45 676 l 1,5,-1
 367 676 l 1,6,-1
 367 659 l 1,7,-1
 287 617 l 1,8,-1
 287 376 l 1,9,-1
 382 376 l 1,10,11
 391 467 391 467 437 536.5 c 128,-1,12
 483 606 483 606 557.5 646 c 128,-1,13
 632 686 632 686 723 686 c 0,14,15
 798 686 798 686 860.5 660 c 128,-1,16
 923 634 923 634 969.5 587.5 c 128,-1,17
 1016 541 1016 541 1042 477.5 c 128,-1,18
 1068 414 1068 414 1068 338 c 0,19,20
 1068 263 1068 263 1042 199 c 128,-1,21
 1016 135 1016 135 969.5 88.5 c 128,-1,22
 923 42 923 42 860.5 16 c 128,-1,23
 798 -10 798 -10 723 -10 c 0,24,25
 628 -10 628 -10 552 32.5 c 128,-1,26
 476 75 476 75 430.5 149.5 c 128,-1,27
 385 224 385 224 381 319 c 1,28,-1
 287 319 l 1,29,-1
 287 58 l 1,30,-1
 367 16 l 1,31,-1
 367 0 l 1,32,-1
 45 0 l 1,0,-1
740 43 m 0,33,34
 788 43 788 43 825 75.5 c 128,-1,35
 862 108 862 108 883 167.5 c 128,-1,36
 904 227 904 227 904 307 c 0,37,38
 904 406 904 406 878 479.5 c 128,-1,39
 852 553 852 553 808 593.5 c 128,-1,40
 764 634 764 634 710 634 c 0,41,42
 662 634 662 634 624.5 601.5 c 128,-1,43
 587 569 587 569 565.5 510 c 128,-1,44
 544 451 544 451 544 371 c 0,45,46
 544 272 544 272 570 198 c 128,-1,47
 596 124 596 124 640.5 83.5 c 128,-1,48
 685 43 685 43 740 43 c 0,33,34
EndSplineSet
Validated: 1
Substitution2: "'c2sc' Capitals to Small Capitals lookup 59 subtable" uni044E.sc
Substitution2: "'aalt' Access All Alternates lookup 0 subtable" uni044E.sc
EndChar

StartChar: uni042F
Encoding: 1071 1071 288
Width: 774
GlyphClass: 1
Flags: W
LayerCount: 2
Fore
SplineSet
240 0 m 1,0,-1
 24 0 l 1,1,-1
 24 16 l 1,2,-1
 97 57 l 1,3,-1
 280 318 l 1,4,5
 194 337 194 337 154.5 382 c 128,-1,6
 115 427 115 427 115 484 c 0,7,8
 115 575 115 575 188 625.5 c 128,-1,9
 261 676 261 676 399 676 c 2,10,-1
 729 676 l 1,11,-1
 729 659 l 1,12,-1
 642 617 l 1,13,-1
 642 58 l 1,14,-1
 729 16 l 1,15,-1
 729 0 l 1,16,-1
 409 0 l 1,17,-1
 409 16 l 1,18,-1
 487 59 l 1,19,-1
 487 297 l 1,20,-1
 431 297 l 1,21,-1
 240 0 l 1,0,-1
435 347 m 2,22,-1
 487 347 l 1,23,-1
 487 620 l 1,24,-1
 439 620 l 2,25,26
 357 620 357 620 313.5 585 c 128,-1,27
 270 550 270 550 270 486 c 0,28,29
 270 425 270 425 312 386 c 128,-1,30
 354 347 354 347 435 347 c 2,22,-1
EndSplineSet
Validated: 1
Substitution2: "'c2sc' Capitals to Small Capitals lookup 59 subtable" uni044F.sc
Substitution2: "'aalt' Access All Alternates lookup 0 subtable" uni044F.sc
EndChar

StartChar: uni0490
Encoding: 1168 1168 289
Width: 601
GlyphClass: 1
Flags: W
LayerCount: 2
Fore
SplineSet
45 0 m 1,0,-1
 45 16 l 1,1,-1
 132 58 l 1,2,-1
 132 617 l 1,3,-1
 45 659 l 1,4,-1
 45 676 l 1,5,-1
 478 676 l 1,6,-1
 577 852 l 1,7,-1
 593 852 l 1,8,-1
 593 620 l 1,9,-1
 287 620 l 1,10,-1
 287 58 l 1,11,-1
 391 16 l 1,12,-1
 391 0 l 1,13,-1
 45 0 l 1,0,-1
EndSplineSet
Validated: 1
Substitution2: "'c2sc' Capitals to Small Capitals lookup 59 subtable" uni0491.sc
Substitution2: "'aalt' Access All Alternates lookup 0 subtable" uni0491.sc
EndChar

StartChar: uni049A
Encoding: 1178 1178 290
Width: 796
GlyphClass: 1
Flags: W
LayerCount: 2
Fore
SplineSet
45 0 m 1,0,-1
 45 16 l 1,1,-1
 132 58 l 1,2,-1
 132 617 l 1,3,-1
 45 659 l 1,4,-1
 45 676 l 1,5,-1
 374 676 l 1,6,-1
 374 659 l 1,7,-1
 287 617 l 1,8,-1
 287 58 l 1,9,-1
 374 16 l 1,10,-1
 374 0 l 1,11,-1
 45 0 l 1,0,-1
288 341 m 1,12,-1
 568 623 l 1,13,-1
 492 659 l 1,14,-1
 492 676 l 1,15,-1
 733 676 l 1,16,-1
 733 659 l 1,17,-1
 666 631 l 1,18,-1
 428 402 l 1,19,-1
 705 56 l 1,20,-1
 793 56 l 1,21,-1
 793 -176 l 1,22,-1
 776 -176 l 1,23,-1
 678 0 l 1,24,-1
 557 0 l 1,25,-1
 288 341 l 1,12,-1
EndSplineSet
Validated: 1
Substitution2: "'c2sc' Capitals to Small Capitals lookup 59 subtable" uni049B.sc
Substitution2: "'aalt' Access All Alternates lookup 0 subtable" uni049B.sc
EndChar

StartChar: uni0496
Encoding: 1174 1174 291
Width: 1126
GlyphClass: 1
Flags: W
LayerCount: 2
Fore
SplineSet
400 0 m 1,0,-1
 400 16 l 1,1,-1
 481 58 l 1,2,-1
 481 617 l 1,3,-1
 400 659 l 1,4,-1
 400 676 l 1,5,-1
 718 676 l 1,6,-1
 718 659 l 1,7,-1
 636 617 l 1,8,-1
 636 58 l 1,9,-1
 718 16 l 1,10,-1
 718 0 l 1,11,-1
 400 0 l 1,0,-1
638 341 m 1,12,-1
 902 622 l 1,13,-1
 824 659 l 1,14,-1
 824 676 l 1,15,-1
 1070 676 l 1,16,-1
 1070 659 l 1,17,-1
 988 626 l 1,18,-1
 774 404 l 1,19,-1
 1034 56 l 1,20,-1
 1121 56 l 1,21,-1
 1121 -176 l 1,22,-1
 1105 -176 l 1,23,-1
 1007 0 l 1,24,-1
 889 0 l 1,25,-1
 638 341 l 1,12,-1
480 341 m 1,26,-1
 229 0 l 1,27,-1
 8 0 l 1,28,-1
 8 16 l 1,29,-1
 88 50 l 1,30,-1
 345 395 l 1,31,-1
 120 628 l 1,32,-1
 42 659 l 1,33,-1
 42 676 l 1,34,-1
 293 676 l 1,35,-1
 293 659 l 1,36,-1
 215 622 l 1,37,-1
 480 341 l 1,26,-1
EndSplineSet
Validated: 1
Substitution2: "'c2sc' Capitals to Small Capitals lookup 59 subtable" uni0497.sc
Substitution2: "'aalt' Access All Alternates lookup 0 subtable" uni0497.sc
EndChar

StartChar: uni04B2
Encoding: 1202 1202 292
Width: 795
GlyphClass: 1
Flags: W
LayerCount: 2
Fore
SplineSet
27 0 m 1,0,-1
 27 16 l 1,1,-1
 108 57 l 1,2,-1
 321 318 l 1,3,-1
 106 621 l 1,4,-1
 39 659 l 1,5,-1
 39 676 l 1,6,-1
 377 676 l 1,7,-1
 377 659 l 1,8,-1
 296 620 l 1,9,-1
 296 614 l 1,10,-1
 435 422 l 1,11,-1
 589 614 l 1,12,-1
 589 618 l 1,13,-1
 509 659 l 1,14,-1
 509 676 l 1,15,-1
 750 676 l 1,16,-1
 750 659 l 1,17,-1
 681 624 l 1,18,-1
 472 371 l 1,19,-1
 699 56 l 1,20,-1
 781 56 l 1,21,-1
 781 -176 l 1,22,-1
 765 -176 l 1,23,-1
 667 0 l 1,24,-1
 429 0 l 1,25,-1
 429 16 l 1,26,-1
 503 55 l 1,27,-1
 503 59 l 1,28,-1
 357 266 l 1,29,-1
 193 60 l 1,30,-1
 190 56 l 1,31,-1
 272 16 l 1,32,-1
 272 0 l 1,33,-1
 27 0 l 1,0,-1
EndSplineSet
Validated: 1
Substitution2: "'c2sc' Capitals to Small Capitals lookup 59 subtable" uni04B3.sc
Substitution2: "'aalt' Access All Alternates lookup 0 subtable" uni04B3.sc
EndChar

StartChar: uni04A2
Encoding: 1186 1186 293
Width: 866
GlyphClass: 1
Flags: W
LayerCount: 2
Fore
SplineSet
45 0 m 1,0,-1
 45 16 l 1,1,-1
 132 58 l 1,2,-1
 132 617 l 1,3,-1
 45 659 l 1,4,-1
 45 676 l 1,5,-1
 367 676 l 1,6,-1
 367 659 l 1,7,-1
 287 617 l 1,8,-1
 287 376 l 1,9,-1
 570 376 l 1,10,-1
 570 617 l 1,11,-1
 488 659 l 1,12,-1
 488 676 l 1,13,-1
 811 676 l 1,14,-1
 811 659 l 1,15,-1
 725 617 l 1,16,-1
 725 56 l 1,17,-1
 825 56 l 1,18,-1
 825 -176 l 1,19,-1
 809 -176 l 1,20,-1
 711 0 l 1,21,-1
 488 0 l 1,22,-1
 488 16 l 1,23,-1
 570 58 l 1,24,-1
 570 319 l 1,25,-1
 287 319 l 1,26,-1
 287 58 l 1,27,-1
 367 16 l 1,28,-1
 367 0 l 1,29,-1
 45 0 l 1,0,-1
EndSplineSet
Validated: 1
Substitution2: "'c2sc' Capitals to Small Capitals lookup 59 subtable" uni04A3.sc
Substitution2: "'aalt' Access All Alternates lookup 0 subtable" uni04A3.sc
EndChar

StartChar: uni04B6
Encoding: 1206 1206 294
Width: 808
GlyphClass: 1
Flags: W
LayerCount: 2
Fore
SplineSet
101 500 m 2,0,-1
 101 616 l 1,1,-1
 13 659 l 1,2,-1
 13 676 l 1,3,-1
 336 676 l 1,4,-1
 336 659 l 1,5,-1
 256 616 l 1,6,-1
 256 494 l 2,7,8
 256 408 256 408 288.5 375.5 c 128,-1,9
 321 343 321 343 395 343 c 0,10,11
 424 343 424 343 454.5 347.5 c 128,-1,12
 485 352 485 352 513 365 c 1,13,-1
 513 616 l 1,14,-1
 432 659 l 1,15,-1
 432 676 l 1,16,-1
 754 676 l 1,17,-1
 754 659 l 1,18,-1
 668 616 l 1,19,-1
 668 56 l 1,20,-1
 769 56 l 1,21,-1
 769 -176 l 1,22,-1
 753 -176 l 1,23,-1
 653 0 l 1,24,-1
 415 0 l 1,25,-1
 415 16 l 1,26,-1
 513 58 l 1,27,-1
 513 310 l 1,28,29
 478 295 478 295 431.5 284.5 c 128,-1,30
 385 274 385 274 331 274 c 0,31,32
 259 274 259 274 208 293.5 c 128,-1,33
 157 313 157 313 129 362.5 c 128,-1,34
 101 412 101 412 101 500 c 2,0,-1
EndSplineSet
Validated: 1
Substitution2: "'c2sc' Capitals to Small Capitals lookup 59 subtable" uni04B7.sc
Substitution2: "'aalt' Access All Alternates lookup 0 subtable" uni04B7.sc
EndChar

StartChar: uni04B0
Encoding: 1200 1200 296
Width: 772
GlyphClass: 1
Flags: W
LayerCount: 2
Fore
SplineSet
221 0 m 1,0,-1
 221 16 l 1,1,-1
 313 58 l 1,2,-1
 313 261 l 1,3,-1
 167 261 l 1,4,-1
 167 315 l 1,5,-1
 313 315 l 1,6,-1
 89 621 l 1,7,-1
 20 659 l 1,8,-1
 20 676 l 1,9,-1
 337 676 l 1,10,-1
 337 659 l 1,11,-1
 260 622 l 1,12,-1
 260 617 l 1,13,-1
 438 376 l 1,14,-1
 598 615 l 1,15,-1
 598 620 l 1,16,-1
 519 659 l 1,17,-1
 519 676 l 1,18,-1
 753 676 l 1,19,-1
 753 659 l 1,20,-1
 684 626 l 1,21,-1
 468 316 l 1,22,-1
 468 315 l 1,23,-1
 613 315 l 1,24,-1
 613 261 l 1,25,-1
 468 261 l 1,26,-1
 468 58 l 1,27,-1
 559 16 l 1,28,-1
 559 0 l 1,29,-1
 221 0 l 1,0,-1
EndSplineSet
Validated: 1
Substitution2: "'c2sc' Capitals to Small Capitals lookup 59 subtable" uni04B1.sc
Substitution2: "'aalt' Access All Alternates lookup 0 subtable" uni04B1.sc
EndChar

StartChar: uni04BA
Encoding: 1210 1210 297
Width: 798
GlyphClass: 1
Flags: W
LayerCount: 2
Fore
SplineSet
697 176 m 2,0,-1
 697 59 l 1,1,-1
 785 16 l 1,2,-1
 785 0 l 1,3,-1
 463 0 l 1,4,-1
 463 16 l 1,5,-1
 543 59 l 1,6,-1
 543 182 l 2,7,8
 543 268 543 268 510.5 300.5 c 128,-1,9
 478 333 478 333 403 333 c 0,10,11
 374 333 374 333 343.5 328.5 c 128,-1,12
 313 324 313 324 286 311 c 1,13,-1
 286 59 l 1,14,-1
 367 16 l 1,15,-1
 367 0 l 1,16,-1
 45 0 l 1,17,-1
 45 16 l 1,18,-1
 131 59 l 1,19,-1
 131 617 l 1,20,-1
 45 659 l 1,21,-1
 45 676 l 1,22,-1
 384 676 l 1,23,-1
 384 659 l 1,24,-1
 286 617 l 1,25,-1
 286 366 l 1,26,27
 321 381 321 381 367.5 391.5 c 128,-1,28
 414 402 414 402 468 402 c 0,29,30
 540 402 540 402 591 382 c 128,-1,31
 642 362 642 362 669.5 313 c 128,-1,32
 697 264 697 264 697 176 c 2,0,-1
EndSplineSet
Validated: 1
Substitution2: "'c2sc' Capitals to Small Capitals lookup 59 subtable" uni04BB.sc
Substitution2: "'aalt' Access All Alternates lookup 0 subtable" uni04BB.sc
EndChar

StartChar: uni04E8
Encoding: 1256 1256 300
Width: 807
GlyphClass: 1
Flags: W
LayerCount: 2
Fore
SplineSet
403 -10 m 256,0,1
 327 -10 327 -10 263 16 c 128,-1,2
 199 42 199 42 151 88.5 c 128,-1,3
 103 135 103 135 76.5 199 c 128,-1,4
 50 263 50 263 50 338 c 0,5,6
 50 414 50 414 76.5 477.5 c 128,-1,7
 103 541 103 541 151 587.5 c 128,-1,8
 199 634 199 634 263.5 660 c 128,-1,9
 328 686 328 686 403 686 c 256,10,11
 479 686 479 686 544 660 c 128,-1,12
 609 634 609 634 657 587.5 c 128,-1,13
 705 541 705 541 731.5 477.5 c 128,-1,14
 758 414 758 414 758 338 c 0,15,16
 758 263 758 263 731.5 199 c 128,-1,17
 705 135 705 135 657 88.5 c 128,-1,18
 609 42 609 42 544 16 c 128,-1,19
 479 -10 479 -10 403 -10 c 256,0,1
390 634 m 0,20,21
 339 634 339 634 299 601.5 c 128,-1,22
 259 569 259 569 236 511.5 c 128,-1,23
 213 454 213 454 213 376 c 1,24,-1
 591 376 l 1,25,26
 582 455 582 455 553 513 c 128,-1,27
 524 571 524 571 482 602.5 c 128,-1,28
 440 634 440 634 390 634 c 0,20,21
420 43 m 256,29,30
 472 43 472 43 511 75.5 c 128,-1,31
 550 108 550 108 572.5 167.5 c 128,-1,32
 595 227 595 227 595 307 c 0,33,34
 594 315 594 315 594 322 c 1,35,-1
 215 322 l 1,36,37
 222 237 222 237 251 174.5 c 128,-1,38
 280 112 280 112 324 77.5 c 128,-1,39
 368 43 368 43 420 43 c 256,29,30
EndSplineSet
Validated: 1
Substitution2: "'c2sc' Capitals to Small Capitals lookup 59 subtable" uni04E9.sc
Substitution2: "'aalt' Access All Alternates lookup 0 subtable" uni04E9.sc
EndChar

StartChar: uni0462
Encoding: 1122 1122 301
Width: 784
GlyphClass: 1
Flags: W
LayerCount: 2
Fore
SplineSet
468 0 m 2,0,-1
 129 0 l 1,1,-1
 129 16 l 1,2,-1
 216 58 l 1,3,-1
 216 505 l 1,4,-1
 121 505 l 1,5,-1
 39 384 l 1,6,-1
 23 384 l 1,7,-1
 23 561 l 1,8,-1
 216 561 l 1,9,-1
 216 617 l 1,10,-1
 129 659 l 1,11,-1
 129 676 l 1,12,-1
 470 676 l 1,13,-1
 470 659 l 1,14,-1
 371 617 l 1,15,-1
 371 561 l 1,16,-1
 595 561 l 1,17,-1
 595 384 l 1,18,-1
 579 384 l 1,19,-1
 497 505 l 1,20,-1
 371 505 l 1,21,-1
 371 349 l 1,22,-1
 469 349 l 2,23,24
 554 349 554 349 619.5 329 c 128,-1,25
 685 309 685 309 722 271 c 128,-1,26
 759 233 759 233 759 181 c 0,27,28
 759 126 759 126 722 85.5 c 128,-1,29
 685 45 685 45 619.5 22.5 c 128,-1,30
 554 0 554 0 468 0 c 2,0,-1
435 293 m 2,31,-1
 371 293 l 1,32,-1
 371 56 l 1,33,-1
 442 56 l 2,34,35
 519 56 519 56 560 90.5 c 128,-1,36
 601 125 601 125 601 176 c 0,37,38
 601 293 601 293 435 293 c 2,31,-1
EndSplineSet
Validated: 1
Substitution2: "'c2sc' Capitals to Small Capitals lookup 59 subtable" uni0463.sc
Substitution2: "'aalt' Access All Alternates lookup 0 subtable" uni0463.sc
EndChar

StartChar: uni0472
Encoding: 1138 1138 302
Width: 807
GlyphClass: 1
Flags: W
LayerCount: 2
Fore
SplineSet
403 -10 m 256,1,2
 327 -10 327 -10 263 16 c 128,-1,3
 199 42 199 42 151 88.5 c 128,-1,4
 103 135 103 135 76.5 199 c 128,-1,5
 50 263 50 263 50 338 c 0,6,7
 50 414 50 414 76.5 477.5 c 128,-1,8
 103 541 103 541 151 587.5 c 128,-1,9
 199 634 199 634 263.5 660 c 128,-1,10
 328 686 328 686 403 686 c 256,11,12
 479 686 479 686 544 660 c 128,-1,13
 609 634 609 634 657 587.5 c 128,-1,14
 705 541 705 541 731.5 477.5 c 128,-1,15
 758 414 758 414 758 338 c 0,16,17
 758 263 758 263 731.5 199 c 128,-1,18
 705 135 705 135 657 88.5 c 128,-1,19
 609 42 609 42 544 16 c 128,-1,20
 479 -10 479 -10 403 -10 c 256,1,2
213 371 m 2,21,22
 213 371 213 371 213 369.5 c 128,-1,23
 213 368 213 368 213 358 c 1,24,25
 270 390 270 390 316 398 c 0,26,27
 338 402 338 402 359 402 c 0,28,29
 381 402 381 402 401 398 c 0,30,31
 440 390 440 390 474 378 c 0,32,33
 508 368 508 368 536 362 c 0,34,35
 544 360 544 360 552 360 c 0,36,37
 572 360 572 360 591 370 c 1,38,39
 583 451 583 451 554.5 510 c 128,-1,40
 526 569 526 569 483.5 601.5 c 128,-1,41
 441 634 441 634 390 634 c 256,42,43
 339 634 339 634 299 601.5 c 128,-1,44
 259 569 259 569 236 510 c 128,-1,45
 213 451 213 451 213 371 c 2,21,22
420 43 m 0,46,47
 472 43 472 43 511 75.5 c 128,-1,48
 550 108 550 108 572.5 167.5 c 128,-1,49
 595 227 595 227 595 307 c 0,50,51
 595 315 595 315 594 324 c 1,52,53
 542 288 542 288 500 280 c 0,54,55
 481 277 481 277 463 277 c 0,56,57
 441 277 441 277 421 282 c 0,58,59
 384 291 384 291 350 303 c 0,60,61
 316 314 316 314 284 320 c 0,62,63
 275 321 275 321 267 322 c 0,64,65
 243 322 243 322 216 311 c 1,66,67
 224 229 224 229 253 169 c 128,-1,68
 282 109 282 109 325.5 76 c 128,-1,69
 369 43 369 43 420 43 c 0,46,47
EndSplineSet
Validated: 1
Substitution2: "'c2sc' Capitals to Small Capitals lookup 59 subtable" uni0473.sc
Substitution2: "'aalt' Access All Alternates lookup 0 subtable" uni0473.sc
EndChar

StartChar: uni0474
Encoding: 1140 1140 303
Width: 772
GlyphClass: 1
Flags: W
LayerCount: 2
Fore
SplineSet
553 489 m 2,0,1
 585 568 585 568 610.5 610.5 c 128,-1,2
 636 653 636 653 662.5 669.5 c 128,-1,3
 689 686 689 686 723 686 c 0,4,5
 752 686 752 686 764 675 c 128,-1,6
 776 664 776 664 776 638 c 2,7,-1
 776 571 l 1,8,-1
 681 571 l 1,9,10
 659 553 659 553 643 524 c 128,-1,11
 627 495 627 495 605 441 c 2,12,-1
 424 -5 l 1,13,-1
 365 -5 l 1,14,-1
 92 620 l 1,15,-1
 19 659 l 1,16,-1
 19 676 l 1,17,-1
 339 676 l 1,18,-1
 339 659 l 1,19,-1
 256 621 l 1,20,-1
 435 207 l 1,21,-1
 441 207 l 1,22,-1
 553 489 l 2,0,1
EndSplineSet
Validated: 1
Substitution2: "'c2sc' Capitals to Small Capitals lookup 59 subtable" uni0475.sc
Substitution2: "'aalt' Access All Alternates lookup 0 subtable" uni0475.sc
EndChar

StartChar: uni0414.bgr
Encoding: 65538 -1 304
Width: 735
GlyphClass: 1
Flags: W
LayerCount: 2
Fore
SplineSet
2 56 m 1,0,-1
 77 56 l 1,1,-1
 340 681 l 1,2,-1
 399 681 l 1,3,-1
 659 56 l 1,4,-1
 734 56 l 1,5,-1
 734 -176 l 1,6,-1
 718 -176 l 1,7,-1
 618 0 l 1,8,-1
 117 0 l 1,9,-1
 18 -176 l 1,10,-1
 2 -176 l 1,11,-1
 2 56 l 1,0,-1
151 56 m 1,12,-1
 496 56 l 1,13,-1
 327 471 l 1,14,-1
 318 471 l 1,15,-1
 151 56 l 1,12,-1
EndSplineSet
Validated: 1
Substitution2: "'c2sc' Capitals to Small Capitals lookup 59 subtable" uni0434.bgr.sc
Substitution2: "'aalt' Access All Alternates lookup 0 subtable" uni0434.bgr.sc
EndChar

StartChar: uni041B.bgr
Encoding: 65541 -1 307
Width: 781
GlyphClass: 1
Flags: W
LayerCount: 2
Fore
SplineSet
417 681 m 1,0,-1
 689 56 l 1,1,-1
 762 16 l 1,2,-1
 762 0 l 1,3,-1
 442 0 l 1,4,-1
 442 16 l 1,5,-1
 525 55 l 1,6,-1
 343 475 l 1,7,-1
 337 475 l 1,8,-1
 155 55 l 1,9,-1
 239 16 l 1,10,-1
 239 0 l 1,11,-1
 19 0 l 1,12,-1
 19 16 l 1,13,-1
 79 49 l 1,14,-1
 357 681 l 1,15,-1
 417 681 l 1,0,-1
EndSplineSet
Validated: 1
Substitution2: "'c2sc' Capitals to Small Capitals lookup 59 subtable" uni043B.bgr.sc
Substitution2: "'aalt' Access All Alternates lookup 0 subtable" uni043B.bgr.sc
EndChar

StartChar: a
Encoding: 97 97 308
Width: 527
GlyphClass: 2
Flags: W
AnchorPoint: "Anchor-3" 251 522 basechar 0
AnchorPoint: "Anchor-2" 447 0 basechar 0
AnchorPoint: "Anchor-0" 250 0 basechar 0
LayerCount: 2
Fore
SplineSet
155 -9 m 0,0,1
 101 -9 101 -9 68 23 c 128,-1,2
 35 55 35 55 35 106 c 0,3,4
 35 143 35 143 48 170 c 128,-1,5
 61 197 61 197 96 216.5 c 128,-1,6
 131 236 131 236 195 251 c 2,7,-1
 296 276 l 1,8,-1
 296 340 l 2,9,10
 296 379 296 379 273.5 401.5 c 128,-1,11
 251 424 251 424 215 424 c 0,12,13
 201 424 201 424 187 421.5 c 128,-1,14
 173 419 173 419 159 412 c 1,15,-1
 159 307 l 1,16,-1
 78 307 l 2,17,18
 60 307 60 307 53 316 c 128,-1,19
 46 325 46 325 46 345 c 0,20,21
 46 376 46 376 75.5 406.5 c 128,-1,22
 105 437 105 437 153.5 457 c 128,-1,23
 202 477 202 477 257 477 c 0,24,25
 340 477 340 477 390 444 c 128,-1,26
 440 411 440 411 440 346 c 2,27,-1
 440 76 l 1,28,29
 447 69 447 69 459.5 64 c 128,-1,30
 472 59 472 59 489 59 c 2,31,-1
 519 59 l 1,32,-1
 522 56 l 1,33,-1
 522 42 l 1,34,35
 511 23 511 23 484 6.5 c 128,-1,36
 457 -10 457 -10 414 -10 c 256,37,38
 371 -10 371 -10 343 8.5 c 128,-1,39
 315 27 315 27 302 60 c 1,40,-1
 296 60 l 1,41,42
 267 26 267 26 231.5 8.5 c 128,-1,43
 196 -9 196 -9 155 -9 c 0,0,1
170 137 m 0,44,45
 170 105 170 105 188 89 c 128,-1,46
 206 73 206 73 238 73 c 0,47,48
 266 73 266 73 296 85 c 1,49,-1
 296 236 l 1,50,51
 244 225 244 225 216 211 c 128,-1,52
 188 197 188 197 179 179 c 128,-1,53
 170 161 170 161 170 137 c 0,44,45
EndSplineSet
Validated: 1
Substitution2: "'ss04' Style Set 4 lookup 72 subtable" blacksquare
Substitution2: "'case' Case-Sensitive Forms lookup 61 subtable" A
Substitution2: "'smcp' Lowercase to Small Capitals lookup 60 subtable" a.sc
Substitution2: "'c2sc' Capitals to Small Capitals lookup 59 subtable" a.sc
Substitution2: "'sups' Superscript lookup 53 subtable" a.superior
Substitution2: "Single Substitution lookup 21 subtable" ordfeminine
AlternateSubs2: "'aalt' Access All Alternates lookup 1 subtable" ordfeminine a.superior a.sc A blacksquare
EndChar

StartChar: b
Encoding: 98 98 309
Width: 595
GlyphClass: 1
Flags: W
LayerCount: 2
Fore
SplineSet
92 -4 m 1,0,-1
 92 651 l 1,1,-1
 27 699 l 1,2,-1
 27 712 l 1,3,-1
 223 768 l 1,4,-1
 236 768 l 1,5,-1
 236 417 l 1,6,-1
 242 417 l 1,7,8
 279 449 279 449 313.5 463 c 128,-1,9
 348 477 348 477 389 477 c 0,10,11
 434 477 434 477 473.5 450 c 128,-1,12
 513 423 513 423 536.5 373 c 128,-1,13
 560 323 560 323 560 253 c 0,14,15
 560 171 560 171 527.5 112 c 128,-1,16
 495 53 495 53 440 21.5 c 128,-1,17
 385 -10 385 -10 319 -10 c 0,18,19
 275 -10 275 -10 238.5 -1 c 128,-1,20
 202 8 202 8 170 29 c 1,21,-1
 104 -4 l 1,22,-1
 92 -4 l 1,0,-1
304 393 m 0,23,24
 286 393 286 393 270 388 c 128,-1,25
 254 383 254 383 236 373 c 1,26,-1
 236 77 l 1,27,28
 265 43 265 43 312 43 c 0,29,30
 338 43 338 43 362 59 c 128,-1,31
 386 75 386 75 401.5 115 c 128,-1,32
 417 155 417 155 417 227 c 0,33,34
 417 312 417 312 382 352.5 c 128,-1,35
 347 393 347 393 304 393 c 0,23,24
EndSplineSet
Validated: 1
Substitution2: "'ss04' Style Set 4 lookup 72 subtable" blackdiamond
Substitution2: "'case' Case-Sensitive Forms lookup 61 subtable" B
Substitution2: "'smcp' Lowercase to Small Capitals lookup 60 subtable" b.sc
Substitution2: "'c2sc' Capitals to Small Capitals lookup 59 subtable" b.sc
Substitution2: "'sups' Superscript lookup 53 subtable" b.superior
AlternateSubs2: "'aalt' Access All Alternates lookup 1 subtable" b.superior b.sc B blackdiamond
EndChar

StartChar: c
Encoding: 99 99 310
Width: 495
GlyphClass: 2
Flags: W
AnchorPoint: "Anchor-3" 276 522 basechar 0
AnchorPoint: "Anchor-0" 274 0 basechar 0
LayerCount: 2
Fore
SplineSet
260 -10 m 0,0,1
 194 -10 194 -10 144 17.5 c 128,-1,2
 94 45 94 45 66.5 95 c 128,-1,3
 39 145 39 145 39 212 c 0,4,5
 39 292 39 292 74 351.5 c 128,-1,6
 109 411 109 411 169 444 c 128,-1,7
 229 477 229 477 306 477 c 0,8,9
 359 477 359 477 393 460 c 128,-1,10
 427 443 427 443 443.5 422 c 128,-1,11
 460 401 460 401 460 388 c 0,12,13
 460 372 460 372 442 359 c 2,14,-1
 399 325 l 1,15,-1
 302 433 l 2,16,17
 297 433 297 433 292 433 c 0,18,19
 237 433 237 433 206.5 385.5 c 128,-1,20
 176 338 176 338 176 268 c 0,21,22
 176 190 176 190 215 145 c 128,-1,23
 254 100 254 100 328 100 c 0,24,25
 357 100 357 100 389.5 107.5 c 128,-1,26
 422 115 422 115 457 132 c 1,27,-1
 460 132 l 1,28,-1
 460 116 l 1,29,30
 434 62 434 62 382.5 26 c 128,-1,31
 331 -10 331 -10 260 -10 c 0,0,1
EndSplineSet
Validated: 1
Substitution2: "'ss04' Style Set 4 lookup 72 subtable" blackcircle
Substitution2: "'case' Case-Sensitive Forms lookup 61 subtable" C
Substitution2: "'smcp' Lowercase to Small Capitals lookup 60 subtable" c.sc
Substitution2: "'c2sc' Capitals to Small Capitals lookup 59 subtable" c.sc
Substitution2: "'sups' Superscript lookup 53 subtable" c.superior
AlternateSubs2: "'aalt' Access All Alternates lookup 1 subtable" c.superior c.sc C blackcircle
EndChar

StartChar: d
Encoding: 100 100 311
Width: 596
GlyphClass: 2
Flags: W
AnchorPoint: "Anchor-2" 627 758 basechar 0
AnchorPoint: "Anchor-0" 297 0 basechar 0
LayerCount: 2
Fore
SplineSet
205 -10 m 0,0,1
 160 -10 160 -10 120.5 15.5 c 128,-1,2
 81 41 81 41 57 88 c 128,-1,3
 33 135 33 135 33 200 c 0,4,5
 33 285 33 285 64 347.5 c 128,-1,6
 95 410 95 410 149.5 443.5 c 128,-1,7
 204 477 204 477 273 477 c 0,8,9
 322 477 322 477 358 468 c 1,10,-1
 358 651 l 1,11,-1
 288 700 l 1,12,-1
 288 712 l 1,13,-1
 489 768 l 1,14,-1
 502 768 l 1,15,-1
 502 46 l 1,16,-1
 573 16 l 1,17,-1
 573 0 l 1,18,-1
 369 0 l 1,19,-1
 359 51 l 1,20,-1
 353 51 l 1,21,22
 281 -10 281 -10 205 -10 c 0,0,1
177 231 m 0,23,24
 177 150 177 150 212 112 c 128,-1,25
 247 74 247 74 290 74 c 0,26,27
 308 74 308 74 324 79 c 128,-1,28
 340 84 340 84 358 94 c 1,29,-1
 358 391 l 1,30,31
 344 406 344 406 327 414.5 c 128,-1,32
 310 423 310 423 289 423 c 0,33,34
 259 423 259 423 233.5 406.5 c 128,-1,35
 208 390 208 390 192.5 348.5 c 128,-1,36
 177 307 177 307 177 231 c 0,23,24
EndSplineSet
Validated: 1
Substitution2: "'ss04' Style Set 4 lookup 72 subtable" blacktriangle
Substitution2: "'case' Case-Sensitive Forms lookup 61 subtable" D
Substitution2: "'smcp' Lowercase to Small Capitals lookup 60 subtable" d.sc
Substitution2: "'c2sc' Capitals to Small Capitals lookup 59 subtable" d.sc
Substitution2: "'sups' Superscript lookup 53 subtable" d.superior
AlternateSubs2: "'aalt' Access All Alternates lookup 1 subtable" d.superior d.sc D blacktriangle
EndChar

StartChar: e
Encoding: 101 101 312
Width: 507
GlyphClass: 2
Flags: W
AnchorPoint: "Anchor-3" 272 522 basechar 0
AnchorPoint: "Anchor-2" 392 0 basechar 0
AnchorPoint: "Anchor-0" 280 0 basechar 0
LayerCount: 2
Fore
SplineSet
266 -10 m 0,0,1
 161 -10 161 -10 100 51 c 128,-1,2
 39 112 39 112 39 212 c 0,3,4
 39 290 39 290 72.5 350 c 128,-1,5
 106 410 106 410 164 443.5 c 128,-1,6
 222 477 222 477 292 477 c 0,7,8
 375 477 375 477 421 422 c 128,-1,9
 467 367 467 367 468 265 c 1,10,-1
 464 260 l 1,11,-1
 177 260 l 1,12,-1
 177 255 l 2,13,14
 177 212 177 212 193.5 176.5 c 128,-1,15
 210 141 210 141 245 120.5 c 128,-1,16
 280 100 280 100 337 100 c 0,17,18
 366 100 366 100 398.5 107.5 c 128,-1,19
 431 115 431 115 466 132 c 1,20,-1
 469 132 l 1,21,-1
 469 116 l 1,22,23
 443 62 443 62 390.5 26 c 128,-1,24
 338 -10 338 -10 266 -10 c 0,0,1
268 431 m 0,25,26
 232 431 232 431 209.5 398.5 c 128,-1,27
 187 366 187 366 180 306 c 1,28,-1
 353 306 l 1,29,30
 346 377 346 377 324.5 404 c 128,-1,31
 303 431 303 431 268 431 c 0,25,26
EndSplineSet
Validated: 1
Substitution2: "'case' Case-Sensitive Forms lookup 61 subtable" E
Substitution2: "'smcp' Lowercase to Small Capitals lookup 60 subtable" e.sc
Substitution2: "'c2sc' Capitals to Small Capitals lookup 59 subtable" e.sc
Substitution2: "'sups' Superscript lookup 53 subtable" e.superior
AlternateSubs2: "'aalt' Access All Alternates lookup 1 subtable" e.superior e.sc E
EndChar

StartChar: f
Encoding: 102 102 313
Width: 379
GlyphClass: 1
Flags: W
LayerCount: 2
Fore
SplineSet
37 0 m 1,0,-1
 37 16 l 1,1,-1
 105 49 l 1,2,-1
 105 421 l 1,3,-1
 28 421 l 1,4,-1
 28 467 l 1,5,-1
 105 467 l 1,6,-1
 105 492 l 2,7,8
 105 535 105 535 130.5 583 c 128,-1,9
 156 631 156 631 196.5 673 c 128,-1,10
 237 715 237 715 284 741.5 c 128,-1,11
 331 768 331 768 375 768 c 0,12,13
 404 768 404 768 416 757 c 128,-1,14
 428 746 428 746 428 730 c 0,15,16
 428 727 428 727 427 721.5 c 128,-1,17
 426 716 426 716 425 712 c 2,18,-1
 413 655 l 1,19,-1
 286 690 l 1,20,21
 269 667 269 667 259.5 628.5 c 128,-1,22
 250 590 250 590 250 526 c 2,23,-1
 250 467 l 1,24,-1
 371 467 l 1,25,-1
 371 421 l 1,26,-1
 250 421 l 1,27,-1
 250 48 l 1,28,-1
 329 16 l 1,29,-1
 329 0 l 1,30,-1
 37 0 l 1,0,-1
EndSplineSet
Validated: 1
Substitution2: "'case' Case-Sensitive Forms lookup 61 subtable" F
Substitution2: "'smcp' Lowercase to Small Capitals lookup 60 subtable" f.sc
Substitution2: "'c2sc' Capitals to Small Capitals lookup 59 subtable" f.sc
Substitution2: "'sups' Superscript lookup 53 subtable" f.superior
AlternateSubs2: "'aalt' Access All Alternates lookup 1 subtable" f.superior f.sc F
EndChar

StartChar: g
Encoding: 103 103 314
Width: 553
GlyphClass: 2
Flags: W
AnchorPoint: "Anchor-3" 264 522 basechar 0
LayerCount: 2
Fore
SplineSet
252 168 m 0,0,1
 220 168 220 168 190 176 c 1,2,3
 170 164 170 164 162.5 150 c 128,-1,4
 155 136 155 136 155 123 c 0,5,6
 155 105 155 105 174 94.5 c 128,-1,7
 193 84 193 84 233 84 c 2,8,-1
 350 84 l 2,9,10
 430 84 430 84 468.5 48 c 128,-1,11
 507 12 507 12 507 -56 c 0,12,13
 507 -103 507 -103 477 -146.5 c 128,-1,14
 447 -190 447 -190 390.5 -218 c 128,-1,15
 334 -246 334 -246 252 -246 c 0,16,17
 157 -246 157 -246 111.5 -209 c 128,-1,18
 66 -172 66 -172 66 -117 c 0,19,20
 66 -94 66 -94 76 -73 c 1,21,-1
 139 -30 l 1,22,-1
 139 -27 l 1,23,24
 66 0 66 0 66 76 c 0,25,26
 66 77 66 77 66 78 c 0,27,28
 66 94 66 94 69 109.5 c 128,-1,29
 72 125 72 125 77 139 c 1,30,-1
 155 190 l 1,31,32
 115 209 115 209 91.5 244.5 c 128,-1,33
 68 280 68 280 68 323 c 256,34,35
 68 366 68 366 92.5 401 c 128,-1,36
 117 436 117 436 158.5 456 c 128,-1,37
 200 476 200 476 252 476 c 0,38,39
 281 476 281 476 308 470 c 128,-1,40
 335 464 335 464 350 455 c 1,41,-1
 510 466 l 1,42,-1
 510 404 l 1,43,-1
 398 413 l 1,44,-1
 397 412 l 1,45,46
 414 396 414 396 425 372 c 128,-1,47
 436 348 436 348 436 323 c 0,48,49
 436 279 436 279 412 243.5 c 128,-1,50
 388 208 388 208 346 188 c 128,-1,51
 304 168 304 168 252 168 c 0,0,1
258 211 m 0,52,53
 287 211 287 211 302 240.5 c 128,-1,54
 317 270 317 270 317 319 c 0,55,56
 317 374 317 374 298.5 404 c 128,-1,57
 280 434 280 434 250 434 c 0,58,59
 221 434 221 434 204 407 c 128,-1,60
 187 380 187 380 187 326 c 0,61,62
 187 270 187 270 206.5 240.5 c 128,-1,63
 226 211 226 211 258 211 c 0,52,53
152 -92 m 0,64,65
 152 -143 152 -143 183 -175.5 c 128,-1,66
 214 -208 214 -208 266 -208 c 0,67,68
 323 -208 323 -208 356.5 -179.5 c 128,-1,69
 390 -151 390 -151 390 -110 c 0,70,71
 390 -74 390 -74 371 -56 c 128,-1,72
 352 -38 352 -38 299 -38 c 2,73,-1
 210 -38 l 2,74,75
 199 -38 199 -38 187 -37 c 1,76,77
 168 -44 168 -44 160 -58.5 c 128,-1,78
 152 -73 152 -73 152 -92 c 0,64,65
EndSplineSet
Validated: 1
Substitution2: "'case' Case-Sensitive Forms lookup 61 subtable" G
Substitution2: "'smcp' Lowercase to Small Capitals lookup 60 subtable" g.sc
Substitution2: "'c2sc' Capitals to Small Capitals lookup 59 subtable" g.sc
Substitution2: "'sups' Superscript lookup 53 subtable" g.superior
AlternateSubs2: "'aalt' Access All Alternates lookup 1 subtable" g.superior g.sc G
EndChar

StartChar: h
Encoding: 104 104 315
Width: 632
GlyphClass: 2
Flags: W
AnchorPoint: "Anchor-3" 322 783 basechar 0
AnchorPoint: "Anchor-0" 322 0 basechar 0
LayerCount: 2
Fore
SplineSet
32 0 m 1,0,-1
 32 16 l 1,1,-1
 100 49 l 1,2,-1
 100 651 l 1,3,-1
 35 699 l 1,4,-1
 35 712 l 1,5,-1
 231 768 l 1,6,-1
 244 768 l 1,7,-1
 244 401 l 1,8,-1
 248 401 l 1,9,10
 285 437 285 437 319.5 457 c 128,-1,11
 354 477 354 477 401 477 c 0,12,13
 463 477 463 477 503 445.5 c 128,-1,14
 543 414 543 414 543 351 c 2,15,-1
 543 49 l 1,16,-1
 611 16 l 1,17,-1
 611 0 l 1,18,-1
 347 0 l 1,19,-1
 347 16 l 1,20,-1
 398 48 l 1,21,-1
 398 309 l 2,22,23
 398 345 398 345 377.5 364 c 128,-1,24
 357 383 357 383 325 383 c 0,25,26
 306 383 306 383 282.5 376 c 128,-1,27
 259 369 259 369 244 356 c 1,28,-1
 244 48 l 1,29,-1
 296 16 l 1,30,-1
 296 0 l 1,31,-1
 32 0 l 1,0,-1
EndSplineSet
Validated: 1
Substitution2: "'case' Case-Sensitive Forms lookup 61 subtable" H
Substitution2: "'smcp' Lowercase to Small Capitals lookup 60 subtable" h.sc
Substitution2: "'c2sc' Capitals to Small Capitals lookup 59 subtable" h.sc
Substitution2: "'sups' Superscript lookup 53 subtable" h.superior
AlternateSubs2: "'aalt' Access All Alternates lookup 1 subtable" h.superior h.sc H
EndChar

StartChar: i
Encoding: 105 105 316
Width: 340
GlyphClass: 2
Flags: W
AnchorPoint: "Anchor-3" 174 522 basechar 0
AnchorPoint: "Anchor-2" 201 0 basechar 0
AnchorPoint: "Anchor-0" 174 0 basechar 0
LayerCount: 2
Fore
SplineSet
172 579 m 0,0,1
 139 579 139 579 118 600 c 128,-1,2
 97 621 97 621 97 652 c 0,3,4
 97 685 97 685 118 706 c 128,-1,5
 139 727 139 727 172 727 c 0,6,7
 204 727 204 727 225.5 706 c 128,-1,8
 247 685 247 685 247 652 c 0,9,10
 247 620 247 620 225.5 599.5 c 128,-1,11
 204 579 204 579 172 579 c 0,0,1
34 0 m 1,12,-1
 34 16 l 1,13,-1
 102 49 l 1,14,-1
 102 360 l 1,15,-1
 37 409 l 1,16,-1
 37 421 l 1,17,-1
 234 477 l 1,18,-1
 247 477 l 1,19,-1
 247 49 l 1,20,-1
 307 16 l 1,21,-1
 307 0 l 1,22,-1
 34 0 l 1,12,-1
EndSplineSet
Validated: 1
Substitution2: "'case' Case-Sensitive Forms lookup 61 subtable" I
Substitution2: "'smcp' Lowercase to Small Capitals lookup 60 subtable" i.sc
Substitution2: "'c2sc' Capitals to Small Capitals lookup 59 subtable" i.sc
Substitution2: "'sups' Superscript lookup 53 subtable" i.superior
Substitution2: "'locl' Localized Forms in Latin lookup 15 subtable" idotaccent
Substitution2: "'locl' Localized Forms in Latin lookup 10 subtable" idotaccent
Substitution2: "'locl' Localized Forms in Latin lookup 6 subtable" idotaccent
Substitution2: "Single Substitution lookup 3 subtable" idotless
AlternateSubs2: "'aalt' Access All Alternates lookup 1 subtable" idotaccent i.superior i.sc I
EndChar

StartChar: j
Encoding: 106 106 317
Width: 337
GlyphClass: 2
Flags: W
AnchorPoint: "Anchor-3" 173 522 basechar 0
LayerCount: 2
Fore
SplineSet
170 579 m 256,0,1
 137 579 137 579 116 600 c 128,-1,2
 95 621 95 621 95 652 c 0,3,4
 95 685 95 685 116 706 c 128,-1,5
 137 727 137 727 170 727 c 256,6,7
 203 727 203 727 224 706 c 128,-1,8
 245 685 245 685 245 652 c 0,9,10
 245 620 245 620 224 599.5 c 128,-1,11
 203 579 203 579 170 579 c 256,0,1
36 -236 m 1,12,-1
 36 -217 l 1,13,14
 64 -194 64 -194 77.5 -173.5 c 128,-1,15
 91 -153 91 -153 95.5 -126 c 128,-1,16
 100 -99 100 -99 100 -57 c 2,17,-1
 100 360 l 1,18,-1
 36 409 l 1,19,-1
 36 421 l 1,20,-1
 232 477 l 1,21,-1
 245 477 l 1,22,-1
 245 25 l 2,23,24
 245 -37 245 -37 227 -82 c 128,-1,25
 209 -127 209 -127 163.5 -163.5 c 128,-1,26
 118 -200 118 -200 36 -236 c 1,12,-1
EndSplineSet
Validated: 1
Substitution2: "'case' Case-Sensitive Forms lookup 61 subtable" J
Substitution2: "'smcp' Lowercase to Small Capitals lookup 60 subtable" j.sc
Substitution2: "'c2sc' Capitals to Small Capitals lookup 59 subtable" j.sc
Substitution2: "'sups' Superscript lookup 53 subtable" j.superior
Substitution2: "Single Substitution lookup 13 subtable" jacute
Substitution2: "Single Substitution lookup 3 subtable" jdotless
AlternateSubs2: "'aalt' Access All Alternates lookup 1 subtable" jacute j.superior j.sc J
EndChar

StartChar: k
Encoding: 107 107 318
Width: 617
GlyphClass: 2
Flags: W
AnchorPoint: "Anchor-0" 348 0 basechar 0
LayerCount: 2
Fore
SplineSet
32 0 m 1,0,-1
 32 16 l 1,1,-1
 100 49 l 1,2,-1
 100 651 l 1,3,-1
 35 699 l 1,4,-1
 35 712 l 1,5,-1
 231 768 l 1,6,-1
 244 768 l 1,7,-1
 244 267 l 1,8,-1
 397 408 l 1,9,-1
 397 414 l 1,10,-1
 347 451 l 1,11,-1
 347 467 l 1,12,-1
 564 467 l 1,13,-1
 564 451 l 1,14,-1
 499 415 l 1,15,-1
 359 305 l 1,16,-1
 547 51 l 1,17,-1
 612 16 l 1,18,-1
 612 0 l 1,19,-1
 413 0 l 1,20,-1
 381 53 l 1,21,-1
 244 244 l 1,22,-1
 244 48 l 1,23,-1
 310 16 l 1,24,-1
 310 0 l 1,25,-1
 32 0 l 1,0,-1
EndSplineSet
Validated: 1
Substitution2: "'case' Case-Sensitive Forms lookup 61 subtable" K
Substitution2: "'smcp' Lowercase to Small Capitals lookup 60 subtable" k.sc
Substitution2: "'c2sc' Capitals to Small Capitals lookup 59 subtable" k.sc
Substitution2: "'sups' Superscript lookup 53 subtable" k.superior
AlternateSubs2: "'aalt' Access All Alternates lookup 1 subtable" k.superior k.sc K
EndChar

StartChar: l
Encoding: 108 108 319
Width: 333
GlyphClass: 2
Flags: W
AnchorPoint: "Anchor-3" 170 783 basechar 0
AnchorPoint: "Anchor-2" 368 758 basechar 0
AnchorPoint: "Anchor-1" 366 307 basechar 0
AnchorPoint: "Anchor-0" 170 0 basechar 0
LayerCount: 2
Fore
SplineSet
30 0 m 1,0,-1
 30 16 l 1,1,-1
 98 49 l 1,2,-1
 98 651 l 1,3,-1
 33 699 l 1,4,-1
 33 712 l 1,5,-1
 230 768 l 1,6,-1
 243 768 l 1,7,-1
 243 49 l 1,8,-1
 303 16 l 1,9,-1
 303 0 l 1,10,-1
 30 0 l 1,0,-1
EndSplineSet
Validated: 1
Substitution2: "'case' Case-Sensitive Forms lookup 61 subtable" L
Substitution2: "'smcp' Lowercase to Small Capitals lookup 60 subtable" l.sc
Substitution2: "'c2sc' Capitals to Small Capitals lookup 59 subtable" l.sc
Substitution2: "'sups' Superscript lookup 53 subtable" l.superior
AlternateSubs2: "'aalt' Access All Alternates lookup 1 subtable" l.superior l.sc L
EndChar

StartChar: m
Encoding: 109 109 320
Width: 922
GlyphClass: 2
Flags: W
AnchorPoint: "Anchor-0" 464 0 basechar 0
LayerCount: 2
Fore
SplineSet
537 351 m 1,0,-1
 537 49 l 1,1,-1
 588 16 l 1,2,-1
 588 0 l 1,3,-1
 342 0 l 1,4,-1
 342 16 l 1,5,-1
 392 49 l 1,6,-1
 392 309 l 2,7,8
 392 345 392 345 372.5 364 c 128,-1,9
 353 383 353 383 321 383 c 0,10,11
 303 383 303 383 281 376 c 128,-1,12
 259 369 259 369 244 356 c 1,13,-1
 244 49 l 1,14,-1
 293 16 l 1,15,-1
 293 0 l 1,16,-1
 32 0 l 1,17,-1
 32 16 l 1,18,-1
 100 49 l 1,19,-1
 100 360 l 1,20,-1
 35 402 l 1,21,-1
 35 415 l 1,22,-1
 221 477 l 1,23,-1
 233 477 l 1,24,-1
 244 401 l 1,25,-1
 248 401 l 1,26,27
 284 437 284 437 317.5 457 c 128,-1,28
 351 477 351 477 398 477 c 0,29,30
 448 477 448 477 483.5 455.5 c 128,-1,31
 519 434 519 434 531 392 c 1,32,-1
 536 392 l 1,33,34
 575 432 575 432 610 454.5 c 128,-1,35
 645 477 645 477 695 477 c 0,36,37
 755 477 755 477 794.5 445.5 c 128,-1,38
 834 414 834 414 834 351 c 2,39,-1
 834 49 l 1,40,-1
 901 16 l 1,41,-1
 901 0 l 1,42,-1
 637 0 l 1,43,-1
 637 16 l 1,44,-1
 689 49 l 1,45,-1
 689 309 l 2,46,47
 689 345 689 345 669 364 c 128,-1,48
 649 383 649 383 624 383 c 0,49,50
 621 383 621 383 617 383 c 0,51,52
 560 376 560 376 537 351 c 1,0,-1
EndSplineSet
Validated: 1
Substitution2: "'case' Case-Sensitive Forms lookup 61 subtable" M
Substitution2: "'smcp' Lowercase to Small Capitals lookup 60 subtable" m.sc
Substitution2: "'c2sc' Capitals to Small Capitals lookup 59 subtable" m.sc
Substitution2: "'sups' Superscript lookup 53 subtable" m.superior
AlternateSubs2: "'aalt' Access All Alternates lookup 1 subtable" m.superior m.sc M
EndChar

StartChar: n
Encoding: 110 110 321
Width: 632
GlyphClass: 2
Flags: W
AnchorPoint: "Anchor-3" 322 522 basechar 0
AnchorPoint: "Anchor-0" 322 0 basechar 0
LayerCount: 2
Fore
SplineSet
32 0 m 1,0,-1
 32 16 l 1,1,-1
 100 49 l 1,2,-1
 100 360 l 1,3,-1
 35 402 l 1,4,-1
 35 415 l 1,5,-1
 221 477 l 1,6,-1
 233 477 l 1,7,-1
 244 401 l 1,8,-1
 248 401 l 1,9,10
 285 437 285 437 319.5 457 c 128,-1,11
 354 477 354 477 401 477 c 0,12,13
 463 477 463 477 503 445.5 c 128,-1,14
 543 414 543 414 543 351 c 2,15,-1
 543 49 l 1,16,-1
 611 16 l 1,17,-1
 611 0 l 1,18,-1
 347 0 l 1,19,-1
 347 16 l 1,20,-1
 398 49 l 1,21,-1
 398 309 l 2,22,23
 398 345 398 345 377.5 364 c 128,-1,24
 357 383 357 383 325 383 c 0,25,26
 306 383 306 383 282.5 376 c 128,-1,27
 259 369 259 369 244 356 c 1,28,-1
 244 49 l 1,29,-1
 296 16 l 1,30,-1
 296 0 l 1,31,-1
 32 0 l 1,0,-1
EndSplineSet
Validated: 1
Substitution2: "'case' Case-Sensitive Forms lookup 61 subtable" N
Substitution2: "'smcp' Lowercase to Small Capitals lookup 60 subtable" n.sc
Substitution2: "'c2sc' Capitals to Small Capitals lookup 59 subtable" n.sc
Substitution2: "'sups' Superscript lookup 53 subtable" n.superior
AlternateSubs2: "'aalt' Access All Alternates lookup 1 subtable" n.superior n.sc N
EndChar

StartChar: o
Encoding: 111 111 322
Width: 560
GlyphClass: 2
Flags: W
AnchorPoint: "Anchor-3" 279 522 basechar 0
AnchorPoint: "Anchor-2" 321 0 basechar 0
AnchorPoint: "Anchor-0" 283 0 basechar 0
LayerCount: 2
Fore
SplineSet
281 -10 m 256,0,1
 208 -10 208 -10 152.5 23 c 128,-1,2
 97 56 97 56 66.5 111.5 c 128,-1,3
 36 167 36 167 36 233 c 0,4,5
 36 301 36 301 66.5 356.5 c 128,-1,6
 97 412 97 412 152.5 444.5 c 128,-1,7
 208 477 208 477 281 477 c 256,8,9
 354 477 354 477 408.5 444.5 c 128,-1,10
 463 412 463 412 493.5 356.5 c 128,-1,11
 524 301 524 301 524 233 c 0,12,13
 524 166 524 166 493.5 111 c 128,-1,14
 463 56 463 56 408.5 23 c 128,-1,15
 354 -10 354 -10 281 -10 c 256,0,1
292 40 m 0,16,17
 322 40 322 40 340 64 c 128,-1,18
 358 88 358 88 367.5 127.5 c 128,-1,19
 377 167 377 167 377 213 c 0,20,21
 377 269 377 269 366 318.5 c 128,-1,22
 355 368 355 368 331.5 398 c 128,-1,23
 308 428 308 428 271 428 c 0,24,25
 240 428 240 428 221 404 c 128,-1,26
 202 380 202 380 192.5 340.5 c 128,-1,27
 183 301 183 301 183 255 c 0,28,29
 183 199 183 199 194.5 150 c 128,-1,30
 206 101 206 101 230 70.5 c 128,-1,31
 254 40 254 40 292 40 c 0,16,17
EndSplineSet
Validated: 1
Substitution2: "'case' Case-Sensitive Forms lookup 61 subtable" O
Substitution2: "'smcp' Lowercase to Small Capitals lookup 60 subtable" o.sc
Substitution2: "'c2sc' Capitals to Small Capitals lookup 59 subtable" o.sc
Substitution2: "'sups' Superscript lookup 53 subtable" o.superior
Substitution2: "Single Substitution lookup 21 subtable" ordmasculine
AlternateSubs2: "'aalt' Access All Alternates lookup 1 subtable" ordmasculine o.superior o.sc O
EndChar

StartChar: p
Encoding: 112 112 323
Width: 603
GlyphClass: 1
Flags: W
LayerCount: 2
Fore
SplineSet
32 -236 m 1,0,-1
 32 -219 l 1,1,-1
 100 -186 l 1,2,-1
 100 354 l 1,3,-1
 35 402 l 1,4,-1
 35 415 l 1,5,-1
 221 477 l 1,6,-1
 233 477 l 1,7,-1
 242 415 l 1,8,-1
 248 415 l 1,9,10
 286 448 286 448 321 462.5 c 128,-1,11
 356 477 356 477 397 477 c 0,12,13
 442 477 442 477 481.5 450 c 128,-1,14
 521 423 521 423 544.5 373 c 128,-1,15
 568 323 568 323 568 253 c 0,16,17
 568 171 568 171 535.5 112 c 128,-1,18
 503 53 503 53 448.5 21.5 c 128,-1,19
 394 -10 394 -10 331 -10 c 0,20,21
 307 -10 307 -10 285.5 -8 c 128,-1,22
 264 -6 264 -6 244 -1 c 1,23,-1
 244 -186 l 1,24,-1
 324 -219 l 1,25,-1
 324 -236 l 1,26,-1
 32 -236 l 1,0,-1
312 393 m 0,27,28
 294 393 294 393 278 388 c 128,-1,29
 262 383 262 383 244 373 c 1,30,-1
 244 77 l 1,31,32
 274 43 274 43 325 43 c 0,33,34
 350 43 350 43 372.5 58.5 c 128,-1,35
 395 74 395 74 410 113 c 128,-1,36
 425 152 425 152 425 223 c 0,37,38
 425 310 425 310 390 351.5 c 128,-1,39
 355 393 355 393 312 393 c 0,27,28
EndSplineSet
Validated: 1
Substitution2: "'case' Case-Sensitive Forms lookup 61 subtable" P
Substitution2: "'smcp' Lowercase to Small Capitals lookup 60 subtable" p.sc
Substitution2: "'c2sc' Capitals to Small Capitals lookup 59 subtable" p.sc
Substitution2: "'sups' Superscript lookup 53 subtable" p.superior
AlternateSubs2: "'aalt' Access All Alternates lookup 1 subtable" p.superior p.sc P
EndChar

StartChar: q
Encoding: 113 113 324
Width: 593
GlyphClass: 1
Flags: W
LayerCount: 2
Fore
SplineSet
280 -236 m 1,0,-1
 280 -219 l 1,1,-1
 359 -188 l 1,2,-1
 359 49 l 1,3,-1
 353 49 l 1,4,5
 314 17 314 17 279 3.5 c 128,-1,6
 244 -10 244 -10 207 -10 c 0,7,8
 161 -10 161 -10 122 15.5 c 128,-1,9
 83 41 83 41 59 88 c 128,-1,10
 35 135 35 135 35 200 c 0,11,12
 35 285 35 285 67 347.5 c 128,-1,13
 99 410 99 410 155.5 443.5 c 128,-1,14
 212 477 212 477 285 477 c 0,15,16
 322 477 322 477 351 471 c 128,-1,17
 380 465 380 465 409 452 c 1,18,-1
 492 477 l 1,19,-1
 504 477 l 1,20,-1
 504 -186 l 1,21,-1
 571 -219 l 1,22,-1
 571 -236 l 1,23,-1
 280 -236 l 1,0,-1
179 230 m 0,24,25
 179 149 179 149 213.5 111.5 c 128,-1,26
 248 74 248 74 291 74 c 0,27,28
 306 74 306 74 322 78.5 c 128,-1,29
 338 83 338 83 359 94 c 1,30,-1
 359 361 l 2,31,32
 359 383 359 383 357.5 390 c 128,-1,33
 356 397 356 397 350 403 c 0,34,35
 338 413 338 413 321.5 418 c 128,-1,36
 305 423 305 423 287 423 c 0,37,38
 257 423 257 423 232.5 406.5 c 128,-1,39
 208 390 208 390 193.5 348 c 128,-1,40
 179 306 179 306 179 230 c 0,24,25
EndSplineSet
Validated: 1
Substitution2: "'case' Case-Sensitive Forms lookup 61 subtable" Q
Substitution2: "'smcp' Lowercase to Small Capitals lookup 60 subtable" q.sc
Substitution2: "'c2sc' Capitals to Small Capitals lookup 59 subtable" q.sc
Substitution2: "'sups' Superscript lookup 53 subtable" q.superior
AlternateSubs2: "'aalt' Access All Alternates lookup 1 subtable" q.superior q.sc Q
EndChar

StartChar: r
Encoding: 114 114 325
Width: 435
GlyphClass: 2
Flags: W
AnchorPoint: "Anchor-3" 254 522 basechar 0
AnchorPoint: "Anchor-0" 174 0 basechar 0
LayerCount: 2
Fore
SplineSet
34 0 m 1,0,-1
 34 16 l 1,1,-1
 101 49 l 1,2,-1
 101 354 l 1,3,-1
 37 402 l 1,4,-1
 37 415 l 1,5,-1
 223 477 l 1,6,-1
 236 477 l 1,7,-1
 245 382 l 1,8,-1
 250 382 l 1,9,10
 286 435 286 435 315 455.5 c 128,-1,11
 344 476 344 476 376 476 c 0,12,13
 405 476 405 476 419.5 464 c 128,-1,14
 434 452 434 452 434 430 c 0,15,16
 434 424 434 424 431 410 c 2,17,-1
 414 354 l 1,18,-1
 319 379 l 1,19,20
 275 366 275 366 246 329 c 1,21,-1
 246 49 l 1,22,-1
 329 16 l 1,23,-1
 329 0 l 1,24,-1
 34 0 l 1,0,-1
EndSplineSet
Validated: 1
Substitution2: "'case' Case-Sensitive Forms lookup 61 subtable" R
Substitution2: "'smcp' Lowercase to Small Capitals lookup 60 subtable" r.sc
Substitution2: "'c2sc' Capitals to Small Capitals lookup 59 subtable" r.sc
Substitution2: "'sups' Superscript lookup 53 subtable" r.superior
AlternateSubs2: "'aalt' Access All Alternates lookup 1 subtable" r.superior r.sc R
EndChar

StartChar: s
Encoding: 115 115 326
Width: 447
GlyphClass: 2
Flags: W
AnchorPoint: "Anchor-3" 224 522 basechar 0
AnchorPoint: "Anchor-0" 224 0 basechar 0
LayerCount: 2
Fore
SplineSet
214 -10 m 0,0,1
 164 -10 164 -10 126.5 -0.5 c 128,-1,2
 89 9 89 9 53 27 c 1,3,-1
 53 145 l 1,4,-1
 69 145 l 1,5,-1
 104 92 l 2,6,7
 141 36 141 36 210 36 c 0,8,9
 290 36 290 36 290 93 c 0,10,11
 290 115 290 115 279 128 c 128,-1,12
 268 141 268 141 242.5 154 c 128,-1,13
 217 167 217 167 173 184 c 0,14,15
 115 208 115 208 87.5 239.5 c 128,-1,16
 60 271 60 271 60 318 c 0,17,18
 60 362 60 362 83 398 c 128,-1,19
 106 434 106 434 146 455.5 c 128,-1,20
 186 477 186 477 237 477 c 0,21,22
 272 477 272 477 305 470 c 128,-1,23
 338 463 338 463 370 446 c 1,24,-1
 370 325 l 1,25,-1
 354 325 l 1,26,-1
 323 373 l 2,27,28
 303 403 303 403 282.5 417 c 128,-1,29
 262 431 262 431 233 431 c 0,30,31
 202 431 202 431 183.5 415.5 c 128,-1,32
 165 400 165 400 165 373 c 0,33,34
 165 356 165 356 173.5 342.5 c 128,-1,35
 182 329 182 329 204.5 316.5 c 128,-1,36
 227 304 227 304 269 288 c 0,37,38
 298 277 298 277 326.5 262 c 128,-1,39
 355 247 355 247 373.5 220 c 128,-1,40
 392 193 392 193 392 144 c 256,41,42
 392 96 392 96 366.5 61.5 c 128,-1,43
 341 27 341 27 300.5 8.5 c 128,-1,44
 260 -10 260 -10 214 -10 c 0,0,1
EndSplineSet
Validated: 1
Substitution2: "Single Substitution lookup 65 subtable" longs
Substitution2: "'case' Case-Sensitive Forms lookup 61 subtable" S
Substitution2: "'smcp' Lowercase to Small Capitals lookup 60 subtable" s.sc
Substitution2: "'c2sc' Capitals to Small Capitals lookup 59 subtable" s.sc
Substitution2: "'sups' Superscript lookup 53 subtable" s.superior
AlternateSubs2: "'aalt' Access All Alternates lookup 1 subtable" s.superior s.sc S longs
EndChar

StartChar: t
Encoding: 116 116 327
Width: 395
GlyphClass: 2
Flags: W
AnchorPoint: "Anchor-3" 206 625 basechar 0
AnchorPoint: "Anchor-2" 361 758 basechar 0
AnchorPoint: "Anchor-0" 228 0 basechar 0
LayerCount: 2
Fore
SplineSet
226 -10 m 0,0,1
 164 -10 164 -10 124 16.5 c 128,-1,2
 84 43 84 43 84 91 c 2,3,-1
 84 421 l 1,4,-1
 10 421 l 1,5,-1
 10 435 l 1,6,-1
 104 467 l 1,7,-1
 208 580 l 1,8,-1
 228 580 l 1,9,-1
 228 467 l 1,10,-1
 370 467 l 1,11,-1
 370 421 l 1,12,-1
 228 421 l 1,13,-1
 228 118 l 2,14,15
 228 91 228 91 250 79 c 128,-1,16
 272 67 272 67 303 67 c 0,17,18
 322 67 322 67 337 69 c 128,-1,19
 352 71 352 71 367 74 c 1,20,-1
 370 72 l 1,21,-1
 370 54 l 1,22,23
 354 29 354 29 314 9.5 c 128,-1,24
 274 -10 274 -10 226 -10 c 0,0,1
EndSplineSet
Validated: 1
Substitution2: "'case' Case-Sensitive Forms lookup 61 subtable" T
Substitution2: "'smcp' Lowercase to Small Capitals lookup 60 subtable" t.sc
Substitution2: "'c2sc' Capitals to Small Capitals lookup 59 subtable" t.sc
Substitution2: "'sups' Superscript lookup 53 subtable" t.superior
AlternateSubs2: "'aalt' Access All Alternates lookup 1 subtable" t.superior t.sc T
EndChar

StartChar: u
Encoding: 117 117 328
Width: 604
GlyphClass: 2
Flags: W
AnchorPoint: "Anchor-3" 301 522 basechar 0
AnchorPoint: "Anchor-2" 473 0 basechar 0
AnchorPoint: "Anchor-0" 301 0 basechar 0
LayerCount: 2
Fore
SplineSet
223 -10 m 0,0,1
 162 -10 162 -10 122.5 21.5 c 128,-1,2
 83 53 83 53 83 116 c 2,3,-1
 83 418 l 1,4,-1
 15 451 l 1,5,-1
 15 467 l 1,6,-1
 227 467 l 1,7,-1
 227 158 l 2,8,9
 227 122 227 122 247.5 103 c 128,-1,10
 268 84 268 84 300 84 c 0,11,12
 319 84 319 84 341.5 91 c 128,-1,13
 364 98 364 98 378 111 c 1,14,-1
 378 418 l 1,15,-1
 316 451 l 1,16,-1
 316 467 l 1,17,-1
 522 467 l 1,18,-1
 522 48 l 1,19,-1
 587 16 l 1,20,-1
 587 0 l 1,21,-1
 378 0 l 1,22,-1
 378 66 l 1,23,-1
 374 66 l 1,24,25
 338 30 338 30 303.5 10 c 128,-1,26
 269 -10 269 -10 223 -10 c 0,0,1
EndSplineSet
Validated: 1
Substitution2: "'case' Case-Sensitive Forms lookup 61 subtable" U
Substitution2: "'smcp' Lowercase to Small Capitals lookup 60 subtable" u.sc
Substitution2: "'c2sc' Capitals to Small Capitals lookup 59 subtable" u.sc
Substitution2: "'sups' Superscript lookup 53 subtable" u.superior
AlternateSubs2: "'aalt' Access All Alternates lookup 1 subtable" u.superior u.sc U
EndChar

StartChar: v
Encoding: 118 118 329
Width: 487
GlyphClass: 1
Flags: W
LayerCount: 2
Fore
SplineSet
221 0 m 1,0,-1
 27 423 l 1,1,-1
 -37 451 l 1,2,-1
 -37 467 l 1,3,-1
 253 467 l 1,4,-1
 253 451 l 1,5,-1
 182 421 l 1,6,-1
 182 418 l 1,7,-1
 289 189 l 1,8,-1
 293 189 l 1,9,-1
 387 414 l 1,10,-1
 387 418 l 1,11,-1
 323 451 l 1,12,-1
 323 467 l 1,13,-1
 524 467 l 1,14,-1
 524 451 l 1,15,-1
 452 416 l 1,16,-1
 260 0 l 1,17,-1
 221 0 l 1,0,-1
EndSplineSet
Validated: 1
Substitution2: "'case' Case-Sensitive Forms lookup 61 subtable" V
Substitution2: "'smcp' Lowercase to Small Capitals lookup 60 subtable" v.sc
Substitution2: "'c2sc' Capitals to Small Capitals lookup 59 subtable" v.sc
Substitution2: "'sups' Superscript lookup 53 subtable" v.superior
AlternateSubs2: "'aalt' Access All Alternates lookup 1 subtable" v.superior v.sc V
EndChar

StartChar: w
Encoding: 119 119 330
Width: 745
GlyphClass: 2
Flags: W
AnchorPoint: "Anchor-3" 412 522 basechar 0
LayerCount: 2
Fore
SplineSet
196 0 m 1,0,-1
 27 423 l 1,1,-1
 -37 451 l 1,2,-1
 -37 467 l 1,3,-1
 253 467 l 1,4,-1
 253 451 l 1,5,-1
 182 421 l 1,6,-1
 182 418 l 1,7,-1
 268 189 l 1,8,-1
 273 189 l 1,9,-1
 391 467 l 1,10,-1
 430 467 l 1,11,-1
 553 190 l 1,12,-1
 557 190 l 1,13,-1
 645 414 l 1,14,-1
 645 418 l 1,15,-1
 581 451 l 1,16,-1
 581 467 l 1,17,-1
 781 467 l 1,18,-1
 781 451 l 1,19,-1
 710 416 l 1,20,-1
 529 0 l 1,21,-1
 490 0 l 1,22,-1
 365 278 l 1,23,-1
 234 0 l 1,24,-1
 196 0 l 1,0,-1
EndSplineSet
Validated: 1
Substitution2: "'case' Case-Sensitive Forms lookup 61 subtable" W
Substitution2: "'smcp' Lowercase to Small Capitals lookup 60 subtable" w.sc
Substitution2: "'c2sc' Capitals to Small Capitals lookup 59 subtable" w.sc
Substitution2: "'sups' Superscript lookup 53 subtable" w.superior
AlternateSubs2: "'aalt' Access All Alternates lookup 1 subtable" w.superior w.sc W
EndChar

StartChar: x
Encoding: 120 120 331
Width: 562
GlyphClass: 1
Flags: W
LayerCount: 2
Fore
SplineSet
18 0 m 1,0,-1
 18 16 l 1,1,-1
 72 48 l 1,2,-1
 212 215 l 1,3,-1
 65 423 l 1,4,-1
 18 451 l 1,5,-1
 18 467 l 1,6,-1
 297 467 l 1,7,-1
 297 451 l 1,8,-1
 240 424 l 1,9,-1
 240 418 l 1,10,-1
 317 307 l 1,11,-1
 397 412 l 1,12,-1
 397 418 l 1,13,-1
 345 451 l 1,14,-1
 345 467 l 1,15,-1
 528 467 l 1,16,-1
 528 451 l 1,17,-1
 474 419 l 1,18,-1
 345 267 l 1,19,-1
 504 44 l 1,20,-1
 546 16 l 1,21,-1
 546 0 l 1,22,-1
 273 0 l 1,23,-1
 273 16 l 1,24,-1
 330 43 l 1,25,-1
 330 49 l 1,26,-1
 241 175 l 1,27,-1
 152 55 l 1,28,-1
 152 49 l 1,29,-1
 208 16 l 1,30,-1
 208 0 l 1,31,-1
 18 0 l 1,0,-1
EndSplineSet
Validated: 1
Substitution2: "'case' Case-Sensitive Forms lookup 61 subtable" X
Substitution2: "'smcp' Lowercase to Small Capitals lookup 60 subtable" x.sc
Substitution2: "'c2sc' Capitals to Small Capitals lookup 59 subtable" x.sc
Substitution2: "'sups' Superscript lookup 53 subtable" x.superior
AlternateSubs2: "'aalt' Access All Alternates lookup 1 subtable" x.superior x.sc X
EndChar

StartChar: y
Encoding: 121 121 332
Width: 487
GlyphClass: 2
Flags: W
AnchorPoint: "Anchor-3" 287 522 basechar 0
AnchorPoint: "Anchor-0" 337 -17 basechar 0
LayerCount: 2
Fore
SplineSet
-37 467 m 1,0,-1
 246 467 l 1,1,-1
 246 451 l 1,2,-1
 182 421 l 1,3,-1
 182 418 l 1,4,-1
 295 181 l 1,5,-1
 302 181 l 1,6,-1
 389 414 l 1,7,-1
 389 418 l 1,8,-1
 329 451 l 1,9,-1
 329 467 l 1,10,-1
 524 467 l 1,11,-1
 524 451 l 1,12,-1
 452 417 l 1,13,-1
 237 -106 l 2,14,15
 213 -163 213 -163 192.5 -193.5 c 128,-1,16
 172 -224 172 -224 148.5 -235.5 c 128,-1,17
 125 -247 125 -247 92 -247 c 0,18,19
 68 -247 68 -247 59 -238.5 c 128,-1,20
 50 -230 50 -230 50 -206 c 2,21,-1
 50 -141 l 1,22,-1
 161 -141 l 1,23,24
 175 -124 175 -124 188.5 -99 c 128,-1,25
 202 -74 202 -74 219 -31 c 2,26,-1
 230 -3 l 1,27,-1
 27 423 l 1,28,-1
 -37 451 l 1,29,-1
 -37 467 l 1,0,-1
EndSplineSet
Validated: 1
Substitution2: "'case' Case-Sensitive Forms lookup 61 subtable" Y
Substitution2: "'smcp' Lowercase to Small Capitals lookup 60 subtable" y.sc
Substitution2: "'c2sc' Capitals to Small Capitals lookup 59 subtable" y.sc
Substitution2: "'sups' Superscript lookup 53 subtable" y.superior
AlternateSubs2: "'aalt' Access All Alternates lookup 1 subtable" y.superior y.sc Y
EndChar

StartChar: z
Encoding: 122 122 333
Width: 514
GlyphClass: 2
Flags: W
AnchorPoint: "Anchor-3" 264 522 basechar 0
AnchorPoint: "Anchor-0" 264 0 basechar 0
LayerCount: 2
Fore
SplineSet
53 0 m 1,0,-1
 53 20 l 1,1,-1
 274 419 l 1,2,-1
 127 419 l 1,3,-1
 72 307 l 1,4,-1
 52 307 l 1,5,-1
 63 477 l 1,6,-1
 69 477 l 2,7,8
 83 474 83 474 103.5 470.5 c 128,-1,9
 124 467 124 467 142 467 c 2,10,-1
 451 467 l 1,11,-1
 451 446 l 1,12,-1
 230 48 l 1,13,-1
 392 48 l 1,14,-1
 439 167 l 1,15,-1
 459 167 l 1,16,-1
 459 0 l 1,17,-1
 53 0 l 1,0,-1
EndSplineSet
Validated: 1
Substitution2: "'case' Case-Sensitive Forms lookup 61 subtable" Z
Substitution2: "'smcp' Lowercase to Small Capitals lookup 60 subtable" z.sc
Substitution2: "'c2sc' Capitals to Small Capitals lookup 59 subtable" z.sc
Substitution2: "'sups' Superscript lookup 53 subtable" z.superior
AlternateSubs2: "'aalt' Access All Alternates lookup 1 subtable" z.superior z.sc Z
EndChar

StartChar: aogonek
Encoding: 261 261 344
Width: 527
GlyphClass: 1
Flags: W
LayerCount: 2
Fore
SplineSet
155 -9 m 0,0,1
 101 -9 101 -9 68 23 c 128,-1,2
 35 55 35 55 35 106 c 0,3,4
 35 143 35 143 48 170 c 128,-1,5
 61 197 61 197 96 216.5 c 128,-1,6
 131 236 131 236 195 251 c 2,7,-1
 296 276 l 1,8,-1
 296 340 l 2,9,10
 296 379 296 379 273.5 401.5 c 128,-1,11
 251 424 251 424 215 424 c 0,12,13
 201 424 201 424 187 421.5 c 128,-1,14
 173 419 173 419 159 412 c 1,15,-1
 159 307 l 1,16,-1
 78 307 l 2,17,18
 60 307 60 307 53 316 c 128,-1,19
 46 325 46 325 46 345 c 0,20,21
 46 376 46 376 75.5 406.5 c 128,-1,22
 105 437 105 437 153.5 457 c 128,-1,23
 202 477 202 477 257 477 c 0,24,25
 340 477 340 477 390 444 c 128,-1,26
 440 411 440 411 440 346 c 2,27,-1
 440 76 l 1,28,29
 447 69 447 69 459.5 64 c 128,-1,30
 472 59 472 59 489 59 c 2,31,-1
 519 59 l 1,32,-1
 522 56 l 1,33,-1
 522 42 l 1,34,35
 513 27 513 27 494 13 c 128,-1,36
 475 -1 475 -1 446 -7 c 1,37,38
 410 -72 410 -72 410 -127 c 0,39,40
 410 -128 410 -128 410 -130 c 0,41,42
 410 -192 410 -192 469 -193 c 0,43,44
 481 -193 481 -193 494 -188.5 c 128,-1,45
 507 -184 507 -184 518 -176 c 1,46,-1
 521 -176 l 1,47,-1
 521 -196 l 1,48,49
 494 -246 494 -246 429 -246 c 0,50,51
 383 -246 383 -246 355 -221 c 128,-1,52
 327 -196 327 -196 327 -154 c 0,53,54
 327 -119 327 -119 348 -84 c 128,-1,55
 369 -49 369 -49 406 -10 c 1,56,57
 366 -8 366 -8 340.5 10.5 c 128,-1,58
 315 29 315 29 302 60 c 1,59,-1
 296 60 l 1,60,61
 267 26 267 26 231.5 8.5 c 128,-1,62
 196 -9 196 -9 155 -9 c 0,0,1
170 137 m 0,63,64
 170 105 170 105 188 89 c 128,-1,65
 206 73 206 73 238 73 c 0,66,67
 266 73 266 73 296 85 c 1,68,-1
 296 236 l 1,69,70
 244 225 244 225 216 211 c 128,-1,71
 188 197 188 197 179 179 c 128,-1,72
 170 161 170 161 170 137 c 0,63,64
EndSplineSet
Validated: 1
Substitution2: "'case' Case-Sensitive Forms lookup 61 subtable" Aogonek
Substitution2: "'smcp' Lowercase to Small Capitals lookup 60 subtable" aogonek.sc
Substitution2: "'c2sc' Capitals to Small Capitals lookup 59 subtable" aogonek.sc
AlternateSubs2: "'aalt' Access All Alternates lookup 1 subtable" aogonek.sc Aogonek
EndChar

StartChar: ae
Encoding: 230 230 358
Width: 765
GlyphClass: 2
Flags: W
AnchorPoint: "Anchor-3" 391 522 basechar 0
LayerCount: 2
Fore
SplineSet
156 -9 m 0,0,1
 106 -9 106 -9 70.5 21 c 128,-1,2
 35 51 35 51 35 109 c 0,3,4
 35 146 35 146 49 172 c 128,-1,5
 63 198 63 198 99 217.5 c 128,-1,6
 135 237 135 237 200 253 c 2,7,-1
 297 276 l 1,8,-1
 297 340 l 2,9,10
 297 379 297 379 274.5 401.5 c 128,-1,11
 252 424 252 424 215 424 c 0,12,13
 201 424 201 424 187.5 421.5 c 128,-1,14
 174 419 174 419 159 412 c 1,15,-1
 159 307 l 1,16,-1
 78 307 l 2,17,18
 60 307 60 307 53.5 316 c 128,-1,19
 47 325 47 325 47 345 c 0,20,21
 47 376 47 376 76.5 406.5 c 128,-1,22
 106 437 106 437 154.5 457 c 128,-1,23
 203 477 203 477 257 477 c 0,24,25
 357 477 357 477 404 430 c 1,26,27
 435 453 435 453 472 465 c 128,-1,28
 509 477 509 477 550 477 c 0,29,30
 633 477 633 477 679 422 c 128,-1,31
 725 367 725 367 726 265 c 1,32,-1
 722 260 l 1,33,-1
 436 260 l 1,34,-1
 436 255 l 2,35,36
 436 212 436 212 452 176.5 c 128,-1,37
 468 141 468 141 503.5 120.5 c 128,-1,38
 539 100 539 100 595 100 c 0,39,40
 625 100 625 100 657 107.5 c 128,-1,41
 689 115 689 115 724 132 c 1,42,-1
 727 132 l 1,43,-1
 727 116 l 1,44,45
 701 62 701 62 648.5 26 c 128,-1,46
 596 -10 596 -10 525 -10 c 0,47,48
 462 -10 462 -10 414 12.5 c 128,-1,49
 366 35 366 35 337 77 c 1,50,-1
 329 77 l 1,51,52
 300 40 300 40 256.5 15.5 c 128,-1,53
 213 -9 213 -9 156 -9 c 0,0,1
526 431 m 0,54,55
 490 431 490 431 467.5 398.5 c 128,-1,56
 445 366 445 366 438 306 c 1,57,-1
 612 306 l 1,58,59
 604 377 604 377 582.5 404 c 128,-1,60
 561 431 561 431 526 431 c 0,54,55
170 137 m 0,61,62
 170 105 170 105 188.5 89 c 128,-1,63
 207 73 207 73 239 73 c 0,64,65
 262 73 262 73 282.5 80 c 128,-1,66
 303 87 303 87 324 97 c 1,67,68
 297 147 297 147 297 213 c 2,69,-1
 297 236 l 1,70,71
 246 225 246 225 218 211.5 c 128,-1,72
 190 198 190 198 180 180 c 128,-1,73
 170 162 170 162 170 137 c 0,61,62
EndSplineSet
Validated: 1
Substitution2: "'case' Case-Sensitive Forms lookup 61 subtable" AE
Substitution2: "'smcp' Lowercase to Small Capitals lookup 60 subtable" ae.sc
Substitution2: "'c2sc' Capitals to Small Capitals lookup 59 subtable" ae.sc
AlternateSubs2: "'aalt' Access All Alternates lookup 1 subtable" ae.sc AE
EndChar

StartChar: ccedilla
Encoding: 231 231 364
Width: 495
GlyphClass: 1
Flags: W
LayerCount: 2
Fore
SplineSet
251 -214 m 0,0,1
 308 -214 308 -214 308 -174 c 0,2,3
 308 -152 308 -152 287.5 -137 c 128,-1,4
 267 -122 267 -122 207 -105 c 1,5,-1
 251 -10 l 1,6,7
 188 -8 188 -8 140 20 c 128,-1,8
 92 48 92 48 65.5 97 c 128,-1,9
 39 146 39 146 39 212 c 0,10,11
 39 292 39 292 74 351.5 c 128,-1,12
 109 411 109 411 169 444 c 128,-1,13
 229 477 229 477 306 477 c 0,14,15
 359 477 359 477 393 460 c 128,-1,16
 427 443 427 443 443.5 422 c 128,-1,17
 460 401 460 401 460 388 c 0,18,19
 460 372 460 372 442 359 c 2,20,-1
 399 325 l 1,21,-1
 302 433 l 2,22,23
 297 433 297 433 292 433 c 0,24,25
 237 433 237 433 206.5 385.5 c 128,-1,26
 176 338 176 338 176 268 c 0,27,28
 176 190 176 190 215 145 c 128,-1,29
 254 100 254 100 328 100 c 0,30,31
 357 100 357 100 389.5 107.5 c 128,-1,32
 422 115 422 115 457 132 c 1,33,-1
 460 132 l 1,34,-1
 460 116 l 1,35,36
 437 68 437 68 393.5 33.5 c 128,-1,37
 350 -1 350 -1 291 -8 c 1,38,-1
 274 -44 l 1,39,40
 332 -61 332 -61 356 -86.5 c 128,-1,41
 380 -112 380 -112 380 -152 c 0,42,43
 380 -193 380 -193 351 -219.5 c 128,-1,44
 322 -246 322 -246 272 -246 c 0,45,46
 219 -246 219 -246 189 -221 c 1,47,-1
 189 -202 l 1,48,-1
 194 -202 l 1,49,50
 206 -208 206 -208 221 -211 c 128,-1,51
 236 -214 236 -214 251 -214 c 0,0,1
EndSplineSet
Validated: 1
Substitution2: "'case' Case-Sensitive Forms lookup 61 subtable" Ccedilla
Substitution2: "'smcp' Lowercase to Small Capitals lookup 60 subtable" ccedilla.sc
Substitution2: "'c2sc' Capitals to Small Capitals lookup 59 subtable" ccedilla.sc
AlternateSubs2: "'aalt' Access All Alternates lookup 1 subtable" ccedilla.sc Ccedilla
EndChar

StartChar: ccedillaacute
Encoding: 7689 7689 365
Width: 495
GlyphClass: 1
Flags: W
LayerCount: 2
Fore
SplineSet
267 543 m 1,0,-1
 344 724 l 1,1,-1
 474 724 l 1,2,-1
 474 701 l 1,3,-1
 290 543 l 1,4,-1
 267 543 l 1,0,-1
251 -214 m 0,5,6
 308 -214 308 -214 308 -174 c 0,7,8
 308 -152 308 -152 287.5 -137 c 128,-1,9
 267 -122 267 -122 207 -105 c 1,10,-1
 251 -10 l 1,11,12
 188 -8 188 -8 140 20 c 128,-1,13
 92 48 92 48 65.5 97 c 128,-1,14
 39 146 39 146 39 212 c 0,15,16
 39 292 39 292 74 351.5 c 128,-1,17
 109 411 109 411 169 444 c 128,-1,18
 229 477 229 477 306 477 c 0,19,20
 359 477 359 477 393 460 c 128,-1,21
 427 443 427 443 443.5 422 c 128,-1,22
 460 401 460 401 460 388 c 0,23,24
 460 372 460 372 442 359 c 2,25,-1
 399 325 l 1,26,-1
 302 433 l 2,27,28
 297 433 297 433 292 433 c 0,29,30
 237 433 237 433 206.5 385.5 c 128,-1,31
 176 338 176 338 176 268 c 0,32,33
 176 190 176 190 215 145 c 128,-1,34
 254 100 254 100 328 100 c 0,35,36
 357 100 357 100 389.5 107.5 c 128,-1,37
 422 115 422 115 457 132 c 1,38,-1
 460 132 l 1,39,-1
 460 116 l 1,40,41
 437 68 437 68 393.5 33.5 c 128,-1,42
 350 -1 350 -1 291 -8 c 1,43,-1
 274 -44 l 1,44,45
 332 -61 332 -61 356 -86.5 c 128,-1,46
 380 -112 380 -112 380 -152 c 0,47,48
 380 -193 380 -193 351 -219.5 c 128,-1,49
 322 -246 322 -246 272 -246 c 0,50,51
 219 -246 219 -246 189 -221 c 1,52,-1
 189 -202 l 1,53,-1
 194 -202 l 1,54,55
 206 -208 206 -208 221 -211 c 128,-1,56
 236 -214 236 -214 251 -214 c 0,5,6
EndSplineSet
Validated: 1
Substitution2: "'case' Case-Sensitive Forms lookup 61 subtable" Ccedillaacute
Substitution2: "'smcp' Lowercase to Small Capitals lookup 60 subtable" ccedillaacute.sc
Substitution2: "'c2sc' Capitals to Small Capitals lookup 59 subtable" ccedillaacute.sc
AlternateSubs2: "'aalt' Access All Alternates lookup 1 subtable" ccedillaacute.sc Ccedillaacute
EndChar

StartChar: dcroat
Encoding: 273 273 367
Width: 604
GlyphClass: 1
Flags: W
LayerCount: 2
Fore
SplineSet
207 -10 m 0,0,1
 161 -10 161 -10 122 15.5 c 128,-1,2
 83 41 83 41 59 88 c 128,-1,3
 35 135 35 135 35 200 c 0,4,5
 35 285 35 285 65.5 347.5 c 128,-1,6
 96 410 96 410 150.5 443.5 c 128,-1,7
 205 477 205 477 275 477 c 0,8,9
 323 477 323 477 359 468 c 1,10,-1
 359 549 l 1,11,-1
 232 549 l 1,12,-1
 232 600 l 1,13,-1
 359 600 l 1,14,-1
 359 651 l 1,15,-1
 289 700 l 1,16,-1
 289 712 l 1,17,-1
 492 768 l 1,18,-1
 504 768 l 1,19,-1
 504 600 l 1,20,-1
 575 600 l 1,21,-1
 575 549 l 1,22,-1
 504 549 l 1,23,-1
 504 46 l 1,24,-1
 575 16 l 1,25,-1
 575 0 l 1,26,-1
 370 0 l 1,27,-1
 361 51 l 1,28,-1
 354 51 l 1,29,30
 283 -10 283 -10 207 -10 c 0,0,1
179 231 m 0,31,32
 179 150 179 150 213.5 112 c 128,-1,33
 248 74 248 74 291 74 c 0,34,35
 310 74 310 74 326 79 c 128,-1,36
 342 84 342 84 359 94 c 1,37,-1
 359 391 l 1,38,39
 346 406 346 406 329 414.5 c 128,-1,40
 312 423 312 423 291 423 c 0,41,42
 261 423 261 423 235.5 406.5 c 128,-1,43
 210 390 210 390 194.5 348.5 c 128,-1,44
 179 307 179 307 179 231 c 0,31,32
EndSplineSet
Validated: 1
Substitution2: "'case' Case-Sensitive Forms lookup 61 subtable" Dcroat
Substitution2: "'smcp' Lowercase to Small Capitals lookup 60 subtable" dcroat.sc
Substitution2: "'c2sc' Capitals to Small Capitals lookup 59 subtable" dcroat.sc
AlternateSubs2: "'aalt' Access All Alternates lookup 1 subtable" dcroat.sc Dcroat
EndChar

StartChar: eogonek
Encoding: 281 281 379
Width: 507
GlyphClass: 1
Flags: W
LayerCount: 2
Fore
SplineSet
266 -10 m 0,0,1
 161 -10 161 -10 100 51 c 128,-1,2
 39 112 39 112 39 212 c 0,3,4
 39 290 39 290 72.5 350 c 128,-1,5
 106 410 106 410 164 443.5 c 128,-1,6
 222 477 222 477 292 477 c 0,7,8
 375 477 375 477 421 422 c 128,-1,9
 467 367 467 367 468 265 c 1,10,-1
 464 260 l 1,11,-1
 177 260 l 1,12,-1
 177 255 l 2,13,14
 177 212 177 212 193.5 176.5 c 128,-1,15
 210 141 210 141 245 120.5 c 128,-1,16
 280 100 280 100 337 100 c 0,17,18
 366 100 366 100 398.5 107.5 c 128,-1,19
 431 115 431 115 466 132 c 1,20,-1
 469 132 l 1,21,-1
 469 116 l 1,22,23
 456 89 456 89 432 63 c 1,24,25
 401 17 401 17 378 -31.5 c 128,-1,26
 355 -80 355 -80 355 -130 c 0,27,28
 355 -192 355 -192 414 -193 c 0,29,30
 426 -193 426 -193 439.5 -188.5 c 128,-1,31
 453 -184 453 -184 463 -176 c 1,32,-1
 466 -176 l 1,33,-1
 466 -196 l 1,34,35
 439 -246 439 -246 375 -246 c 0,36,37
 328 -246 328 -246 299.5 -221 c 128,-1,38
 271 -196 271 -196 271 -154 c 0,39,40
 271 -114 271 -114 300 -72 c 128,-1,41
 329 -30 329 -30 376 17 c 1,42,43
 326 -10 326 -10 266 -10 c 0,0,1
268 431 m 0,44,45
 232 431 232 431 209.5 398.5 c 128,-1,46
 187 366 187 366 180 306 c 1,47,-1
 354 306 l 1,48,49
 346 377 346 377 324.5 404 c 128,-1,50
 303 431 303 431 268 431 c 0,44,45
EndSplineSet
Validated: 1
Substitution2: "'case' Case-Sensitive Forms lookup 61 subtable" Eogonek
Substitution2: "'smcp' Lowercase to Small Capitals lookup 60 subtable" eogonek.sc
Substitution2: "'c2sc' Capitals to Small Capitals lookup 59 subtable" eogonek.sc
AlternateSubs2: "'aalt' Access All Alternates lookup 1 subtable" eogonek.sc Eogonek
EndChar

StartChar: ecedillabreve
Encoding: 7709 7709 391
Width: 507
GlyphClass: 1
Flags: W
LayerCount: 2
Fore
SplineSet
272 553 m 0,0,1
 198 553 198 553 163 595.5 c 128,-1,2
 128 638 128 638 110 724 c 1,3,-1
 131 724 l 1,4,5
 149 684 149 684 170 664.5 c 128,-1,6
 191 645 191 645 216.5 639 c 128,-1,7
 242 633 242 633 272 633 c 256,8,9
 303 633 303 633 328 638.5 c 128,-1,10
 353 644 353 644 374 663.5 c 128,-1,11
 395 683 395 683 414 724 c 1,12,-1
 435 724 l 1,13,14
 416 638 416 638 378 595.5 c 128,-1,15
 340 553 340 553 272 553 c 0,0,1
278 -246 m 0,16,17
 225 -246 225 -246 195 -221 c 1,18,-1
 195 -202 l 1,19,-1
 199 -202 l 1,20,21
 211 -208 211 -208 226 -211 c 128,-1,22
 241 -214 241 -214 257 -214 c 0,23,24
 313 -214 313 -214 313 -174 c 0,25,26
 313 -152 313 -152 293 -137 c 128,-1,27
 273 -122 273 -122 212 -105 c 1,28,-1
 256 -10 l 1,29,30
 155 -7 155 -7 97 53.5 c 128,-1,31
 39 114 39 114 39 212 c 0,32,33
 39 290 39 290 72.5 350 c 128,-1,34
 106 410 106 410 164 443.5 c 128,-1,35
 222 477 222 477 292 477 c 0,36,37
 375 477 375 477 421 422 c 128,-1,38
 467 367 467 367 468 265 c 1,39,-1
 464 260 l 1,40,-1
 177 260 l 1,41,-1
 177 255 l 2,42,43
 177 212 177 212 193.5 176.5 c 128,-1,44
 210 141 210 141 245 120.5 c 128,-1,45
 280 100 280 100 337 100 c 0,46,47
 366 100 366 100 398.5 107.5 c 128,-1,48
 431 115 431 115 466 132 c 1,49,-1
 469 132 l 1,50,-1
 469 116 l 1,51,52
 446 67 446 67 401 33 c 128,-1,53
 356 -1 356 -1 296 -8 c 1,54,-1
 280 -44 l 1,55,56
 339 -61 339 -61 362 -86.5 c 128,-1,57
 385 -112 385 -112 385 -152 c 0,58,59
 385 -193 385 -193 356 -219.5 c 128,-1,60
 327 -246 327 -246 278 -246 c 0,16,17
268 431 m 0,61,62
 232 431 232 431 209.5 398.5 c 128,-1,63
 187 366 187 366 180 306 c 1,64,-1
 354 306 l 1,65,66
 346 377 346 377 324.5 404 c 128,-1,67
 303 431 303 431 268 431 c 0,61,62
EndSplineSet
Validated: 1
Substitution2: "'case' Case-Sensitive Forms lookup 61 subtable" Ecedillabreve
Substitution2: "'smcp' Lowercase to Small Capitals lookup 60 subtable" ecedillabreve.sc
Substitution2: "'c2sc' Capitals to Small Capitals lookup 59 subtable" ecedillabreve.sc
AlternateSubs2: "'aalt' Access All Alternates lookup 1 subtable" ecedillabreve.sc Ecedillabreve
EndChar

StartChar: hbar
Encoding: 295 295 399
Width: 632
GlyphClass: 1
Flags: W
LayerCount: 2
Fore
SplineSet
32 0 m 1,0,-1
 32 16 l 1,1,-1
 100 49 l 1,2,-1
 100 539 l 1,3,-1
 34 539 l 1,4,-1
 34 590 l 1,5,-1
 100 590 l 1,6,-1
 100 651 l 1,7,-1
 35 699 l 1,8,-1
 35 712 l 1,9,-1
 231 768 l 1,10,-1
 244 768 l 1,11,-1
 244 590 l 1,12,-1
 374 590 l 1,13,-1
 374 539 l 1,14,-1
 244 539 l 1,15,-1
 244 401 l 1,16,-1
 248 401 l 1,17,18
 285 437 285 437 319.5 457 c 128,-1,19
 354 477 354 477 401 477 c 0,20,21
 463 477 463 477 503 445.5 c 128,-1,22
 543 414 543 414 543 351 c 2,23,-1
 543 49 l 1,24,-1
 611 16 l 1,25,-1
 611 0 l 1,26,-1
 347 0 l 1,27,-1
 347 16 l 1,28,-1
 398 48 l 1,29,-1
 398 309 l 2,30,31
 398 345 398 345 377.5 364 c 128,-1,32
 357 383 357 383 325 383 c 0,33,34
 306 383 306 383 282.5 376 c 128,-1,35
 259 369 259 369 244 356 c 1,36,-1
 244 48 l 1,37,-1
 296 16 l 1,38,-1
 296 0 l 1,39,-1
 32 0 l 1,0,-1
EndSplineSet
Validated: 1
Substitution2: "'case' Case-Sensitive Forms lookup 61 subtable" Hbar
Substitution2: "'smcp' Lowercase to Small Capitals lookup 60 subtable" hbar.sc
Substitution2: "'c2sc' Capitals to Small Capitals lookup 59 subtable" hbar.sc
AlternateSubs2: "'aalt' Access All Alternates lookup 1 subtable" hbar.sc Hbar
EndChar

StartChar: iogonek
Encoding: 303 303 410
Width: 340
GlyphClass: 1
Flags: W
LayerCount: 2
Fore
SplineSet
172 579 m 0,0,1
 139 579 139 579 118 600 c 128,-1,2
 97 621 97 621 97 652 c 0,3,4
 97 685 97 685 118 706 c 128,-1,5
 139 727 139 727 172 727 c 0,6,7
 204 727 204 727 225.5 706 c 128,-1,8
 247 685 247 685 247 652 c 0,9,10
 247 620 247 620 225.5 599.5 c 128,-1,11
 204 579 204 579 172 579 c 0,0,1
34 0 m 1,12,-1
 34 16 l 1,13,-1
 102 49 l 1,14,-1
 102 360 l 1,15,-1
 37 409 l 1,16,-1
 37 421 l 1,17,-1
 234 477 l 1,18,-1
 247 477 l 1,19,-1
 247 49 l 1,20,-1
 307 16 l 1,21,-1
 307 0 l 1,22,-1
 205 0 l 1,23,24
 185 -35 185 -35 174.5 -67 c 128,-1,25
 164 -99 164 -99 164 -130 c 0,26,27
 164 -192 164 -192 223 -193 c 0,28,29
 234 -193 234 -193 247.5 -188.5 c 128,-1,30
 261 -184 261 -184 271 -176 c 1,31,-1
 275 -176 l 1,32,-1
 275 -196 l 1,33,34
 247 -246 247 -246 183 -246 c 0,35,36
 137 -246 137 -246 109 -221 c 128,-1,37
 81 -196 81 -196 81 -154 c 0,38,39
 81 -117 81 -117 104.5 -80 c 128,-1,40
 128 -43 128 -43 169 0 c 1,41,-1
 34 0 l 1,12,-1
EndSplineSet
Validated: 1
Substitution2: "'case' Case-Sensitive Forms lookup 61 subtable" Iogonek
Substitution2: "'smcp' Lowercase to Small Capitals lookup 60 subtable" iogonek.sc
Substitution2: "'c2sc' Capitals to Small Capitals lookup 59 subtable" iogonek.sc
MultipleSubs2: "Multiple Substitution lookup 4 subtable" idotless ogonekcomb
AlternateSubs2: "'aalt' Access All Alternates lookup 1 subtable" iogonek.sc Iogonek
EndChar

StartChar: idotless
Encoding: 305 305 412
Width: 340
GlyphClass: 2
Flags: W
AnchorPoint: "Anchor-3" 171 522 basechar 0
AnchorPoint: "Anchor-2" 198 0 basechar 0
AnchorPoint: "Anchor-0" 171 0 basechar 0
LayerCount: 2
Fore
SplineSet
34 0 m 1,0,-1
 34 16 l 1,1,-1
 102 49 l 1,2,-1
 102 360 l 1,3,-1
 37 409 l 1,4,-1
 37 421 l 1,5,-1
 234 477 l 1,6,-1
 247 477 l 1,7,-1
 247 49 l 1,8,-1
 307 16 l 1,9,-1
 307 0 l 1,10,-1
 34 0 l 1,0,-1
EndSplineSet
Validated: 1
Substitution2: "'case' Case-Sensitive Forms lookup 62 subtable" I
Substitution2: "'smcp' Lowercase to Small Capitals lookup 60 subtable" i.sc
AlternateSubs2: "'aalt' Access All Alternates lookup 1 subtable" i.sc I
EndChar

StartChar: jdotless
Encoding: 567 567 420
Width: 337
GlyphClass: 2
Flags: W
AnchorPoint: "Anchor-3" 162 522 basechar 0
AnchorPoint: "Anchor-0" 162 -203 basechar 0
LayerCount: 2
Fore
SplineSet
245 25 m 2,0,1
 245 -37 245 -37 227 -82 c 128,-1,2
 209 -127 209 -127 163.5 -163.5 c 128,-1,3
 118 -200 118 -200 36 -236 c 1,4,-1
 36 -217 l 1,5,6
 64 -194 64 -194 77.5 -173.5 c 128,-1,7
 91 -153 91 -153 95.5 -126 c 128,-1,8
 100 -99 100 -99 100 -57 c 2,9,-1
 100 360 l 1,10,-1
 36 409 l 1,11,-1
 36 421 l 1,12,-1
 232 477 l 1,13,-1
 245 477 l 1,14,-1
 245 25 l 2,0,1
EndSplineSet
Validated: 1
EndChar

StartChar: kgreenlandic
Encoding: 312 312 422
Width: 617
GlyphClass: 1
Flags: W
LayerCount: 2
Fore
SplineSet
32 0 m 1,0,-1
 32 16 l 1,1,-1
 100 49 l 1,2,-1
 100 360 l 1,3,-1
 35 409 l 1,4,-1
 35 421 l 1,5,-1
 231 477 l 1,6,-1
 244 477 l 1,7,-1
 244 267 l 1,8,-1
 397 408 l 1,9,-1
 397 414 l 1,10,-1
 347 451 l 1,11,-1
 347 467 l 1,12,-1
 564 467 l 1,13,-1
 564 451 l 1,14,-1
 499 415 l 1,15,-1
 359 305 l 1,16,-1
 547 51 l 1,17,-1
 612 16 l 1,18,-1
 612 0 l 1,19,-1
 413 0 l 1,20,-1
 381 53 l 1,21,-1
 244 244 l 1,22,-1
 244 48 l 1,23,-1
 310 16 l 1,24,-1
 310 0 l 1,25,-1
 32 0 l 1,0,-1
EndSplineSet
Validated: 1
EndChar

StartChar: lslash
Encoding: 322 322 426
Width: 333
GlyphClass: 1
Flags: W
LayerCount: 2
Fore
SplineSet
30 0 m 1,0,-1
 30 16 l 1,1,-1
 98 49 l 1,2,-1
 98 300 l 1,3,-1
 30 260 l 1,4,-1
 30 318 l 1,5,-1
 98 358 l 1,6,-1
 98 651 l 1,7,-1
 33 699 l 1,8,-1
 33 712 l 1,9,-1
 226 768 l 1,10,-1
 243 768 l 1,11,-1
 243 431 l 1,12,-1
 314 473 l 1,13,-1
 314 415 l 1,14,-1
 243 372 l 1,15,-1
 243 49 l 1,16,-1
 303 16 l 1,17,-1
 303 0 l 1,18,-1
 30 0 l 1,0,-1
EndSplineSet
Validated: 1
Substitution2: "'case' Case-Sensitive Forms lookup 61 subtable" Lslash
Substitution2: "'smcp' Lowercase to Small Capitals lookup 60 subtable" lslash.sc
Substitution2: "'c2sc' Capitals to Small Capitals lookup 59 subtable" lslash.sc
AlternateSubs2: "'aalt' Access All Alternates lookup 1 subtable" lslash.sc Lslash
EndChar

StartChar: oogonek
Encoding: 491 491 447
Width: 560
GlyphClass: 1
Flags: W
LayerCount: 2
Fore
SplineSet
294 -246 m 0,0,1
 248 -246 248 -246 219.5 -221 c 128,-1,2
 191 -196 191 -196 191 -154 c 0,3,4
 191 -119 191 -119 212 -84 c 128,-1,5
 233 -49 233 -49 269 -10 c 1,6,7
 199 -7 199 -7 146.5 26 c 128,-1,8
 94 59 94 59 65 113.5 c 128,-1,9
 36 168 36 168 36 233 c 0,10,11
 36 301 36 301 66.5 356.5 c 128,-1,12
 97 412 97 412 152.5 444.5 c 128,-1,13
 208 477 208 477 281 477 c 256,14,15
 354 477 354 477 408.5 444.5 c 128,-1,16
 463 412 463 412 493.5 356.5 c 128,-1,17
 524 301 524 301 524 233 c 0,18,19
 524 171 524 171 497.5 119 c 128,-1,20
 471 67 471 67 423 32.5 c 128,-1,21
 375 -2 375 -2 310 -8 c 1,22,23
 274 -75 274 -75 274 -130 c 0,24,25
 274 -192 274 -192 334 -193 c 0,26,27
 345 -193 345 -193 358.5 -188.5 c 128,-1,28
 372 -184 372 -184 382 -176 c 1,29,-1
 386 -176 l 1,30,-1
 386 -196 l 1,31,32
 359 -246 359 -246 294 -246 c 0,0,1
292 40 m 0,33,34
 322 40 322 40 340 64 c 128,-1,35
 358 88 358 88 367.5 128 c 128,-1,36
 377 168 377 168 377 213 c 0,37,38
 377 269 377 269 366 318 c 128,-1,39
 355 367 355 367 331.5 397.5 c 128,-1,40
 308 428 308 428 271 428 c 0,41,42
 240 428 240 428 221 404 c 128,-1,43
 202 380 202 380 192.5 340.5 c 128,-1,44
 183 301 183 301 183 255 c 0,45,46
 183 200 183 200 194.5 150.5 c 128,-1,47
 206 101 206 101 230 70.5 c 128,-1,48
 254 40 254 40 292 40 c 0,33,34
EndSplineSet
Validated: 1
Substitution2: "'case' Case-Sensitive Forms lookup 61 subtable" Oogonek
Substitution2: "'smcp' Lowercase to Small Capitals lookup 60 subtable" oogonek.sc
Substitution2: "'c2sc' Capitals to Small Capitals lookup 59 subtable" oogonek.sc
AlternateSubs2: "'aalt' Access All Alternates lookup 1 subtable" oogonek.sc Oogonek
EndChar

StartChar: oslash
Encoding: 248 248 463
Width: 560
GlyphClass: 2
Flags: W
AnchorPoint: "Anchor-3" 279 522 basechar 0
LayerCount: 2
Fore
SplineSet
36 -10 m 1,0,-1
 100 65 l 1,1,2
 69 99 69 99 52.5 141.5 c 128,-1,3
 36 184 36 184 36 233 c 0,4,5
 36 301 36 301 66.5 356.5 c 128,-1,6
 97 412 97 412 152.5 444.5 c 128,-1,7
 208 477 208 477 281 477 c 0,8,9
 321 477 321 477 355.5 466.5 c 128,-1,10
 390 456 390 456 420 437 c 1,11,-1
 454 477 l 1,12,-1
 524 477 l 1,13,-1
 461 402 l 1,14,15
 491 369 491 369 507.5 326 c 128,-1,16
 524 283 524 283 524 233 c 0,17,18
 524 166 524 166 493.5 111 c 128,-1,19
 463 56 463 56 408 23 c 128,-1,20
 353 -10 353 -10 281 -10 c 0,21,22
 240 -10 240 -10 205 0.5 c 128,-1,23
 170 11 170 11 141 31 c 1,24,-1
 106 -10 l 1,25,-1
 36 -10 l 1,0,-1
183 255 m 0,26,27
 183 210 183 210 190 170 c 1,28,-1
 353 359 l 1,29,30
 340 390 340 390 320 409 c 128,-1,31
 300 428 300 428 271 428 c 0,32,33
 240 428 240 428 221 404 c 128,-1,34
 202 380 202 380 192.5 340.5 c 128,-1,35
 183 301 183 301 183 255 c 0,26,27
292 40 m 256,36,37
 322 40 322 40 340 64 c 128,-1,38
 358 88 358 88 367.5 128 c 128,-1,39
 377 168 377 168 377 213 c 256,40,41
 377 258 377 258 370 297 c 1,42,-1
 208 109 l 1,43,44
 221 78 221 78 241.5 59 c 128,-1,45
 262 40 262 40 292 40 c 256,36,37
EndSplineSet
Validated: 1
Substitution2: "'case' Case-Sensitive Forms lookup 61 subtable" Oslash
Substitution2: "'smcp' Lowercase to Small Capitals lookup 60 subtable" oslash.sc
Substitution2: "'c2sc' Capitals to Small Capitals lookup 59 subtable" oslash.sc
AlternateSubs2: "'aalt' Access All Alternates lookup 1 subtable" oslash.sc Oslash
EndChar

StartChar: ohorn
Encoding: 417 417 465
Width: 560
GlyphClass: 2
Flags: W
AnchorPoint: "Anchor-3" 279 522 basechar 0
AnchorPoint: "Anchor-0" 283 0 basechar 0
LayerCount: 2
Fore
SplineSet
281 -10 m 256,0,1
 208 -10 208 -10 152.5 23 c 128,-1,2
 97 56 97 56 66.5 111.5 c 128,-1,3
 36 167 36 167 36 233 c 0,4,5
 36 301 36 301 66.5 356.5 c 128,-1,6
 97 412 97 412 152.5 444.5 c 128,-1,7
 208 477 208 477 281 477 c 0,8,9
 337 477 337 477 385 456 c 1,10,-1
 427 456 l 2,11,12
 469 456 469 456 490 466 c 1,13,-1
 490 554 l 1,14,-1
 546 554 l 2,15,16
 570 554 570 554 581.5 542 c 128,-1,17
 593 530 593 530 593 503 c 0,18,19
 593 464 593 464 565 441.5 c 128,-1,20
 537 419 537 419 472 419 c 2,21,-1
 443 419 l 1,22,23
 482 385 482 385 503 337 c 128,-1,24
 524 289 524 289 524 233 c 0,25,26
 524 166 524 166 493.5 111 c 128,-1,27
 463 56 463 56 408.5 23 c 128,-1,28
 354 -10 354 -10 281 -10 c 256,0,1
292 40 m 0,29,30
 322 40 322 40 340 64 c 128,-1,31
 358 88 358 88 367.5 128 c 128,-1,32
 377 168 377 168 377 213 c 0,33,34
 377 269 377 269 366 318 c 128,-1,35
 355 367 355 367 331.5 397.5 c 128,-1,36
 308 428 308 428 271 428 c 0,37,38
 240 428 240 428 221 404 c 128,-1,39
 202 380 202 380 192.5 340.5 c 128,-1,40
 183 301 183 301 183 255 c 0,41,42
 183 200 183 200 194.5 150.5 c 128,-1,43
 206 101 206 101 230 70.5 c 128,-1,44
 254 40 254 40 292 40 c 0,29,30
EndSplineSet
Validated: 1
Substitution2: "'case' Case-Sensitive Forms lookup 61 subtable" Ohorn
Substitution2: "'smcp' Lowercase to Small Capitals lookup 60 subtable" ohorn.sc
Substitution2: "'c2sc' Capitals to Small Capitals lookup 59 subtable" ohorn.sc
AlternateSubs2: "'aalt' Access All Alternates lookup 1 subtable" ohorn.sc Ohorn
EndChar

StartChar: oe
Encoding: 339 339 471
Width: 855
GlyphClass: 1
Flags: W
LayerCount: 2
Fore
SplineSet
281 -10 m 0,0,1
 208 -10 208 -10 152.5 23 c 128,-1,2
 97 56 97 56 66.5 111.5 c 128,-1,3
 36 167 36 167 36 233 c 0,4,5
 36 301 36 301 66.5 356.5 c 128,-1,6
 97 412 97 412 152.5 444.5 c 128,-1,7
 208 477 208 477 281 477 c 0,8,9
 336 477 336 477 382 457 c 128,-1,10
 428 437 428 437 460 402 c 1,11,12
 495 437 495 437 541 457 c 128,-1,13
 587 477 587 477 639 477 c 0,14,15
 722 477 722 477 768 422 c 128,-1,16
 814 367 814 367 815 265 c 1,17,-1
 811 260 l 1,18,-1
 525 260 l 1,19,-1
 524 255 l 1,20,21
 524 212 524 212 540.5 176.5 c 128,-1,22
 557 141 557 141 592 120.5 c 128,-1,23
 627 100 627 100 684 100 c 0,24,25
 714 100 714 100 746 107.5 c 128,-1,26
 778 115 778 115 813 132 c 1,27,-1
 816 132 l 1,28,-1
 816 116 l 1,29,30
 790 62 790 62 737.5 26 c 128,-1,31
 685 -10 685 -10 613 -10 c 0,32,33
 560 -10 560 -10 517.5 6.5 c 128,-1,34
 475 23 475 23 446 52 c 1,35,36
 414 22 414 22 372.5 6 c 128,-1,37
 331 -10 331 -10 281 -10 c 0,0,1
615 431 m 0,38,39
 579 431 579 431 557 398.5 c 128,-1,40
 535 366 535 366 527 306 c 1,41,-1
 701 306 l 1,42,43
 693 377 693 377 671.5 404 c 128,-1,44
 650 431 650 431 615 431 c 0,38,39
292 40 m 0,45,46
 322 40 322 40 340 64 c 128,-1,47
 358 88 358 88 367.5 128 c 128,-1,48
 377 168 377 168 377 213 c 0,49,50
 377 269 377 269 366 318 c 128,-1,51
 355 367 355 367 331.5 397.5 c 128,-1,52
 308 428 308 428 271 428 c 0,53,54
 240 428 240 428 221 404 c 128,-1,55
 202 380 202 380 192.5 340.5 c 128,-1,56
 183 301 183 301 183 255 c 0,57,58
 183 200 183 200 194.5 150.5 c 128,-1,59
 206 101 206 101 230 70.5 c 128,-1,60
 254 40 254 40 292 40 c 0,45,46
EndSplineSet
Validated: 1
Substitution2: "'case' Case-Sensitive Forms lookup 61 subtable" OE
Substitution2: "'smcp' Lowercase to Small Capitals lookup 60 subtable" oe.sc
Substitution2: "'c2sc' Capitals to Small Capitals lookup 59 subtable" oe.sc
AlternateSubs2: "'aalt' Access All Alternates lookup 1 subtable" oe.sc OE
EndChar

StartChar: scedilla
Encoding: 351 351 482
Width: 447
GlyphClass: 1
Flags: W
LayerCount: 2
Fore
SplineSet
222 -246 m 0,0,1
 169 -246 169 -246 139 -221 c 1,2,-1
 139 -202 l 1,3,-1
 142 -202 l 1,4,5
 154 -208 154 -208 169.5 -211 c 128,-1,6
 185 -214 185 -214 201 -214 c 0,7,8
 257 -214 257 -214 257 -174 c 0,9,10
 257 -152 257 -152 237 -137 c 128,-1,11
 217 -122 217 -122 157 -105 c 1,12,-1
 200 -10 l 1,13,14
 156 -9 156 -9 121.5 0.5 c 128,-1,15
 87 10 87 10 53 27 c 1,16,-1
 53 145 l 1,17,-1
 69 145 l 1,18,-1
 104 92 l 2,19,20
 141 36 141 36 210 36 c 0,21,22
 249 36 249 36 269.5 51 c 128,-1,23
 290 66 290 66 290 93 c 0,24,25
 290 115 290 115 278.5 128 c 128,-1,26
 267 141 267 141 242 154 c 128,-1,27
 217 167 217 167 173 184 c 0,28,29
 115 208 115 208 87.5 239.5 c 128,-1,30
 60 271 60 271 60 318 c 0,31,32
 60 362 60 362 83 398 c 128,-1,33
 106 434 106 434 146 455.5 c 128,-1,34
 186 477 186 477 237 477 c 0,35,36
 272 477 272 477 305 470 c 128,-1,37
 338 463 338 463 370 446 c 1,38,-1
 370 325 l 1,39,-1
 354 325 l 1,40,-1
 323 373 l 2,41,42
 303 403 303 403 282.5 417 c 128,-1,43
 262 431 262 431 233 431 c 0,44,45
 202 431 202 431 183.5 415.5 c 128,-1,46
 165 400 165 400 165 373 c 0,47,48
 165 356 165 356 173.5 342.5 c 128,-1,49
 182 329 182 329 204.5 316.5 c 128,-1,50
 227 304 227 304 269 288 c 0,51,52
 298 277 298 277 326.5 262 c 128,-1,53
 355 247 355 247 373.5 220 c 128,-1,54
 392 193 392 193 392 144 c 0,55,56
 392 100 392 100 371 68 c 128,-1,57
 350 36 350 36 315.5 16 c 128,-1,58
 281 -4 281 -4 240 -9 c 1,59,-1
 223 -44 l 1,60,61
 282 -61 282 -61 306 -86.5 c 128,-1,62
 330 -112 330 -112 330 -152 c 0,63,64
 330 -193 330 -193 300.5 -219.5 c 128,-1,65
 271 -246 271 -246 222 -246 c 0,0,1
EndSplineSet
Validated: 1
Substitution2: "'case' Case-Sensitive Forms lookup 61 subtable" Scedilla
Substitution2: "'smcp' Lowercase to Small Capitals lookup 60 subtable" scedilla.sc
Substitution2: "'c2sc' Capitals to Small Capitals lookup 59 subtable" scedilla.sc
Substitution2: "'locl' Localized Forms in Latin lookup 14 subtable" scommaaccent
Substitution2: "'locl' Localized Forms in Latin lookup 11 subtable" scommaaccent
AlternateSubs2: "'aalt' Access All Alternates lookup 1 subtable" scommaaccent scedilla.sc Scedilla
EndChar

StartChar: germandbls
Encoding: 223 223 489
Width: 689
GlyphClass: 1
Flags: W
LayerCount: 2
Fore
SplineSet
45 0 m 1,0,-1
 45 16 l 1,1,-1
 110 49 l 1,2,-1
 110 419 l 1,3,-1
 30 419 l 1,4,-1
 30 467 l 1,5,-1
 110 467 l 1,6,-1
 110 492 l 2,7,8
 110 544 110 544 128 593 c 128,-1,9
 146 642 146 642 182 682 c 128,-1,10
 218 722 218 722 270 745 c 128,-1,11
 322 768 322 768 387 768 c 0,12,13
 489 768 489 768 538.5 728 c 128,-1,14
 588 688 588 688 588 633 c 0,15,16
 588 598 588 598 573.5 573.5 c 128,-1,17
 559 549 559 549 538.5 530 c 128,-1,18
 518 511 518 511 497 493 c 128,-1,19
 476 475 476 475 461.5 453.5 c 128,-1,20
 447 432 447 432 447 401 c 0,21,22
 447 376 447 376 463.5 359 c 128,-1,23
 480 342 480 342 507.5 325.5 c 128,-1,24
 535 309 535 309 567 286 c 0,25,26
 621 248 621 248 638.5 215 c 128,-1,27
 656 182 656 182 656 141 c 0,28,29
 656 97 656 97 631.5 63.5 c 128,-1,30
 607 30 607 30 566.5 10 c 128,-1,31
 526 -10 526 -10 478 -10 c 0,32,33
 427 -10 427 -10 391 -0.5 c 128,-1,34
 355 9 355 9 321 27 c 1,35,-1
 321 145 l 1,36,-1
 336 145 l 1,37,-1
 372 92 l 2,38,39
 388 66 388 66 412.5 51 c 128,-1,40
 437 36 437 36 467 36 c 0,41,42
 502 36 502 36 522.5 54 c 128,-1,43
 543 72 543 72 543 101 c 0,44,45
 543 128 543 128 527.5 146 c 128,-1,46
 512 164 512 164 486 179.5 c 128,-1,47
 460 195 460 195 427 214 c 0,48,49
 393 236 393 236 369.5 264 c 128,-1,50
 346 292 346 292 346 341 c 0,51,52
 346 375 346 375 357.5 398.5 c 128,-1,53
 369 422 369 422 385.5 442 c 128,-1,54
 402 462 402 462 419 484.5 c 128,-1,55
 436 507 436 507 448 537 c 128,-1,56
 460 567 460 567 460 611 c 0,57,58
 460 658 460 658 436.5 689 c 128,-1,59
 413 720 413 720 366 720 c 0,60,61
 303 720 303 720 278.5 675.5 c 128,-1,62
 254 631 254 631 254 555 c 2,63,-1
 254 0 l 1,64,-1
 45 0 l 1,0,-1
EndSplineSet
Validated: 1
Substitution2: "'case' Case-Sensitive Forms lookup 62 subtable" Germandbls
Substitution2: "'smcp' Lowercase to Small Capitals lookup 60 subtable" germandbls.sc
AlternateSubs2: "'aalt' Access All Alternates lookup 1 subtable" germandbls.sc Germandbls
EndChar

StartChar: tbar
Encoding: 359 359 492
Width: 395
GlyphClass: 1
Flags: W
LayerCount: 2
Fore
SplineSet
226 -10 m 0,0,1
 164 -10 164 -10 124 16.5 c 128,-1,2
 84 43 84 43 84 91 c 2,3,-1
 84 244 l 1,4,-1
 12 244 l 1,5,-1
 12 294 l 1,6,-1
 84 294 l 1,7,-1
 84 421 l 1,8,-1
 10 421 l 1,9,-1
 10 435 l 1,10,-1
 104 467 l 1,11,-1
 208 580 l 1,12,-1
 228 580 l 1,13,-1
 228 467 l 1,14,-1
 370 467 l 1,15,-1
 370 421 l 1,16,-1
 228 421 l 1,17,-1
 228 294 l 1,18,-1
 359 294 l 1,19,-1
 359 244 l 1,20,-1
 228 244 l 1,21,-1
 228 118 l 2,22,23
 228 91 228 91 250 79 c 128,-1,24
 272 67 272 67 303 67 c 0,25,26
 322 67 322 67 337 69 c 128,-1,27
 352 71 352 71 367 74 c 1,28,-1
 370 72 l 1,29,-1
 370 54 l 1,30,31
 354 29 354 29 314 9.5 c 128,-1,32
 274 -10 274 -10 226 -10 c 0,0,1
EndSplineSet
Validated: 1
Substitution2: "'case' Case-Sensitive Forms lookup 61 subtable" Tbar
Substitution2: "'smcp' Lowercase to Small Capitals lookup 60 subtable" tbar.sc
Substitution2: "'c2sc' Capitals to Small Capitals lookup 59 subtable" tbar.sc
AlternateSubs2: "'aalt' Access All Alternates lookup 1 subtable" tbar.sc Tbar
EndChar

StartChar: tcedilla
Encoding: 355 355 493
Width: 395
GlyphClass: 1
Flags: W
LayerCount: 2
Fore
SplineSet
214 -246 m 0,0,1
 161 -246 161 -246 131 -221 c 1,2,-1
 131 -202 l 1,3,-1
 135 -202 l 1,4,5
 147 -208 147 -208 162 -211 c 128,-1,6
 177 -214 177 -214 194 -214 c 0,7,8
 250 -214 250 -214 250 -174 c 0,9,10
 250 -152 250 -152 229.5 -137 c 128,-1,11
 209 -122 209 -122 148 -105 c 1,12,-1
 194 -8 l 1,13,14
 145 -2 145 -2 114.5 23.5 c 128,-1,15
 84 49 84 49 84 91 c 2,16,-1
 84 421 l 1,17,-1
 10 421 l 1,18,-1
 10 435 l 1,19,-1
 104 467 l 1,20,-1
 208 580 l 1,21,-1
 228 580 l 1,22,-1
 228 467 l 1,23,-1
 370 467 l 1,24,-1
 370 421 l 1,25,-1
 228 421 l 1,26,-1
 228 118 l 2,27,28
 228 91 228 91 250 79 c 128,-1,29
 272 67 272 67 303 67 c 0,30,31
 322 67 322 67 337 69 c 128,-1,32
 352 71 352 71 367 74 c 1,33,-1
 370 72 l 1,34,-1
 370 54 l 1,35,36
 354 29 354 29 314.5 9.5 c 128,-1,37
 275 -10 275 -10 231 -10 c 1,38,-1
 216 -44 l 1,39,40
 274 -61 274 -61 298 -86.5 c 128,-1,41
 322 -112 322 -112 322 -152 c 0,42,43
 322 -193 322 -193 292.5 -219.5 c 128,-1,44
 263 -246 263 -246 214 -246 c 0,0,1
EndSplineSet
Validated: 1
Substitution2: "'case' Case-Sensitive Forms lookup 61 subtable" Tcedilla
Substitution2: "'smcp' Lowercase to Small Capitals lookup 60 subtable" tcedilla.sc
Substitution2: "'c2sc' Capitals to Small Capitals lookup 59 subtable" tcedilla.sc
AlternateSubs2: "'aalt' Access All Alternates lookup 1 subtable" tcedilla.sc Tcedilla
EndChar

StartChar: uogonek
Encoding: 371 371 506
Width: 604
GlyphClass: 1
Flags: W
LayerCount: 2
Fore
SplineSet
223 -10 m 0,0,1
 162 -10 162 -10 122.5 21.5 c 128,-1,2
 83 53 83 53 83 116 c 2,3,-1
 83 418 l 1,4,-1
 15 451 l 1,5,-1
 15 467 l 1,6,-1
 227 467 l 1,7,-1
 227 158 l 2,8,9
 227 122 227 122 247.5 103 c 128,-1,10
 268 84 268 84 300 84 c 0,11,12
 319 84 319 84 341.5 91 c 128,-1,13
 364 98 364 98 378 111 c 1,14,-1
 378 418 l 1,15,-1
 316 451 l 1,16,-1
 316 467 l 1,17,-1
 522 467 l 1,18,-1
 522 48 l 1,19,-1
 587 16 l 1,20,-1
 587 0 l 1,21,-1
 476 0 l 1,22,23
 457 -35 457 -35 446.5 -67 c 128,-1,24
 436 -99 436 -99 436 -130 c 0,25,26
 436 -192 436 -192 495 -193 c 0,27,28
 507 -193 507 -193 520.5 -188.5 c 128,-1,29
 534 -184 534 -184 544 -176 c 1,30,-1
 547 -176 l 1,31,-1
 547 -196 l 1,32,33
 520 -246 520 -246 456 -246 c 0,34,35
 409 -246 409 -246 380.5 -221 c 128,-1,36
 352 -196 352 -196 352 -154 c 0,37,38
 352 -117 352 -117 376 -80 c 128,-1,39
 400 -43 400 -43 440 0 c 1,40,-1
 378 0 l 1,41,-1
 378 66 l 1,42,-1
 374 66 l 1,43,44
 338 30 338 30 303.5 10 c 128,-1,45
 269 -10 269 -10 223 -10 c 0,0,1
EndSplineSet
Validated: 1
Substitution2: "'case' Case-Sensitive Forms lookup 61 subtable" Uogonek
Substitution2: "'smcp' Lowercase to Small Capitals lookup 60 subtable" uogonek.sc
Substitution2: "'c2sc' Capitals to Small Capitals lookup 59 subtable" uogonek.sc
AlternateSubs2: "'aalt' Access All Alternates lookup 1 subtable" uogonek.sc Uogonek
EndChar

StartChar: uhorn
Encoding: 432 432 513
Width: 604
GlyphClass: 2
Flags: W
AnchorPoint: "Anchor-3" 301 522 basechar 0
AnchorPoint: "Anchor-0" 301 0 basechar 0
LayerCount: 2
Fore
SplineSet
223 -10 m 0,0,1
 162 -10 162 -10 122.5 21.5 c 128,-1,2
 83 53 83 53 83 116 c 2,3,-1
 83 418 l 1,4,-1
 15 451 l 1,5,-1
 15 467 l 1,6,-1
 227 467 l 1,7,-1
 227 158 l 2,8,9
 227 122 227 122 247.5 103 c 128,-1,10
 268 84 268 84 300 84 c 0,11,12
 319 84 319 84 341.5 91 c 128,-1,13
 364 98 364 98 378 111 c 1,14,-1
 378 418 l 1,15,-1
 316 451 l 1,16,-1
 316 467 l 1,17,-1
 522 467 l 1,18,-1
 522 456 l 1,19,-1
 536 456 l 2,20,21
 578 456 578 456 599 466 c 1,22,-1
 599 554 l 1,23,-1
 654 554 l 2,24,25
 680 554 680 554 690.5 541.5 c 128,-1,26
 701 529 701 529 701 503 c 0,27,28
 701 464 701 464 673 441.5 c 128,-1,29
 645 419 645 419 581 419 c 2,30,-1
 522 419 l 1,31,-1
 522 48 l 1,32,-1
 587 16 l 1,33,-1
 587 0 l 1,34,-1
 378 0 l 1,35,-1
 378 66 l 1,36,-1
 374 66 l 1,37,38
 338 30 338 30 303.5 10 c 128,-1,39
 269 -10 269 -10 223 -10 c 0,0,1
EndSplineSet
Validated: 1
Substitution2: "'case' Case-Sensitive Forms lookup 61 subtable" Uhorn
Substitution2: "'smcp' Lowercase to Small Capitals lookup 60 subtable" uhorn.sc
Substitution2: "'c2sc' Capitals to Small Capitals lookup 59 subtable" uhorn.sc
AlternateSubs2: "'aalt' Access All Alternates lookup 1 subtable" uhorn.sc Uhorn
EndChar

StartChar: schwa
Encoding: 601 601 536
Width: 507
GlyphClass: 1
Flags: W
LayerCount: 2
Fore
SplineSet
216 -9 m 0,0,1
 133 -9 133 -9 87 46 c 128,-1,2
 41 101 41 101 40 203 c 1,3,-1
 44 208 l 1,4,-1
 330 208 l 1,5,-1
 330 213 l 2,6,7
 330 254 330 254 314.5 289 c 128,-1,8
 299 324 299 324 265.5 345.5 c 128,-1,9
 232 367 232 367 179 367 c 0,10,11
 150 367 150 367 113 357 c 128,-1,12
 76 347 76 347 42 326 c 1,13,-1
 39 326 l 1,14,-1
 39 356 l 1,15,16
 66 407 66 407 118.5 442.5 c 128,-1,17
 171 478 171 478 241 478 c 0,18,19
 346 478 346 478 407.5 417 c 128,-1,20
 469 356 469 356 469 255 c 0,21,22
 469 178 469 178 434.5 118 c 128,-1,23
 400 58 400 58 343 24.5 c 128,-1,24
 286 -9 286 -9 216 -9 c 0,0,1
240 36 m 0,25,26
 276 36 276 36 298.5 68.5 c 128,-1,27
 321 101 321 101 328 162 c 1,28,-1
 154 162 l 1,29,30
 162 91 162 91 183.5 63.5 c 128,-1,31
 205 36 205 36 240 36 c 0,25,26
EndSplineSet
Validated: 1
Substitution2: "'case' Case-Sensitive Forms lookup 61 subtable" Schwa
Substitution2: "'smcp' Lowercase to Small Capitals lookup 60 subtable" schwa.sc
Substitution2: "'c2sc' Capitals to Small Capitals lookup 59 subtable" schwa.sc
AlternateSubs2: "'aalt' Access All Alternates lookup 1 subtable" schwa.sc Schwa
EndChar

StartChar: eng
Encoding: 331 331 537
Width: 629
GlyphClass: 1
Flags: W
LayerCount: 2
Fore
SplineSet
32 0 m 1,0,-1
 32 16 l 1,1,-1
 100 49 l 1,2,-1
 100 360 l 1,3,-1
 35 402 l 1,4,-1
 35 415 l 1,5,-1
 221 477 l 1,6,-1
 233 477 l 1,7,-1
 244 401 l 1,8,-1
 248 401 l 1,9,10
 285 437 285 437 319.5 457 c 128,-1,11
 354 477 354 477 401 477 c 0,12,13
 463 477 463 477 503 445.5 c 128,-1,14
 543 414 543 414 543 351 c 2,15,-1
 543 29 l 2,16,17
 543 -37 543 -37 522 -85 c 128,-1,18
 501 -133 501 -133 451.5 -169.5 c 128,-1,19
 402 -206 402 -206 317 -236 c 1,20,-1
 317 -217 l 1,21,22
 350 -191 350 -191 368 -168.5 c 128,-1,23
 386 -146 386 -146 392 -113.5 c 128,-1,24
 398 -81 398 -81 398 -27 c 2,25,-1
 398 309 l 2,26,27
 398 345 398 345 377.5 364 c 128,-1,28
 357 383 357 383 325 383 c 0,29,30
 306 383 306 383 282.5 376 c 128,-1,31
 259 369 259 369 244 356 c 1,32,-1
 244 49 l 1,33,-1
 296 16 l 1,34,-1
 296 0 l 1,35,-1
 32 0 l 1,0,-1
EndSplineSet
Validated: 1
Substitution2: "'case' Case-Sensitive Forms lookup 61 subtable" Eng
Substitution2: "'smcp' Lowercase to Small Capitals lookup 60 subtable" eng.sc
Substitution2: "'c2sc' Capitals to Small Capitals lookup 59 subtable" eng.sc
AlternateSubs2: "'aalt' Access All Alternates lookup 1 subtable" eng.sc Eng
EndChar

StartChar: eth
Encoding: 240 240 538
Width: 565
GlyphClass: 1
Flags: W
LayerCount: 2
Fore
SplineSet
280 -10 m 0,0,1
 209 -10 209 -10 153.5 21.5 c 128,-1,2
 98 53 98 53 67 107.5 c 128,-1,3
 36 162 36 162 36 229 c 0,4,5
 36 304 36 304 68.5 360 c 128,-1,6
 101 416 101 416 157.5 446.5 c 128,-1,7
 214 477 214 477 283 477 c 0,8,9
 302 477 302 477 318 475.5 c 128,-1,10
 334 474 334 474 347 471 c 1,11,12
 321 546 321 546 272 601 c 1,13,-1
 201 536 l 1,14,-1
 126 536 l 1,15,-1
 236 637 l 1,16,17
 175 691 175 691 84 723 c 1,18,-1
 84 767 l 1,19,20
 195 740 195 740 286 683 c 1,21,-1
 368 759 l 1,22,-1
 442 759 l 1,23,-1
 329 653 l 1,24,25
 423 582 423 582 476 482.5 c 128,-1,26
 529 383 529 383 529 268 c 0,27,28
 529 184 529 184 497 121.5 c 128,-1,29
 465 59 465 59 409 24.5 c 128,-1,30
 353 -10 353 -10 280 -10 c 0,0,1
183 237 m 0,31,32
 183 153 183 153 208.5 96.5 c 128,-1,33
 234 40 234 40 286 40 c 0,34,35
 329 40 329 40 353.5 95.5 c 128,-1,36
 378 151 378 151 378 273 c 0,37,38
 378 324 378 324 372 370 c 1,39,40
 354 396 354 396 333.5 410.5 c 128,-1,41
 313 425 313 425 282 425 c 0,42,43
 234 425 234 425 208.5 377.5 c 128,-1,44
 183 330 183 330 183 237 c 0,31,32
EndSplineSet
Validated: 1
Substitution2: "'case' Case-Sensitive Forms lookup 61 subtable" Eth
Substitution2: "'smcp' Lowercase to Small Capitals lookup 60 subtable" eth.sc
Substitution2: "'c2sc' Capitals to Small Capitals lookup 59 subtable" eth.sc
AlternateSubs2: "'aalt' Access All Alternates lookup 1 subtable" eth.sc Eth
EndChar

StartChar: thorn
Encoding: 254 254 539
Width: 600
GlyphClass: 1
Flags: W
LayerCount: 2
Fore
SplineSet
32 -236 m 1,0,-1
 32 -219 l 1,1,-1
 100 -186 l 1,2,-1
 100 651 l 1,3,-1
 35 699 l 1,4,-1
 35 712 l 1,5,-1
 227 768 l 1,6,-1
 244 768 l 1,7,-1
 244 418 l 1,8,-1
 251 418 l 1,9,10
 323 477 323 477 397 477 c 0,11,12
 442 477 442 477 481.5 450 c 128,-1,13
 521 423 521 423 544.5 373 c 128,-1,14
 568 323 568 323 568 253 c 0,15,16
 568 171 568 171 535.5 112 c 128,-1,17
 503 53 503 53 448.5 21.5 c 128,-1,18
 394 -10 394 -10 331 -10 c 0,19,20
 307 -10 307 -10 285.5 -8 c 128,-1,21
 264 -6 264 -6 244 -1 c 1,22,-1
 244 -186 l 1,23,-1
 324 -219 l 1,24,-1
 324 -236 l 1,25,-1
 32 -236 l 1,0,-1
312 393 m 0,26,27
 294 393 294 393 278 388 c 128,-1,28
 262 383 262 383 244 373 c 1,29,-1
 244 77 l 1,30,31
 274 43 274 43 325 43 c 0,32,33
 350 43 350 43 372.5 58.5 c 128,-1,34
 395 74 395 74 410 113 c 128,-1,35
 425 152 425 152 425 223 c 0,36,37
 425 310 425 310 390 351.5 c 128,-1,38
 355 393 355 393 312 393 c 0,26,27
EndSplineSet
Validated: 1
Substitution2: "'case' Case-Sensitive Forms lookup 61 subtable" Thorn
Substitution2: "'smcp' Lowercase to Small Capitals lookup 60 subtable" thorn.sc
Substitution2: "'c2sc' Capitals to Small Capitals lookup 59 subtable" thorn.sc
AlternateSubs2: "'aalt' Access All Alternates lookup 1 subtable" thorn.sc Thorn
EndChar

StartChar: uni0431
Encoding: 1073 1073 544
Width: 560
GlyphClass: 1
Flags: W
LayerCount: 2
Fore
SplineSet
475 767 m 1,0,-1
 501 767 l 1,1,-1
 505 763 l 1,2,-1
 505 726 l 2,3,4
 505 661 505 661 471 624 c 128,-1,5
 437 587 437 587 358 585 c 0,6,7
 310 583 310 583 282 582.5 c 128,-1,8
 254 582 254 582 237.5 580.5 c 128,-1,9
 221 579 221 579 210 575 c 0,10,11
 178 565 178 565 175 512 c 0,12,13
 175 508 175 508 175 504 c 0,14,15
 175 491 175 491 177 475 c 0,16,17
 180 453 180 453 182 417 c 1,18,19
 204 434 204 434 234.5 445.5 c 128,-1,20
 265 457 265 457 306 457 c 0,21,22
 367 457 367 457 417 429.5 c 128,-1,23
 467 402 467 402 495.5 351.5 c 128,-1,24
 524 301 524 301 524 230 c 0,25,26
 524 157 524 157 491 103 c 128,-1,27
 458 49 458 49 402.5 19.5 c 128,-1,28
 347 -10 347 -10 282 -10 c 0,29,30
 199 -10 199 -10 144.5 26.5 c 128,-1,31
 90 63 90 63 63 125.5 c 128,-1,32
 36 188 36 188 36 265 c 0,33,34
 36 363 36 363 68.5 451.5 c 128,-1,35
 101 540 101 540 179.5 607 c 128,-1,36
 258 674 258 674 393 710 c 0,37,38
 445 724 445 724 460 734.5 c 128,-1,39
 475 745 475 745 475 767 c 1,0,-1
183 256 m 2,40,41
 183 145 183 145 213 92.5 c 128,-1,42
 243 40 243 40 292 40 c 0,43,44
 326 40 326 40 351.5 77 c 128,-1,45
 377 114 377 114 377 205 c 0,46,47
 377 295 377 295 353 351.5 c 128,-1,48
 329 408 329 408 270 408 c 0,49,50
 242 408 242 408 221 395.5 c 128,-1,51
 200 383 200 383 183 364 c 1,52,-1
 183 256 l 2,40,41
EndSplineSet
Validated: 1
Substitution2: "'smcp' Lowercase to Small Capitals lookup 60 subtable" uni0431.sc
Substitution2: "'c2sc' Capitals to Small Capitals lookup 59 subtable" uni0431.sc
Substitution2: "'ss05' Style Set 5 lookup 18 subtable" uni0431.locl
Substitution2: "'locl' Localized Forms in Cyrillic lookup 16 subtable" uni0431.locl
AlternateSubs2: "'aalt' Access All Alternates lookup 1 subtable" uni0431.locl uni0431.sc
EndChar

StartChar: uni0432
Encoding: 1074 1074 545
Width: 560
GlyphClass: 1
Flags: W
LayerCount: 2
Fore
SplineSet
100 418 m 1,0,-1
 32 451 l 1,1,-1
 32 467 l 1,2,-1
 288 467 l 2,3,4
 350 466 350 466 400 458 c 128,-1,6
 450 450 450 450 480 426 c 0,7,8
 509 403 509 403 509 363 c 0,9,10
 509 362 509 362 509 360 c 0,11,12
 509 359 509 359 509 358 c 0,13,14
 508 316 508 316 472 289 c 0,15,16
 434 262 434 262 367 253 c 1,17,18
 463 244 463 244 503 213 c 128,-1,19
 543 182 543 182 543 138 c 0,20,21
 543 69 543 69 475.5 34.5 c 128,-1,22
 408 0 408 0 280 0 c 2,23,-1
 32 0 l 1,24,-1
 32 16 l 1,25,-1
 100 49 l 1,26,-1
 100 418 l 1,0,-1
282 422 m 2,27,-1
 244 422 l 1,28,-1
 244 268 l 1,29,-1
 279 268 l 2,30,31
 367 268 367 268 367 345 c 0,32,33
 367 380 367 380 346.5 401 c 128,-1,34
 326 422 326 422 282 422 c 2,27,-1
278 227 m 2,35,-1
 244 227 l 1,36,-1
 244 45 l 1,37,-1
 273 45 l 2,38,39
 336 45 336 45 365 68 c 128,-1,40
 394 91 394 91 394 136 c 0,41,42
 394 179 394 179 366.5 203 c 128,-1,43
 339 227 339 227 278 227 c 2,35,-1
EndSplineSet
Validated: 1
Substitution2: "'smcp' Lowercase to Small Capitals lookup 60 subtable" uni0432.sc
Substitution2: "'c2sc' Capitals to Small Capitals lookup 59 subtable" uni0432.sc
Substitution2: "'ss06' Style Set 6 lookup 19 subtable" uni0432.bgr
Substitution2: "'locl' Localized Forms in Cyrillic lookup 17 subtable" uni0432.bgr
AlternateSubs2: "'aalt' Access All Alternates lookup 1 subtable" uni0432.bgr uni0432.sc
EndChar

StartChar: uni0433
Encoding: 1075 1075 546
Width: 478
GlyphClass: 2
Flags: W
AnchorPoint: "Anchor-3" 263 514 basechar 0
LayerCount: 2
Fore
SplineSet
100 418 m 1,0,-1
 32 451 l 1,1,-1
 32 467 l 1,2,-1
 460 467 l 1,3,-1
 460 292 l 1,4,-1
 440 292 l 1,5,-1
 368 417 l 1,6,-1
 244 417 l 1,7,-1
 244 49 l 1,8,-1
 332 16 l 1,9,-1
 332 0 l 1,10,-1
 32 0 l 1,11,-1
 32 16 l 1,12,-1
 100 49 l 1,13,-1
 100 418 l 1,0,-1
EndSplineSet
Validated: 1
Substitution2: "'smcp' Lowercase to Small Capitals lookup 60 subtable" uni0433.sc
Substitution2: "'c2sc' Capitals to Small Capitals lookup 59 subtable" uni0433.sc
Substitution2: "'ss06' Style Set 6 lookup 19 subtable" uni0433.bgr
Substitution2: "'ss05' Style Set 5 lookup 18 subtable" uni0433.locl
Substitution2: "'locl' Localized Forms in Cyrillic lookup 17 subtable" uni0433.bgr
Substitution2: "'locl' Localized Forms in Cyrillic lookup 16 subtable" uni0433.locl
AlternateSubs2: "'aalt' Access All Alternates lookup 1 subtable" uni0433.locl uni0433.bgr uni0433.sc
EndChar

StartChar: uni0493
Encoding: 1171 1171 548
Width: 478
GlyphClass: 1
Flags: W
LayerCount: 2
Fore
SplineSet
27 207 m 1,0,-1
 27 257 l 1,1,-1
 100 257 l 1,2,-1
 100 418 l 1,3,-1
 32 451 l 1,4,-1
 32 467 l 1,5,-1
 460 467 l 1,6,-1
 460 292 l 1,7,-1
 440 292 l 1,8,-1
 368 417 l 1,9,-1
 244 417 l 1,10,-1
 244 257 l 1,11,-1
 354 257 l 1,12,-1
 354 207 l 1,13,-1
 244 207 l 1,14,-1
 244 49 l 1,15,-1
 332 16 l 1,16,-1
 332 0 l 1,17,-1
 32 0 l 1,18,-1
 32 16 l 1,19,-1
 100 49 l 1,20,-1
 100 207 l 1,21,-1
 27 207 l 1,0,-1
EndSplineSet
Validated: 1
Substitution2: "'smcp' Lowercase to Small Capitals lookup 60 subtable" uni0493.sc
Substitution2: "'c2sc' Capitals to Small Capitals lookup 59 subtable" uni0493.sc
Substitution2: "'aalt' Access All Alternates lookup 0 subtable" uni0493.sc
EndChar

StartChar: uni0434
Encoding: 1076 1076 549
Width: 555
GlyphClass: 1
Flags: W
LayerCount: 2
Fore
SplineSet
72 50 m 1,0,1
 98 102 98 102 110.5 167 c 128,-1,2
 123 232 123 232 127 295 c 128,-1,3
 131 358 131 358 131 403 c 2,4,-1
 131 418 l 1,5,-1
 62 451 l 1,6,-1
 62 467 l 1,7,-1
 520 467 l 1,8,-1
 520 451 l 1,9,-1
 452 418 l 1,10,-1
 452 50 l 1,11,-1
 524 50 l 1,12,-1
 524 -131 l 1,13,-1
 505 -131 l 1,14,-1
 425 0 l 1,15,-1
 112 0 l 1,16,-1
 33 -131 l 1,17,-1
 13 -131 l 1,18,-1
 13 50 l 1,19,-1
 72 50 l 1,0,1
308 50 m 1,20,-1
 308 417 l 1,21,-1
 185 417 l 1,22,-1
 185 403 l 2,23,24
 185 357 185 357 181 294.5 c 128,-1,25
 177 232 177 232 165.5 167 c 128,-1,26
 154 102 154 102 132 50 c 1,27,-1
 308 50 l 1,20,-1
EndSplineSet
Validated: 1
Substitution2: "'smcp' Lowercase to Small Capitals lookup 60 subtable" uni0434.sc
Substitution2: "'c2sc' Capitals to Small Capitals lookup 59 subtable" uni0434.sc
Substitution2: "'ss06' Style Set 6 lookup 19 subtable" uni0434.bgr
Substitution2: "'ss05' Style Set 5 lookup 18 subtable" uni0434.locl
Substitution2: "'locl' Localized Forms in Cyrillic lookup 17 subtable" uni0434.bgr
Substitution2: "'locl' Localized Forms in Cyrillic lookup 16 subtable" uni0434.locl
AlternateSubs2: "'aalt' Access All Alternates lookup 1 subtable" uni0434.locl uni0434.bgr uni0434.sc
EndChar

StartChar: uni0436
Encoding: 1078 1078 552
Width: 860
GlyphClass: 1
Flags: W
LayerCount: 2
Fore
SplineSet
191 0 m 1,0,-1
 2 0 l 1,1,-1
 2 16 l 1,2,-1
 67 51 l 1,3,-1
 241 281 l 1,4,-1
 86 415 l 1,5,-1
 18 451 l 1,6,-1
 18 467 l 1,7,-1
 234 467 l 1,8,-1
 234 451 l 1,9,-1
 193 414 l 1,10,-1
 193 408 l 1,11,-1
 356 254 l 1,12,-1
 356 418 l 1,13,-1
 294 451 l 1,14,-1
 294 467 l 1,15,-1
 563 467 l 1,16,-1
 563 451 l 1,17,-1
 501 418 l 1,18,-1
 501 254 l 1,19,-1
 665 408 l 1,20,-1
 665 414 l 1,21,-1
 622 451 l 1,22,-1
 622 467 l 1,23,-1
 833 467 l 1,24,-1
 833 451 l 1,25,-1
 765 415 l 1,26,-1
 616 289 l 1,27,-1
 799 51 l 1,28,-1
 858 16 l 1,29,-1
 858 0 l 1,30,-1
 665 0 l 1,31,-1
 633 53 l 1,32,-1
 501 230 l 1,33,-1
 501 49 l 1,34,-1
 560 16 l 1,35,-1
 560 0 l 1,36,-1
 297 0 l 1,37,-1
 297 16 l 1,38,-1
 356 49 l 1,39,-1
 356 230 l 1,40,-1
 223 53 l 1,41,-1
 191 0 l 1,0,-1
EndSplineSet
Validated: 1
Substitution2: "'smcp' Lowercase to Small Capitals lookup 60 subtable" uni0436.sc
Substitution2: "'c2sc' Capitals to Small Capitals lookup 59 subtable" uni0436.sc
Substitution2: "'ss06' Style Set 6 lookup 19 subtable" uni0436.bgr
Substitution2: "'locl' Localized Forms in Cyrillic lookup 17 subtable" uni0436.bgr
AlternateSubs2: "'aalt' Access All Alternates lookup 1 subtable" uni0436.bgr uni0436.sc
EndChar

StartChar: uni0437
Encoding: 1079 1079 553
Width: 473
GlyphClass: 1
Flags: W
LayerCount: 2
Fore
SplineSet
207 37 m 0,0,1
 249 37 249 37 273.5 60.5 c 128,-1,2
 298 84 298 84 298 130 c 0,3,4
 298 223 298 223 191 223 c 2,5,-1
 138 223 l 1,6,-1
 138 270 l 1,7,-1
 193 270 l 2,8,9
 239 270 239 270 260 293 c 128,-1,10
 281 316 281 316 281 353 c 0,11,12
 281 388 281 388 263 409.5 c 128,-1,13
 245 431 245 431 203 431 c 0,14,15
 170 431 170 431 149.5 416.5 c 128,-1,16
 129 402 129 402 109 373 c 2,17,-1
 77 325 l 1,18,-1
 61 325 l 1,19,-1
 61 446 l 1,20,21
 127 477 127 477 227 477 c 0,22,23
 274 477 274 477 319.5 469 c 128,-1,24
 365 461 365 461 394.5 437 c 128,-1,25
 424 413 424 413 424 368 c 0,26,27
 424 322 424 322 386 291.5 c 128,-1,28
 348 261 348 261 280 251 c 1,29,30
 363 242 363 242 404.5 210 c 128,-1,31
 446 178 446 178 446 129 c 0,32,33
 446 58 446 58 383.5 24 c 128,-1,34
 321 -10 321 -10 219 -10 c 0,35,36
 159 -10 159 -10 121.5 -0.5 c 128,-1,37
 84 9 84 9 49 27 c 1,38,-1
 49 145 l 1,39,-1
 68 145 l 1,40,-1
 92 108 l 2,41,42
 117 70 117 70 142.5 53.5 c 128,-1,43
 168 37 168 37 207 37 c 0,0,1
EndSplineSet
Validated: 1
Substitution2: "'smcp' Lowercase to Small Capitals lookup 60 subtable" uni0437.sc
Substitution2: "'c2sc' Capitals to Small Capitals lookup 59 subtable" uni0437.sc
Substitution2: "'ss06' Style Set 6 lookup 19 subtable" uni0437.bgr
Substitution2: "'locl' Localized Forms in Cyrillic lookup 17 subtable" uni0437.bgr
AlternateSubs2: "'aalt' Access All Alternates lookup 1 subtable" uni0437.bgr uni0437.sc
EndChar

StartChar: uni0438
Encoding: 1080 1080 554
Width: 653
GlyphClass: 2
Flags: W
AnchorPoint: "Anchor-3" 327 514 basechar 0
LayerCount: 2
Fore
SplineSet
100 418 m 1,0,-1
 32 451 l 1,1,-1
 32 467 l 1,2,-1
 293 467 l 1,3,-1
 293 451 l 1,4,-1
 244 418 l 1,5,-1
 244 168 l 1,6,-1
 409 381 l 1,7,-1
 409 418 l 1,8,-1
 360 451 l 1,9,-1
 360 467 l 1,10,-1
 622 467 l 1,11,-1
 622 451 l 1,12,-1
 553 418 l 1,13,-1
 553 49 l 1,14,-1
 622 16 l 1,15,-1
 622 0 l 1,16,-1
 360 0 l 1,17,-1
 360 16 l 1,18,-1
 409 49 l 1,19,-1
 409 303 l 1,20,-1
 244 90 l 1,21,-1
 244 49 l 1,22,-1
 293 16 l 1,23,-1
 293 0 l 1,24,-1
 32 0 l 1,25,-1
 32 16 l 1,26,-1
 100 49 l 1,27,-1
 100 418 l 1,0,-1
EndSplineSet
Validated: 1
Substitution2: "'smcp' Lowercase to Small Capitals lookup 60 subtable" uni0438.sc
Substitution2: "'c2sc' Capitals to Small Capitals lookup 59 subtable" uni0438.sc
Substitution2: "'ss06' Style Set 6 lookup 19 subtable" uni0438.bgr
Substitution2: "'locl' Localized Forms in Cyrillic lookup 17 subtable" uni0438.bgr
AlternateSubs2: "'aalt' Access All Alternates lookup 1 subtable" uni0438.bgr uni0438.sc
EndChar

StartChar: uni043A
Encoding: 1082 1082 557
Width: 617
GlyphClass: 2
Flags: W
AnchorPoint: "Anchor-3" 335 514 basechar 0
LayerCount: 2
Fore
SplineSet
413 0 m 1,0,-1
 381 53 l 1,1,-1
 244 230 l 1,2,-1
 244 49 l 1,3,-1
 307 16 l 1,4,-1
 307 0 l 1,5,-1
 32 0 l 1,6,-1
 32 16 l 1,7,-1
 100 49 l 1,8,-1
 100 418 l 1,9,-1
 32 451 l 1,10,-1
 32 467 l 1,11,-1
 307 467 l 1,12,-1
 307 451 l 1,13,-1
 244 418 l 1,14,-1
 244 254 l 1,15,-1
 418 408 l 1,16,-1
 418 414 l 1,17,-1
 376 451 l 1,18,-1
 376 467 l 1,19,-1
 587 467 l 1,20,-1
 587 451 l 1,21,-1
 519 415 l 1,22,-1
 362 287 l 1,23,-1
 547 51 l 1,24,-1
 612 16 l 1,25,-1
 612 0 l 1,26,-1
 413 0 l 1,0,-1
EndSplineSet
Validated: 1
Substitution2: "'smcp' Lowercase to Small Capitals lookup 60 subtable" uni043A.sc
Substitution2: "'c2sc' Capitals to Small Capitals lookup 59 subtable" uni043A.sc
Substitution2: "'ss06' Style Set 6 lookup 19 subtable" uni043A.bgr
Substitution2: "'locl' Localized Forms in Cyrillic lookup 17 subtable" uni043A.bgr
AlternateSubs2: "'aalt' Access All Alternates lookup 1 subtable" uni043A.bgr uni043A.sc
EndChar

StartChar: uni043B
Encoding: 1083 1083 559
Width: 565
GlyphClass: 1
Flags: W
LayerCount: 2
Fore
SplineSet
465 418 m 1,0,-1
 465 49 l 1,1,-1
 534 16 l 1,2,-1
 534 0 l 1,3,-1
 253 0 l 1,4,-1
 253 16 l 1,5,-1
 321 49 l 1,6,-1
 321 417 l 1,7,-1
 204 417 l 1,8,-1
 204 387 l 2,9,10
 204 260 204 260 193.5 185.5 c 128,-1,11
 183 111 183 111 161 62 c 0,12,13
 141 19 141 19 119 4.5 c 128,-1,14
 97 -10 97 -10 67 -10 c 0,15,16
 39 -10 39 -10 26.5 2 c 128,-1,17
 14 14 14 14 14 43 c 2,18,-1
 14 95 l 1,19,-1
 91 95 l 1,20,21
 123 128 123 128 136.5 195 c 128,-1,22
 150 262 150 262 150 384 c 2,23,-1
 150 418 l 1,24,-1
 79 451 l 1,25,-1
 79 467 l 1,26,-1
 534 467 l 1,27,-1
 534 451 l 1,28,-1
 465 418 l 1,0,-1
EndSplineSet
Validated: 1
Substitution2: "'smcp' Lowercase to Small Capitals lookup 60 subtable" uni043B.sc
Substitution2: "'c2sc' Capitals to Small Capitals lookup 59 subtable" uni043B.sc
Substitution2: "'ss06' Style Set 6 lookup 19 subtable" uni043B.bgr
Substitution2: "'locl' Localized Forms in Cyrillic lookup 17 subtable" uni043B.bgr
AlternateSubs2: "'aalt' Access All Alternates lookup 1 subtable" uni043B.bgr uni043B.sc
EndChar

StartChar: uni043C
Encoding: 1084 1084 560
Width: 758
GlyphClass: 1
Flags: W
LayerCount: 2
Fore
SplineSet
101 418 m 1,0,-1
 34 451 l 1,1,-1
 34 467 l 1,2,-1
 254 467 l 1,3,-1
 376 195 l 1,4,-1
 384 195 l 1,5,-1
 503 467 l 1,6,-1
 717 467 l 1,7,-1
 717 451 l 1,8,-1
 648 418 l 1,9,-1
 668 49 l 1,10,-1
 736 16 l 1,11,-1
 736 0 l 1,12,-1
 465 0 l 1,13,-1
 465 16 l 1,14,-1
 523 49 l 1,15,-1
 509 346 l 1,16,-1
 358 0 l 1,17,-1
 315 0 l 1,18,-1
 157 345 l 1,19,-1
 148 49 l 1,20,-1
 207 16 l 1,21,-1
 207 0 l 1,22,-1
 24 0 l 1,23,-1
 24 16 l 1,24,-1
 91 49 l 1,25,-1
 101 418 l 1,0,-1
EndSplineSet
Validated: 1
Substitution2: "'smcp' Lowercase to Small Capitals lookup 60 subtable" uni043C.sc
Substitution2: "'c2sc' Capitals to Small Capitals lookup 59 subtable" uni043C.sc
Substitution2: "'aalt' Access All Alternates lookup 0 subtable" uni043C.sc
EndChar

StartChar: uni043D
Encoding: 1085 1085 561
Width: 643
GlyphClass: 1
Flags: W
LayerCount: 2
Fore
SplineSet
100 418 m 1,0,-1
 32 451 l 1,1,-1
 32 467 l 1,2,-1
 293 467 l 1,3,-1
 293 451 l 1,4,-1
 244 418 l 1,5,-1
 244 269 l 1,6,-1
 398 269 l 1,7,-1
 398 418 l 1,8,-1
 350 451 l 1,9,-1
 350 467 l 1,10,-1
 611 467 l 1,11,-1
 611 451 l 1,12,-1
 543 418 l 1,13,-1
 543 49 l 1,14,-1
 611 16 l 1,15,-1
 611 0 l 1,16,-1
 350 0 l 1,17,-1
 350 16 l 1,18,-1
 398 49 l 1,19,-1
 398 219 l 1,20,-1
 244 219 l 1,21,-1
 244 49 l 1,22,-1
 293 16 l 1,23,-1
 293 0 l 1,24,-1
 32 0 l 1,25,-1
 32 16 l 1,26,-1
 100 49 l 1,27,-1
 100 418 l 1,0,-1
EndSplineSet
Validated: 1
Substitution2: "'smcp' Lowercase to Small Capitals lookup 60 subtable" uni043D.sc
Substitution2: "'c2sc' Capitals to Small Capitals lookup 59 subtable" uni043D.sc
Substitution2: "'ss06' Style Set 6 lookup 19 subtable" uni043D.bgr
Substitution2: "'locl' Localized Forms in Cyrillic lookup 17 subtable" uni043D.bgr
AlternateSubs2: "'aalt' Access All Alternates lookup 1 subtable" uni043D.bgr uni043D.sc
EndChar

StartChar: uni043F
Encoding: 1087 1087 563
Width: 632
GlyphClass: 1
Flags: W
LayerCount: 2
Fore
SplineSet
100 418 m 1,0,-1
 32 451 l 1,1,-1
 32 467 l 1,2,-1
 601 467 l 1,3,-1
 601 451 l 1,4,-1
 532 418 l 1,5,-1
 532 49 l 1,6,-1
 601 16 l 1,7,-1
 601 0 l 1,8,-1
 340 0 l 1,9,-1
 340 16 l 1,10,-1
 388 49 l 1,11,-1
 388 417 l 1,12,-1
 244 417 l 1,13,-1
 244 49 l 1,14,-1
 293 16 l 1,15,-1
 293 0 l 1,16,-1
 32 0 l 1,17,-1
 32 16 l 1,18,-1
 100 49 l 1,19,-1
 100 418 l 1,0,-1
EndSplineSet
Validated: 1
Substitution2: "'smcp' Lowercase to Small Capitals lookup 60 subtable" uni043F.sc
Substitution2: "'c2sc' Capitals to Small Capitals lookup 59 subtable" uni043F.sc
Substitution2: "'ss06' Style Set 6 lookup 19 subtable" uni043F.bgr
Substitution2: "'ss05' Style Set 5 lookup 18 subtable" uni043F.locl
Substitution2: "'locl' Localized Forms in Cyrillic lookup 17 subtable" uni043F.bgr
Substitution2: "'locl' Localized Forms in Cyrillic lookup 16 subtable" uni043F.locl
AlternateSubs2: "'aalt' Access All Alternates lookup 1 subtable" uni043F.locl uni043F.bgr uni043F.sc
EndChar

StartChar: uni0442
Encoding: 1090 1090 566
Width: 516
GlyphClass: 1
Flags: W
LayerCount: 2
Fore
SplineSet
18 292 m 1,0,-1
 18 467 l 1,1,-1
 498 467 l 1,2,-1
 498 292 l 1,3,-1
 478 292 l 1,4,-1
 406 417 l 1,5,-1
 330 417 l 1,6,-1
 330 49 l 1,7,-1
 416 16 l 1,8,-1
 416 0 l 1,9,-1
 101 0 l 1,10,-1
 101 16 l 1,11,-1
 186 49 l 1,12,-1
 186 417 l 1,13,-1
 111 417 l 1,14,-1
 38 292 l 1,15,-1
 18 292 l 1,0,-1
EndSplineSet
Validated: 1
Substitution2: "'smcp' Lowercase to Small Capitals lookup 60 subtable" uni0442.sc
Substitution2: "'c2sc' Capitals to Small Capitals lookup 59 subtable" uni0442.sc
Substitution2: "'ss06' Style Set 6 lookup 19 subtable" uni0442.bgr
Substitution2: "'ss05' Style Set 5 lookup 18 subtable" uni0442.locl
Substitution2: "'locl' Localized Forms in Cyrillic lookup 17 subtable" uni0442.bgr
Substitution2: "'locl' Localized Forms in Cyrillic lookup 16 subtable" uni0442.locl
AlternateSubs2: "'aalt' Access All Alternates lookup 1 subtable" uni0442.locl uni0442.bgr uni0442.sc
EndChar

StartChar: uni0444
Encoding: 1092 1092 570
Width: 753
GlyphClass: 1
Flags: W
LayerCount: 2
Fore
SplineSet
238 -236 m 1,0,-1
 238 -219 l 1,1,-1
 306 -186 l 1,2,-1
 306 -9 l 1,3,4
 226 -3 226 -3 165 29 c 128,-1,5
 104 61 104 61 70 112.5 c 128,-1,6
 36 164 36 164 36 227 c 0,7,8
 36 294 36 294 70 348 c 128,-1,9
 104 402 104 402 165 436 c 128,-1,10
 226 470 226 470 306 476 c 1,11,-1
 306 651 l 1,12,-1
 241 699 l 1,13,-1
 241 712 l 1,14,-1
 437 768 l 1,15,-1
 450 768 l 1,16,-1
 450 476 l 1,17,18
 530 470 530 470 590 438 c 128,-1,19
 650 406 650 406 684 354.5 c 128,-1,20
 718 303 718 303 718 240 c 0,21,22
 718 173 718 173 684 119.5 c 128,-1,23
 650 66 650 66 589.5 32 c 128,-1,24
 529 -2 529 -2 450 -9 c 1,25,-1
 450 -186 l 1,26,-1
 511 -219 l 1,27,-1
 511 -236 l 1,28,-1
 238 -236 l 1,0,-1
183 249 m 0,29,30
 183 171 183 171 213.5 114.5 c 128,-1,31
 244 58 244 58 306 42 c 1,32,-1
 306 429 l 1,33,34
 245 421 245 421 214 372.5 c 128,-1,35
 183 324 183 324 183 249 c 0,29,30
569 219 m 0,36,37
 569 297 569 297 540 353.5 c 128,-1,38
 511 410 511 410 450 426 c 1,39,-1
 450 38 l 1,40,41
 510 47 510 47 539.5 96.5 c 128,-1,42
 569 146 569 146 569 219 c 0,36,37
EndSplineSet
Validated: 1
Substitution2: "'smcp' Lowercase to Small Capitals lookup 60 subtable" uni0444.sc
Substitution2: "'c2sc' Capitals to Small Capitals lookup 59 subtable" uni0444.sc
Substitution2: "'aalt' Access All Alternates lookup 0 subtable" uni0444.sc
EndChar

StartChar: uni0446
Encoding: 1094 1094 572
Width: 634
GlyphClass: 1
Flags: W
LayerCount: 2
Fore
SplineSet
100 49 m 1,0,-1
 100 418 l 1,1,-1
 32 451 l 1,2,-1
 32 467 l 1,3,-1
 293 467 l 1,4,-1
 293 451 l 1,5,-1
 244 418 l 1,6,-1
 244 50 l 1,7,-1
 388 50 l 1,8,-1
 388 418 l 1,9,-1
 340 451 l 1,10,-1
 340 467 l 1,11,-1
 601 467 l 1,12,-1
 601 451 l 1,13,-1
 532 418 l 1,14,-1
 532 50 l 1,15,-1
 605 50 l 1,16,-1
 605 -131 l 1,17,-1
 586 -131 l 1,18,-1
 506 0 l 1,19,-1
 32 0 l 1,20,-1
 32 16 l 1,21,-1
 100 49 l 1,0,-1
EndSplineSet
Validated: 1
Substitution2: "'smcp' Lowercase to Small Capitals lookup 60 subtable" uni0446.sc
Substitution2: "'c2sc' Capitals to Small Capitals lookup 59 subtable" uni0446.sc
Substitution2: "'ss06' Style Set 6 lookup 19 subtable" uni0446.bgr
Substitution2: "'locl' Localized Forms in Cyrillic lookup 17 subtable" uni0446.bgr
AlternateSubs2: "'aalt' Access All Alternates lookup 1 subtable" uni0446.bgr uni0446.sc
EndChar

StartChar: uni0447
Encoding: 1095 1095 573
Width: 604
GlyphClass: 1
Flags: W
LayerCount: 2
Fore
SplineSet
75 350 m 2,0,-1
 75 418 l 1,1,-1
 14 451 l 1,2,-1
 14 467 l 1,3,-1
 266 467 l 1,4,-1
 266 451 l 1,5,-1
 219 418 l 1,6,-1
 219 329 l 2,7,8
 219 278 219 278 240.5 259 c 128,-1,9
 262 240 262 240 303 240 c 0,10,11
 334 240 334 240 360 246 c 1,12,-1
 360 418 l 1,13,-1
 313 451 l 1,14,-1
 313 467 l 1,15,-1
 572 467 l 1,16,-1
 572 451 l 1,17,-1
 505 418 l 1,18,-1
 505 49 l 1,19,-1
 572 16 l 1,20,-1
 572 0 l 1,21,-1
 284 0 l 1,22,-1
 284 16 l 1,23,-1
 360 49 l 1,24,-1
 360 203 l 1,25,26
 313 192 313 192 258 191 c 0,27,28
 164 191 164 191 119.5 226.5 c 128,-1,29
 75 262 75 262 75 350 c 2,0,-1
EndSplineSet
Validated: 1
Substitution2: "'smcp' Lowercase to Small Capitals lookup 60 subtable" uni0447.sc
Substitution2: "'c2sc' Capitals to Small Capitals lookup 59 subtable" uni0447.sc
Substitution2: "'ss06' Style Set 6 lookup 19 subtable" uni0447.bgr
Substitution2: "'locl' Localized Forms in Cyrillic lookup 17 subtable" uni0447.bgr
AlternateSubs2: "'aalt' Access All Alternates lookup 1 subtable" uni0447.bgr uni0447.sc
EndChar

StartChar: uni0448
Encoding: 1096 1096 574
Width: 918
GlyphClass: 1
Flags: W
LayerCount: 2
Fore
SplineSet
100 49 m 1,0,-1
 100 418 l 1,1,-1
 32 451 l 1,2,-1
 32 467 l 1,3,-1
 299 467 l 1,4,-1
 299 451 l 1,5,-1
 244 418 l 1,6,-1
 244 50 l 1,7,-1
 391 50 l 1,8,-1
 391 418 l 1,9,-1
 337 451 l 1,10,-1
 337 467 l 1,11,-1
 590 467 l 1,12,-1
 590 451 l 1,13,-1
 536 418 l 1,14,-1
 536 50 l 1,15,-1
 682 50 l 1,16,-1
 682 418 l 1,17,-1
 628 451 l 1,18,-1
 628 467 l 1,19,-1
 895 467 l 1,20,-1
 895 451 l 1,21,-1
 826 418 l 1,22,-1
 826 49 l 1,23,-1
 895 16 l 1,24,-1
 895 0 l 1,25,-1
 32 0 l 1,26,-1
 32 16 l 1,27,-1
 100 49 l 1,0,-1
EndSplineSet
Validated: 1
Substitution2: "'smcp' Lowercase to Small Capitals lookup 60 subtable" uni0448.sc
Substitution2: "'c2sc' Capitals to Small Capitals lookup 59 subtable" uni0448.sc
Substitution2: "'ss06' Style Set 6 lookup 19 subtable" uni0448.bgr
Substitution2: "'locl' Localized Forms in Cyrillic lookup 17 subtable" uni0448.bgr
AlternateSubs2: "'aalt' Access All Alternates lookup 1 subtable" uni0448.bgr uni0448.sc
EndChar

StartChar: uni0449
Encoding: 1097 1097 575
Width: 934
GlyphClass: 1
Flags: W
LayerCount: 2
Fore
SplineSet
100 49 m 1,0,-1
 100 418 l 1,1,-1
 32 451 l 1,2,-1
 32 467 l 1,3,-1
 299 467 l 1,4,-1
 299 451 l 1,5,-1
 244 418 l 1,6,-1
 244 50 l 1,7,-1
 391 50 l 1,8,-1
 391 418 l 1,9,-1
 337 451 l 1,10,-1
 337 467 l 1,11,-1
 590 467 l 1,12,-1
 590 451 l 1,13,-1
 536 418 l 1,14,-1
 536 50 l 1,15,-1
 682 50 l 1,16,-1
 682 418 l 1,17,-1
 628 451 l 1,18,-1
 628 467 l 1,19,-1
 895 467 l 1,20,-1
 895 451 l 1,21,-1
 826 418 l 1,22,-1
 826 50 l 1,23,-1
 898 50 l 1,24,-1
 898 -131 l 1,25,-1
 879 -131 l 1,26,-1
 800 0 l 1,27,-1
 32 0 l 1,28,-1
 32 16 l 1,29,-1
 100 49 l 1,0,-1
EndSplineSet
Validated: 1
Substitution2: "'smcp' Lowercase to Small Capitals lookup 60 subtable" uni0449.sc
Substitution2: "'c2sc' Capitals to Small Capitals lookup 59 subtable" uni0449.sc
Substitution2: "'ss06' Style Set 6 lookup 19 subtable" uni0449.bgr
Substitution2: "'locl' Localized Forms in Cyrillic lookup 17 subtable" uni0449.bgr
AlternateSubs2: "'aalt' Access All Alternates lookup 1 subtable" uni0449.bgr uni0449.sc
EndChar

StartChar: uni044A
Encoding: 1098 1098 576
Width: 624
GlyphClass: 1
Flags: W
LayerCount: 2
Fore
SplineSet
347 288 m 2,0,1
 481 288 481 288 543.5 250 c 128,-1,2
 606 212 606 212 606 153 c 0,3,4
 606 76 606 76 539 38 c 128,-1,5
 472 0 472 0 344 0 c 2,6,-1
 109 0 l 1,7,-1
 109 16 l 1,8,-1
 177 49 l 1,9,-1
 177 417 l 1,10,-1
 111 417 l 1,11,-1
 38 292 l 1,12,-1
 18 292 l 1,13,-1
 18 467 l 1,14,-1
 403 467 l 1,15,-1
 403 451 l 1,16,-1
 321 418 l 1,17,-1
 321 288 l 1,18,-1
 347 288 l 2,0,1
351 241 m 2,19,-1
 321 241 l 1,20,-1
 321 47 l 1,21,-1
 349 47 l 2,22,23
 403 47 403 47 431 72 c 128,-1,24
 459 97 459 97 459 142 c 256,25,26
 459 187 459 187 431.5 214 c 128,-1,27
 404 241 404 241 351 241 c 2,19,-1
EndSplineSet
Validated: 1
Substitution2: "'smcp' Lowercase to Small Capitals lookup 60 subtable" uni044A.sc
Substitution2: "'c2sc' Capitals to Small Capitals lookup 59 subtable" uni044A.sc
Substitution2: "'ss06' Style Set 6 lookup 19 subtable" uni044A.bgr
Substitution2: "'locl' Localized Forms in Cyrillic lookup 17 subtable" uni044A.bgr
AlternateSubs2: "'aalt' Access All Alternates lookup 1 subtable" uni044A.bgr uni044A.sc
EndChar

StartChar: uni044B
Encoding: 1099 1099 577
Width: 831
GlyphClass: 2
Flags: W
AnchorPoint: "Anchor-3" 424 522 basechar 0
LayerCount: 2
Fore
SplineSet
732 418 m 1,0,-1
 732 49 l 1,1,-1
 800 16 l 1,2,-1
 800 0 l 1,3,-1
 519 0 l 1,4,-1
 519 16 l 1,5,-1
 588 49 l 1,6,-1
 588 418 l 1,7,-1
 519 451 l 1,8,-1
 519 467 l 1,9,-1
 800 467 l 1,10,-1
 800 451 l 1,11,-1
 732 418 l 1,0,-1
270 288 m 2,12,13
 404 288 404 288 466.5 250 c 128,-1,14
 529 212 529 212 529 153 c 0,15,16
 529 76 529 76 462 38 c 128,-1,17
 395 0 395 0 267 0 c 2,18,-1
 32 0 l 1,19,-1
 32 16 l 1,20,-1
 100 49 l 1,21,-1
 100 418 l 1,22,-1
 32 451 l 1,23,-1
 32 467 l 1,24,-1
 327 467 l 1,25,-1
 327 451 l 1,26,-1
 244 418 l 1,27,-1
 244 288 l 1,28,-1
 270 288 l 2,12,13
274 241 m 2,29,-1
 244 241 l 1,30,-1
 244 47 l 1,31,-1
 272 47 l 2,32,33
 326 47 326 47 354 71.5 c 128,-1,34
 382 96 382 96 382 142 c 0,35,36
 382 187 382 187 354.5 214 c 128,-1,37
 327 241 327 241 274 241 c 2,29,-1
EndSplineSet
Validated: 1
Substitution2: "'smcp' Lowercase to Small Capitals lookup 60 subtable" uni044B.sc
Substitution2: "'c2sc' Capitals to Small Capitals lookup 59 subtable" uni044B.sc
Substitution2: "'aalt' Access All Alternates lookup 0 subtable" uni044B.sc
EndChar

